Disorientation Sans-Horizontal Max Advance.ufo
<glyph name="zero" format="2">
  <advance width="637"/>
  <unicode hex="0030"/>
  <outline>
    <contour>
      <point x="315" y="-139" type="curve" smooth="yes"/>
      <point x="510" y="-281"/>
      <point x="594" y="-199"/>
      <point x="594" y="16" type="curve" smooth="yes"/>
      <point x="594" y="231"/>
      <point x="510" y="435"/>
      <point x="315" y="577" type="curve" smooth="yes"/>
      <point x="120" y="719"/>
      <point x="43" y="632"/>
      <point x="43" y="417" type="curve" smooth="yes"/>
      <point x="43" y="202"/>
      <point x="120" y="3"/>
    </contour>
    <contour>
      <point x="315" y="-49" type="curve" smooth="yes"/>
      <point x="175" y="53"/>
      <point x="148" y="175"/>
      <point x="148" y="340" type="curve" smooth="yes"/>
      <point x="148" y="505"/>
      <point x="175" y="589"/>
      <point x="315" y="487" type="curve" smooth="yes"/>
      <point x="455" y="385"/>
      <point x="489" y="258"/>
      <point x="489" y="93" type="curve" smooth="yes"/>
      <point x="489" y="-72"/>
      <point x="455" y="-151"/>
    </contour>
  </outline>
</glyph>
<glyph name="one" format="2">
  <advance width="371"/>
  <unicode hex="0031"/>
  <outline>
    <contour>
      <point x="238" y="613" type="line"/>
      <point x="238" y="513"/>
      <point x="213" y="506"/>
      <point x="43" y="625" type="curve"/>
      <point x="43" y="545" type="line"/>
      <point x="228" y="415" type="line"/>
      <point x="228" y="-140" type="line"/>
      <point x="328" y="-210" type="line"/>
      <point x="328" y="550" type="line"/>
    </contour>
  </outline>
</glyph>
<glyph name="two" format="2">
  <advance width="599"/>
  <unicode hex="0032"/>
  <outline>
    <contour>
      <point x="176" y="96" type="line"/>
      <point x="427" y="75"/>
      <point x="527" y="137"/>
      <point x="527" y="285" type="curve" smooth="yes"/>
      <point x="527" y="431"/>
      <point x="430" y="537"/>
      <point x="290" y="635" type="curve" smooth="yes"/>
      <point x="150" y="733"/>
      <point x="52" y="715"/>
      <point x="52" y="560" type="curve"/>
      <point x="152" y="485" type="line"/>
      <point x="152" y="595"/>
      <point x="200" y="608"/>
      <point x="290" y="545" type="curve" smooth="yes"/>
      <point x="380" y="482"/>
      <point x="427" y="410"/>
      <point x="427" y="350" type="curve" smooth="yes"/>
      <point x="427" y="246"/>
      <point x="266" y="188"/>
      <point x="43" y="190" type="curve"/>
      <point x="44" y="99" type="line"/>
      <point x="556" y="-210" type="line"/>
      <point x="556" y="-120" type="line"/>
    </contour>
  </outline>
</glyph>
<glyph name="three" format="2">
  <advance width="600"/>
  <unicode hex="0033"/>
  <outline>
    <contour>
      <point x="137" y="264" type="curve"/>
      <point x="32" y="354" type="line"/>
      <point x="24" y="322"/>
      <point x="22" y="298"/>
      <point x="22" y="280" type="curve" smooth="yes"/>
      <point x="22" y="165"/>
      <point x="108" y="5"/>
      <point x="298" y="-128" type="curve" smooth="yes"/>
      <point x="488" y="-261"/>
      <point x="573" y="-221"/>
      <point x="573" y="-106" type="curve" smooth="yes"/>
      <point x="573" y="-16"/>
      <point x="516" y="74"/>
      <point x="445" y="156" type="curve"/>
      <point x="496" y="154"/>
      <point x="535" y="177"/>
      <point x="535" y="238" type="curve" smooth="yes"/>
      <point x="535" y="343"/>
      <point x="438" y="490"/>
      <point x="298" y="588" type="curve" smooth="yes"/>
      <point x="158" y="686"/>
      <point x="60" y="675"/>
      <point x="60" y="570" type="curve" smooth="yes"/>
      <point x="60" y="553" type="line"/>
      <point x="160" y="476" type="line"/>
      <point x="160" y="495" type="line" smooth="yes"/>
      <point x="160" y="555"/>
      <point x="208" y="561"/>
      <point x="298" y="498" type="curve" smooth="yes"/>
      <point x="388" y="435"/>
      <point x="435" y="363"/>
      <point x="435" y="303" type="curve" smooth="yes"/>
      <point x="435" y="243"/>
      <point x="388" y="237"/>
      <point x="298" y="300" type="curve" smooth="yes"/>
      <point x="267" y="321" type="line"/>
      <point x="267" y="231" type="line"/>
      <point x="298" y="210" type="line" smooth="yes"/>
      <point x="398" y="140"/>
      <point x="468" y="63"/>
      <point x="468" y="-32" type="curve" smooth="yes"/>
      <point x="468" y="-127"/>
      <point x="398" y="-108"/>
      <point x="298" y="-38" type="curve" smooth="yes"/>
      <point x="198" y="32"/>
      <point x="127" y="111"/>
      <point x="127" y="206" type="curve" smooth="yes"/>
      <point x="127" y="231"/>
      <point x="132" y="252"/>
    </contour>
  </outline>
</glyph>
<glyph name="four" format="2">
  <advance width="600"/>
  <unicode hex="0034"/>
  <outline>
    <contour>
      <point x="22" y="372" type="line"/>
      <point x="22" y="282" type="line"/>
      <point x="365" y="42" type="line"/>
      <point x="365" y="-134" type="line"/>
      <point x="470" y="-208" type="line"/>
      <point x="470" y="-32" type="line"/>
      <point x="582" y="-110" type="line"/>
      <point x="582" y="-20" type="line"/>
      <point x="470" y="58" type="line"/>
      <point x="470" y="492" type="line"/>
      <point x="294" y="616" type="line"/>
    </contour>
    <contour>
      <point x="138" y="291" type="line"/>
      <point x="365" y="490" type="line"/>
      <point x="365" y="132" type="line"/>
    </contour>
  </outline>
</glyph>
<glyph name="five" format="2">
  <advance width="600"/>
  <unicode hex="0035"/>
  <outline>
    <contour>
      <point x="0" y="0"/>
    </contour>
    <contour>
      <point x="108" y="716" type="line"/>
      <point x="67" y="460" type="line"/>
      <point x="148" y="331" type="line"/>
      <point x="186" y="572" type="line"/>
      <point x="524" y="335" type="line"/>
      <point x="524" y="425" type="line"/>
    </contour>
    <contour>
      <point x="298" y="347" type="curve"/>
      <point x="240" y="388"/>
      <point x="188" y="407"/>
      <point x="130" y="405" type="curve"/>
      <point x="148" y="331" type="line"/>
      <point x="198" y="326"/>
      <point x="248" y="292"/>
      <point x="298" y="257" type="curve" smooth="yes"/>
      <point x="438" y="159"/>
      <point x="468" y="66"/>
      <point x="468" y="-29" type="curve" smooth="yes"/>
      <point x="468" y="-124"/>
      <point x="398" y="-105"/>
      <point x="298" y="-35" type="curve" smooth="yes"/>
      <point x="198" y="35"/>
      <point x="137" y="118"/>
      <point x="137" y="213" type="curve"/>
      <point x="32" y="296" type="line"/>
      <point x="32" y="181"/>
      <point x="108" y="8"/>
      <point x="298" y="-125" type="curve" smooth="yes"/>
      <point x="488" y="-258"/>
      <point x="573" y="-217"/>
      <point x="573" y="-102" type="curve" smooth="yes"/>
      <point x="573" y="33"/>
      <point x="509" y="199"/>
    </contour>
  </outline>
</glyph>
<glyph name="six" format="2">
  <advance width="600"/>
  <unicode hex="0036"/>
  <outline>
    <contour>
      <point x="468" y="269" type="curve"/>
      <point x="573" y="195" type="line"/>
      <point x="573" y="265"/>
      <point x="500" y="449"/>
      <point x="310" y="582" type="curve" smooth="yes"/>
      <point x="120" y="715"/>
      <point x="25" y="639"/>
      <point x="25" y="424" type="curve" smooth="yes"/>
      <point x="25" y="209"/>
      <point x="115" y="3"/>
      <point x="310" y="-134" type="curve" smooth="yes"/>
      <point x="505" y="-270"/>
      <point x="576" y="-213"/>
      <point x="576" y="-92" type="curve" smooth="yes"/>
      <point x="576" y="68"/>
      <point x="450" y="218"/>
      <point x="310" y="316" type="curve" smooth="yes"/>
      <point x="231" y="372"/>
      <point x="153" y="406"/>
      <point x="125" y="377" type="curve"/>
      <point x="138" y="567"/>
      <point x="210" y="562"/>
      <point x="310" y="492" type="curve" smooth="yes"/>
      <point x="410" y="422"/>
      <point x="468" y="336"/>
    </contour>
    <contour>
      <point x="476" y="-22" type="curve" smooth="yes"/>
      <point x="476" y="-117"/>
      <point x="410" y="-114"/>
      <point x="310" y="-44" type="curve" smooth="yes"/>
      <point x="210" y="26"/>
      <point x="151" y="111"/>
      <point x="151" y="206" type="curve"/>
      <point x="151" y="301"/>
      <point x="210" y="296"/>
      <point x="310" y="226" type="curve" smooth="yes"/>
      <point x="410" y="156"/>
      <point x="476" y="73"/>
    </contour>
  </outline>
</glyph>
<glyph name="seven" format="2">
  <advance width="477"/>
  <unicode hex="0037"/>
  <outline>
    <contour>
      <point x="477" y="353" type="line"/>
      <point x="0" y="687" type="line"/>
      <point x="0" y="597" type="line"/>
      <point x="352" y="351" type="line"/>
      <point x="252" y="313"/>
      <point x="175" y="161"/>
      <point x="175" y="-136" type="curve"/>
      <point x="275" y="-206" type="line"/>
      <point x="275" y="91"/>
      <point x="365" y="233"/>
      <point x="475" y="264" type="curve"/>
    </contour>
  </outline>
</glyph>
<glyph name="eight" format="2">
  <advance width="637"/>
  <unicode hex="0038"/>
  <outline>
    <contour>
      <point x="319" y="-133" type="curve" smooth="yes"/>
      <point x="509" y="-266"/>
      <point x="594" y="-226"/>
      <point x="594" y="-111" type="curve" smooth="yes"/>
      <point x="594" y="-21"/>
      <point x="537" y="74"/>
      <point x="466" y="156" type="curve"/>
      <point x="517" y="154"/>
      <point x="556" y="177"/>
      <point x="556" y="238" type="curve" smooth="yes"/>
      <point x="556" y="343"/>
      <point x="459" y="490"/>
      <point x="319" y="588" type="curve" smooth="yes"/>
      <point x="179" y="686"/>
      <point x="81" y="675"/>
      <point x="81" y="570" type="curve" smooth="yes"/>
      <point x="81" y="509"/>
      <point x="120" y="432"/>
      <point x="172" y="362" type="curve"/>
      <point x="101" y="379"/>
      <point x="43" y="365"/>
      <point x="43" y="275" type="curve" smooth="yes"/>
      <point x="43" y="160"/>
      <point x="129" y="0"/>
    </contour>
    <contour>
      <point x="319" y="-43" type="curve" smooth="yes"/>
      <point x="219" y="27"/>
      <point x="148" y="106"/>
      <point x="148" y="201" type="curve" smooth="yes"/>
      <point x="148" y="296"/>
      <point x="219" y="280"/>
      <point x="319" y="210" type="curve" smooth="yes"/>
      <point x="419" y="140"/>
      <point x="489" y="58"/>
      <point x="489" y="-37" type="curve" smooth="yes"/>
      <point x="489" y="-132"/>
      <point x="419" y="-113"/>
    </contour>
    <contour>
      <point x="319" y="300" type="curve" smooth="yes"/>
      <point x="229" y="363"/>
      <point x="181" y="435"/>
      <point x="181" y="495" type="curve" smooth="yes"/>
      <point x="181" y="555"/>
      <point x="229" y="561"/>
      <point x="319" y="498" type="curve" smooth="yes"/>
      <point x="409" y="435"/>
      <point x="456" y="363"/>
      <point x="456" y="303" type="curve" smooth="yes"/>
      <point x="456" y="243"/>
      <point x="409" y="237"/>
    </contour>
  </outline>
</glyph>
<glyph name="nine" format="2">
  <advance width="600"/>
  <unicode hex="0039"/>
  <outline>
    <contour>
      <point x="130" y="172" type="curve"/>
      <point x="25" y="246" type="line"/>
      <point x="25" y="176"/>
      <point x="98" y="-8"/>
      <point x="288" y="-141" type="curve" smooth="yes"/>
      <point x="478" y="-274"/>
      <point x="573" y="-198"/>
      <point x="573" y="17" type="curve" smooth="yes"/>
      <point x="573" y="232"/>
      <point x="483" y="438"/>
      <point x="288" y="575" type="curve" smooth="yes"/>
      <point x="93" y="711"/>
      <point x="22" y="654"/>
      <point x="22" y="533" type="curve" smooth="yes"/>
      <point x="22" y="373"/>
      <point x="148" y="223"/>
      <point x="288" y="125" type="curve" smooth="yes"/>
      <point x="367" y="69"/>
      <point x="445" y="35"/>
      <point x="473" y="64" type="curve"/>
      <point x="460" y="-126"/>
      <point x="388" y="-121"/>
      <point x="288" y="-51" type="curve" smooth="yes"/>
      <point x="188" y="19"/>
      <point x="130" y="105"/>
    </contour>
    <contour>
      <point x="122" y="463" type="curve" smooth="yes"/>
      <point x="122" y="558"/>
      <point x="188" y="555"/>
      <point x="288" y="485" type="curve" smooth="yes"/>
      <point x="388" y="415"/>
      <point x="447" y="330"/>
      <point x="447" y="235" type="curve"/>
      <point x="447" y="140"/>
      <point x="388" y="145"/>
      <point x="288" y="215" type="curve" smooth="yes"/>
      <point x="188" y="285"/>
      <point x="122" y="368"/>
    </contour>
  </outline>
</glyph>
<glyph name="A" format="2">
  <advance width="774"/>
  <unicode hex="0041"/>
  <outline>
    <contour>
      <point x="52" y="0" type="line"/>
      <point x="157" y="0" type="line"/>
      <point x="386" y="591" type="line"/>
      <point x="617" y="0" type="line"/>
      <point x="722" y="0" type="line"/>
      <point x="458" y="701" type="line"/>
      <point x="318" y="701" type="line"/>
    </contour>
    <contour>
      <point x="194" y="300" type="line"/>
      <point x="194" y="210" type="line"/>
      <point x="574" y="210" type="line"/>
      <point x="574" y="300" type="line"/>
    </contour>
  </outline>
</glyph>
<glyph name="B" format="2">
  <advance width="613"/>
  <unicode hex="0042"/>
  <outline>
    <contour>
      <point x="52" y="0" type="line"/>
      <point x="309" y="0" type="line" smooth="yes"/>
      <point x="485" y="0"/>
      <point x="570" y="67"/>
      <point x="570" y="212" type="curve" smooth="yes"/>
      <point x="570" y="276"/>
      <point x="543" y="334"/>
      <point x="468" y="373" type="curve"/>
      <point x="516" y="409"/>
      <point x="543" y="456"/>
      <point x="543" y="524" type="curve" smooth="yes"/>
      <point x="543" y="640"/>
      <point x="451" y="700"/>
      <point x="309" y="700" type="curve" smooth="yes"/>
      <point x="52" y="700" type="line"/>
    </contour>
    <contour>
      <point x="157" y="89" type="line"/>
      <point x="157" y="327" type="line"/>
      <point x="309" y="327" type="line" smooth="yes"/>
      <point x="405" y="327"/>
      <point x="465" y="277"/>
      <point x="465" y="212" type="curve" smooth="yes"/>
      <point x="465" y="136"/>
      <point x="420" y="91"/>
      <point x="309" y="90" type="curve" smooth="yes"/>
    </contour>
    <contour>
      <point x="157" y="417" type="line"/>
      <point x="157" y="610" type="line"/>
      <point x="309" y="610" type="line" smooth="yes"/>
      <point x="381" y="610"/>
      <point x="438" y="580"/>
      <point x="438" y="524" type="curve" smooth="yes"/>
      <point x="438" y="452"/>
      <point x="398" y="417"/>
      <point x="309" y="417" type="curve" smooth="yes"/>
    </contour>
  </outline>
</glyph>
<glyph name="C" format="2">
  <advance width="737"/>
  <unicode hex="0043"/>
  <outline>
    <contour>
      <point x="694" y="243" type="curve"/>
      <point x="589" y="260" type="line"/>
      <point x="573" y="187"/>
      <point x="505" y="82"/>
      <point x="365" y="82" type="curve" smooth="yes"/>
      <point x="225" y="82"/>
      <point x="148" y="185"/>
      <point x="148" y="350" type="curve" smooth="yes"/>
      <point x="148" y="515"/>
      <point x="225" y="618"/>
      <point x="365" y="618" type="curve" smooth="yes"/>
      <point x="505" y="618"/>
      <point x="576" y="517"/>
      <point x="589" y="435" type="curve"/>
      <point x="694" y="452" type="line"/>
      <point x="654" y="610"/>
      <point x="560" y="708"/>
      <point x="365" y="708" type="curve" smooth="yes"/>
      <point x="170" y="708"/>
      <point x="43" y="565"/>
      <point x="43" y="350" type="curve" smooth="yes"/>
      <point x="43" y="135"/>
      <point x="170" y="-8"/>
      <point x="365" y="-8" type="curve" smooth="yes"/>
      <point x="560" y="-8"/>
      <point x="654" y="97"/>
    </contour>
  </outline>
</glyph>
<glyph name="G" format="2">
  <advance width="737"/>
  <unicode hex="0047"/>
  <outline>
    <contour>
      <point x="694" y="0" type="line"/>
      <point x="694" y="370" type="line"/>
      <point x="352" y="369" type="line"/>
      <point x="352" y="279" type="line"/>
      <point x="573" y="279" type="line"/>
      <point x="572" y="184"/>
      <point x="505" y="82"/>
      <point x="365" y="82" type="curve" smooth="yes"/>
      <point x="225" y="82"/>
      <point x="148" y="185"/>
      <point x="148" y="350" type="curve" smooth="yes"/>
      <point x="148" y="515"/>
      <point x="225" y="618"/>
      <point x="365" y="618" type="curve" smooth="yes"/>
      <point x="484" y="618"/>
      <point x="575" y="543"/>
      <point x="593" y="461" type="curve"/>
      <point x="694" y="478" type="line"/>
      <point x="649" y="636"/>
      <point x="506" y="708"/>
      <point x="365" y="708" type="curve" smooth="yes"/>
      <point x="170" y="708"/>
      <point x="43" y="565"/>
      <point x="43" y="350" type="curve" smooth="yes"/>
      <point x="43" y="135"/>
      <point x="170" y="-8"/>
      <point x="365" y="-8" type="curve" smooth="yes"/>
      <point x="560" y="-8"/>
      <point x="613" y="136"/>
      <point x="603" y="279" type="curve"/>
      <point x="603" y="0" type="line"/>
    </contour>
  </outline>
</glyph>
<glyph name="J" format="2">
  <advance width="600"/>
  <unicode hex="004A"/>
  <outline>
    <contour>
      <point x="456" y="700" type="line"/>
      <point x="456" y="260" type="line"/>
      <point x="456" y="132"/>
      <point x="411" y="92"/>
      <point x="346" y="92" type="curve"/>
      <point x="280" y="92"/>
      <point x="216" y="133"/>
      <point x="216" y="225" type="curve"/>
      <point x="111" y="225" type="line"/>
      <point x="111" y="88"/>
      <point x="194" y="-8"/>
      <point x="354" y="-8" type="curve"/>
      <point x="558" y="-8"/>
      <point x="561" y="151"/>
      <point x="561" y="240" type="curve"/>
      <point x="561" y="700" type="line"/>
    </contour>
  </outline>
</glyph>
<glyph name="O" format="2">
  <advance width="737"/>
  <unicode hex="004F"/>
  <outline>
    <contour>
      <point x="365" y="-8" type="curve" smooth="yes"/>
      <point x="560" y="-8"/>
      <point x="694" y="135"/>
      <point x="694" y="350" type="curve" smooth="yes"/>
      <point x="694" y="565"/>
      <point x="560" y="708"/>
      <point x="365" y="708" type="curve" smooth="yes"/>
      <point x="170" y="708"/>
      <point x="43" y="565"/>
      <point x="43" y="350" type="curve" smooth="yes"/>
      <point x="43" y="135"/>
      <point x="170" y="-8"/>
    </contour>
    <contour>
      <point x="365" y="82" type="curve" smooth="yes"/>
      <point x="225" y="82"/>
      <point x="148" y="185"/>
      <point x="148" y="350" type="curve" smooth="yes"/>
      <point x="148" y="515"/>
      <point x="225" y="618"/>
      <point x="365" y="618" type="curve" smooth="yes"/>
      <point x="505" y="618"/>
      <point x="589" y="515"/>
      <point x="589" y="350" type="curve" smooth="yes"/>
      <point x="589" y="185"/>
      <point x="505" y="82"/>
    </contour>
  </outline>
</glyph>
<glyph name="P" format="2">
  <advance width="586"/>
  <unicode hex="0050"/>
  <outline>
    <contour>
      <point x="52" y="700" type="line"/>
      <point x="52" y="0" type="line"/>
      <point x="157" y="0" type="line"/>
      <point x="157" y="700" type="line"/>
    </contour>
    <contour>
      <point x="157" y="378" type="line"/>
      <point x="157" y="288" type="line"/>
      <point x="319" y="288" type="line"/>
      <point x="319" y="378" type="line"/>
    </contour>
    <contour>
      <point x="157" y="700" type="line"/>
      <point x="157" y="610" type="line"/>
      <point x="319" y="610" type="line"/>
      <point x="319" y="700" type="line"/>
    </contour>
    <contour>
      <point x="319" y="700" type="curve"/>
      <point x="319" y="610" type="line"/>
      <point x="385" y="610"/>
      <point x="443" y="566"/>
      <point x="443" y="495" type="curve"/>
      <point x="443" y="425"/>
      <point x="386" y="380"/>
      <point x="319" y="378" type="curve"/>
      <point x="319" y="288" type="line"/>
      <point x="438" y="290"/>
      <point x="543" y="344"/>
      <point x="543" y="495" type="curve" smooth="yes"/>
      <point x="543" y="646"/>
      <point x="438" y="700"/>
    </contour>
  </outline>
</glyph>
<glyph name="R" format="2">
  <advance width="587"/>
  <unicode hex="0052"/>
  <outline>
    <contour>
      <point x="52" y="700" type="line"/>
      <point x="52" y="0" type="line"/>
      <point x="157" y="0" type="line"/>
      <point x="157" y="700" type="line"/>
    </contour>
    <contour>
      <point x="157" y="378" type="line"/>
      <point x="157" y="288" type="line"/>
      <point x="319" y="288" type="line"/>
      <point x="319" y="378" type="line"/>
    </contour>
    <contour>
      <point x="157" y="700" type="line"/>
      <point x="157" y="610" type="line"/>
      <point x="319" y="610" type="line"/>
      <point x="319" y="700" type="line"/>
    </contour>
    <contour>
      <point x="319" y="700" type="curve"/>
      <point x="319" y="610" type="line"/>
      <point x="385" y="610"/>
      <point x="443" y="569"/>
      <point x="443" y="486" type="curve"/>
      <point x="443" y="409"/>
      <point x="386" y="380"/>
      <point x="319" y="378" type="curve"/>
      <point x="319" y="288" type="line"/>
      <point x="438" y="290"/>
      <point x="543" y="335"/>
      <point x="543" y="486" type="curve" smooth="yes"/>
      <point x="543" y="637"/>
      <point x="438" y="700"/>
    </contour>
    <contour>
      <point x="246" y="306" type="line"/>
      <point x="419" y="1" type="line"/>
      <point x="544" y="0" type="line"/>
      <point x="361" y="305" type="line"/>
    </contour>
  </outline>
</glyph>
<glyph name="S" format="2">
  <advance width="604"/>
  <unicode hex="0053"/>
  <outline>
    <contour>
      <point x="38" y="499" type="curve"/>
      <point x="38" y="242"/>
      <point x="466" y="361"/>
      <point x="466" y="195" type="curve"/>
      <point x="466" y="134"/>
      <point x="399" y="93"/>
      <point x="293" y="93" type="curve" smooth="yes"/>
      <point x="203" y="93"/>
      <point x="138" y="137"/>
      <point x="138" y="206" type="curve"/>
      <point x="33" y="199" type="line"/>
      <point x="33" y="74"/>
      <point x="126" y="3"/>
      <point x="293" y="3" type="curve" smooth="yes"/>
      <point x="466" y="3"/>
      <point x="571" y="88"/>
      <point x="571" y="209" type="curve" smooth="yes"/>
      <point x="571" y="451"/>
      <point x="143" y="361"/>
      <point x="143" y="513" type="curve"/>
      <point x="144" y="578"/>
      <point x="220" y="608"/>
      <point x="293" y="608" type="curve" smooth="yes"/>
      <point x="382" y="608"/>
      <point x="464" y="562"/>
      <point x="464" y="493" type="curve"/>
      <point x="569" y="500" type="line"/>
      <point x="569" y="624"/>
      <point x="466" y="698"/>
      <point x="293" y="698" type="curve" smooth="yes"/>
      <point x="119" y="698"/>
      <point x="38" y="618"/>
    </contour>
  </outline>
</glyph>
<glyph name="V" format="2">
  <advance width="668"/>
  <unicode hex="0056"/>
  <outline>
    <contour>
      <point x="-1" y="701" type="line"/>
      <point x="265" y="0" type="line"/>
      <point x="405" y="0" type="line"/>
      <point x="669" y="700" type="line"/>
      <point x="564" y="700" type="line"/>
      <point x="333" y="110" type="line"/>
      <point x="104" y="701" type="line"/>
    </contour>
  </outline>
</glyph>
<glyph name="X" format="2">
  <advance width="606"/>
  <unicode hex="0058"/>
  <outline>
    <contour>
      <point x="-1" y="700" type="line"/>
      <point x="246" y="351" type="line"/>
      <point x="2" y="0" type="line"/>
      <point x="125" y="0" type="line"/>
      <point x="309" y="256" type="line"/>
      <point x="490" y="0" type="line"/>
      <point x="607" y="0" type="line"/>
      <point x="370" y="351" type="line"/>
      <point x="604" y="700" type="line"/>
      <point x="483" y="700" type="line"/>
      <point x="309" y="432" type="line"/>
      <point x="121" y="700" type="line"/>
    </contour>
  </outline>
</glyph>
<glyph name="Y" format="2">
  <advance width="628"/>
  <unicode hex="0059"/>
  <outline>
    <contour>
      <point x="-1" y="701" type="line"/>
      <point x="253" y="260" type="line"/>
      <point x="254" y="260" type="line"/>
      <point x="254" y="0" type="line"/>
      <point x="359" y="0" type="line"/>
      <point x="359" y="260" type="line"/>
      <point x="629" y="700" type="line"/>
      <point x="524" y="700" type="line"/>
      <point x="305" y="351" type="line"/>
      <point x="104" y="701" type="line"/>
    </contour>
  </outline>
</glyph>
<glyph name="a" format="2">
  <advance width="492"/>
  <unicode hex="0061"/>
  <outline>
    <contour>
      <point x="350" y="333" type="curve"/>
      <point x="350" y="0" type="line"/>
      <point x="450" y="0" type="line"/>
      <point x="450" y="338" type="line" smooth="yes"/>
      <point x="450" y="434"/>
      <point x="371" y="508"/>
      <point x="242" y="508" type="curve" smooth="yes"/>
      <point x="124" y="508"/>
      <point x="33" y="448"/>
      <point x="33" y="324" type="curve"/>
      <point x="133" y="324" type="line"/>
      <point x="133" y="383"/>
      <point x="182" y="425"/>
      <point x="242" y="425" type="curve" smooth="yes"/>
      <point x="302" y="425"/>
      <point x="350" y="383"/>
    </contour>
    <contour>
      <point x="367" y="308" type="line"/>
      <point x="126" y="308"/>
      <point x="34" y="236"/>
      <point x="34" y="128" type="curve" smooth="yes"/>
      <point x="34" y="27"/>
      <point x="124" y="-8"/>
      <point x="191" y="-8" type="curve" smooth="yes"/>
      <point x="294" y="-8"/>
      <point x="364" y="43"/>
      <point x="364" y="205" type="curve"/>
      <point x="350" y="192" type="line"/>
      <point x="350" y="149"/>
      <point x="313" y="88"/>
      <point x="258" y="70" type="curve" smooth="yes"/>
      <point x="179" y="44"/>
      <point x="115" y="81"/>
      <point x="115" y="139" type="curve" smooth="yes"/>
      <point x="115" y="216"/>
      <point x="248" y="229"/>
      <point x="367" y="229" type="curve"/>
    </contour>
  </outline>
</glyph>
<glyph name="c" format="2">
  <advance width="539"/>
  <unicode hex="0063"/>
  <outline>
    <contour>
      <point x="505" y="181" type="curve"/>
      <point x="405" y="193" type="line"/>
      <point x="396" y="146"/>
      <point x="361" y="72"/>
      <point x="271" y="72" type="curve" smooth="yes"/>
      <point x="181" y="72"/>
      <point x="133" y="145"/>
      <point x="133" y="249" type="curve" smooth="yes"/>
      <point x="133" y="352"/>
      <point x="181" y="428"/>
      <point x="271" y="428" type="curve" smooth="yes"/>
      <point x="361" y="428"/>
      <point x="402" y="354"/>
      <point x="406" y="291" type="curve"/>
      <point x="506" y="304" type="line"/>
      <point x="490" y="420"/>
      <point x="411" y="508"/>
      <point x="271" y="508" type="curve" smooth="yes"/>
      <point x="131" y="508"/>
      <point x="33" y="410"/>
      <point x="33" y="249" type="curve" smooth="yes"/>
      <point x="33" y="103"/>
      <point x="128" y="-8"/>
      <point x="271" y="-8" type="curve" smooth="yes"/>
      <point x="395" y="-8"/>
      <point x="485" y="73"/>
    </contour>
  </outline>
</glyph>
<glyph name="d" format="2">
  <advance width="537"/>
  <unicode hex="0064"/>
  <outline>
    <contour>
      <point x="495" y="800" type="line"/>
      <point x="395" y="800" type="line"/>
      <point x="395" y="0" type="line"/>
      <point x="495" y="0" type="line"/>
    </contour>
    <contour>
      <point x="241" y="-8" type="curve" smooth="yes"/>
      <point x="390" y="-8"/>
      <point x="413" y="104"/>
      <point x="413" y="250" type="curve" smooth="yes"/>
      <point x="413" y="411"/>
      <point x="371" y="508"/>
      <point x="241" y="508" type="curve" smooth="yes"/>
      <point x="101" y="508"/>
      <point x="33" y="400"/>
      <point x="33" y="250" type="curve" smooth="yes"/>
      <point x="33" y="92"/>
      <point x="101" y="-8"/>
    </contour>
    <contour>
      <point x="261" y="72" type="curve" smooth="yes"/>
      <point x="171" y="72"/>
      <point x="133" y="140"/>
      <point x="133" y="250" type="curve" smooth="yes"/>
      <point x="133" y="360"/>
      <point x="171" y="428"/>
      <point x="261" y="428" type="curve" smooth="yes"/>
      <point x="356" y="428"/>
      <point x="395" y="353"/>
      <point x="395" y="250" type="curve" smooth="yes"/>
      <point x="395" y="146"/>
      <point x="356" y="72"/>
    </contour>
  </outline>
</glyph>
<glyph name="e" format="2">
  <advance width="535"/>
  <unicode hex="0065"/>
  <outline>
    <contour>
      <point x="498" y="170" type="curve"/>
      <point x="408" y="182" type="line"/>
      <point x="393" y="104"/>
      <point x="332" y="69"/>
      <point x="269" y="72" type="curve" smooth="yes"/>
      <point x="209" y="75"/>
      <point x="133" y="113"/>
      <point x="133" y="256" type="curve" smooth="yes"/>
      <point x="133" y="386"/>
      <point x="189" y="428"/>
      <point x="272" y="428" type="curve" smooth="yes"/>
      <point x="347" y="428"/>
      <point x="386" y="389"/>
      <point x="399" y="316" type="curve"/>
      <point x="112" y="316" type="line"/>
      <point x="112" y="236" type="line"/>
      <point x="498" y="236" type="line"/>
      <point x="502" y="259"/>
      <point x="502" y="280"/>
      <point x="501" y="295" type="curve" smooth="yes"/>
      <point x="493" y="420"/>
      <point x="398" y="508"/>
      <point x="272" y="508" type="curve" smooth="yes"/>
      <point x="130" y="508"/>
      <point x="33" y="417"/>
      <point x="33" y="256" type="curve" smooth="yes"/>
      <point x="33" y="110"/>
      <point x="126" y="-8"/>
      <point x="269" y="-8" type="curve" smooth="yes"/>
      <point x="385" y="-8"/>
      <point x="478" y="66"/>
    </contour>
  </outline>
</glyph>
<glyph name="f" format="2">
  <advance width="355"/>
  <unicode hex="0066"/>
  <outline>
    <contour>
      <point x="356" y="755" type="line"/>
      <point x="334" y="782"/>
      <point x="296" y="793"/>
      <point x="257" y="793" type="curve" smooth="yes"/>
      <point x="140" y="793"/>
      <point x="83" y="742"/>
      <point x="83" y="626" type="curve" smooth="yes"/>
      <point x="83" y="-1" type="line"/>
      <point x="183" y="-1" type="line"/>
      <point x="183" y="621" type="line"/>
      <point x="183" y="695"/>
      <point x="222" y="713"/>
      <point x="257" y="713" type="curve" smooth="yes"/>
      <point x="287" y="713"/>
      <point x="325" y="700"/>
      <point x="356" y="675" type="curve"/>
    </contour>
    <contour>
      <point x="-1" y="416" type="line"/>
      <point x="349" y="416" type="line"/>
      <point x="349" y="496" type="line"/>
      <point x="-1" y="496" type="line"/>
    </contour>
  </outline>
</glyph>
<glyph name="g" format="2">
  <advance width="537"/>
  <unicode hex="0067"/>
  <outline>
    <contour>
      <point x="495" y="500" type="line"/>
      <point x="395" y="500" type="line"/>
      <point x="395" y="0" type="line"/>
      <point x="495" y="0" type="line"/>
    </contour>
    <contour>
      <point x="241" y="-8" type="curve" smooth="yes"/>
      <point x="381" y="-8"/>
      <point x="413" y="88"/>
      <point x="413" y="250" type="curve" smooth="yes"/>
      <point x="413" y="411"/>
      <point x="371" y="508"/>
      <point x="241" y="508" type="curve" smooth="yes"/>
      <point x="101" y="508"/>
      <point x="33" y="398"/>
      <point x="33" y="248" type="curve" smooth="yes"/>
      <point x="33" y="90"/>
      <point x="101" y="-8"/>
    </contour>
    <contour>
      <point x="261" y="72" type="curve" smooth="yes"/>
      <point x="171" y="72"/>
      <point x="133" y="138"/>
      <point x="133" y="248" type="curve" smooth="yes"/>
      <point x="133" y="358"/>
      <point x="171" y="428"/>
      <point x="261" y="428" type="curve" smooth="yes"/>
      <point x="356" y="428"/>
      <point x="395" y="353"/>
      <point x="395" y="250" type="curve" smooth="yes"/>
      <point x="395" y="146"/>
      <point x="356" y="72"/>
    </contour>
    <contour>
      <point x="495" y="0" type="curve"/>
      <point x="395" y="0" type="line"/>
      <point x="395" y="-82"/>
      <point x="344" y="-128"/>
      <point x="259" y="-128" type="curve" smooth="yes"/>
      <point x="189" y="-128"/>
      <point x="152" y="-97"/>
      <point x="142" y="-54" type="curve"/>
      <point x="50" y="-66" type="line"/>
      <point x="70" y="-170"/>
      <point x="150" y="-208"/>
      <point x="259" y="-208" type="curve" smooth="yes"/>
      <point x="409" y="-208"/>
      <point x="495" y="-136"/>
    </contour>
  </outline>
</glyph>
<glyph name="h" format="2">
  <advance width="508"/>
  <unicode hex="0068"/>
  <outline>
    <contour>
      <point x="42" y="800" type="line"/>
      <point x="42" y="0" type="line"/>
      <point x="142" y="0" type="line"/>
      <point x="142" y="399" type="line"/>
      <point x="142" y="800" type="line"/>
    </contour>
    <contour>
      <point x="366" y="313" type="curve"/>
      <point x="366" y="0" type="line"/>
      <point x="466" y="0" type="line"/>
      <point x="466" y="313" type="line" smooth="yes"/>
      <point x="466" y="409"/>
      <point x="436" y="508"/>
      <point x="296" y="508" type="curve" smooth="yes"/>
      <point x="158" y="508"/>
      <point x="124" y="411"/>
      <point x="124" y="250" type="curve"/>
      <point x="142" y="250" type="line"/>
      <point x="142" y="374"/>
      <point x="192" y="428"/>
      <point x="262" y="428" type="curve" smooth="yes"/>
      <point x="335" y="428"/>
      <point x="366" y="369"/>
    </contour>
  </outline>
</glyph>
<glyph name="i" format="2">
  <advance width="204"/>
  <unicode hex="0069"/>
  <outline>
    <contour>
      <point x="51" y="500" type="line"/>
      <point x="51" y="0" type="line"/>
      <point x="151" y="0" type="line"/>
      <point x="151" y="500" type="line"/>
    </contour>
    <contour>
      <point x="103" y="552" type="curve" smooth="yes"/>
      <point x="140" y="552"/>
      <point x="162" y="578"/>
      <point x="162" y="615" type="curve" smooth="yes"/>
      <point x="162" y="652"/>
      <point x="140" y="677"/>
      <point x="103" y="677" type="curve" smooth="yes"/>
      <point x="66" y="677"/>
      <point x="42" y="652"/>
      <point x="42" y="615" type="curve" smooth="yes"/>
      <point x="42" y="578"/>
      <point x="66" y="552"/>
    </contour>
  </outline>
</glyph>
<glyph name="j" format="2">
  <advance width="245"/>
  <unicode hex="006A"/>
  <outline>
    <contour>
      <point x="93" y="500" type="line"/>
      <point x="93" y="0" type="line" smooth="yes"/>
      <point x="93" y="-66"/>
      <point x="97" y="-123"/>
      <point x="36" y="-123" type="curve" smooth="yes"/>
      <point x="22" y="-123"/>
      <point x="-3" y="-120"/>
      <point x="-28" y="-103" type="curve"/>
      <point x="-28" y="-183" type="line"/>
      <point x="-8" y="-200"/>
      <point x="36" y="-208"/>
      <point x="68" y="-208" type="curve" smooth="yes"/>
      <point x="189" y="-208"/>
      <point x="193" y="-95"/>
      <point x="193" y="0" type="curve" smooth="yes"/>
      <point x="193" y="500" type="line"/>
    </contour>
    <contour>
      <point x="145" y="552" type="curve" smooth="yes"/>
      <point x="179" y="552"/>
      <point x="203" y="577"/>
      <point x="203" y="615" type="curve" smooth="yes"/>
      <point x="203" y="652"/>
      <point x="181" y="677"/>
      <point x="145" y="677" type="curve" smooth="yes"/>
      <point x="109" y="677"/>
      <point x="84" y="653"/>
      <point x="84" y="615" type="curve" smooth="yes"/>
      <point x="84" y="577"/>
      <point x="107" y="552"/>
    </contour>
  </outline>
</glyph>
<glyph name="m" format="2">
  <advance width="714"/>
  <unicode hex="006D"/>
  <outline>
    <contour>
      <point x="42" y="500" type="line"/>
      <point x="42" y="0" type="line"/>
      <point x="142" y="0" type="line"/>
      <point x="142" y="399" type="line"/>
      <point x="142" y="500" type="line"/>
    </contour>
    <contour>
      <point x="309" y="336" type="curve"/>
      <point x="309" y="0" type="line"/>
      <point x="409" y="0" type="line"/>
      <point x="409" y="336" type="line" smooth="yes"/>
      <point x="409" y="432"/>
      <point x="365" y="508"/>
      <point x="269" y="508" type="curve" smooth="yes"/>
      <point x="174" y="508"/>
      <point x="124" y="433"/>
      <point x="124" y="280" type="curve"/>
      <point x="142" y="280" type="line"/>
      <point x="142" y="349"/>
      <point x="152" y="428"/>
      <point x="232" y="428" type="curve" smooth="yes"/>
      <point x="289" y="428"/>
      <point x="309" y="388"/>
    </contour>
    <contour>
      <point x="572" y="336" type="curve"/>
      <point x="572" y="0" type="line"/>
      <point x="672" y="0" type="line"/>
      <point x="672" y="336" type="line" smooth="yes"/>
      <point x="672" y="432"/>
      <point x="634" y="508"/>
      <point x="538" y="508" type="curve" smooth="yes"/>
      <point x="443" y="508"/>
      <point x="391" y="433"/>
      <point x="391" y="280" type="curve"/>
      <point x="409" y="280" type="line"/>
      <point x="409" y="349"/>
      <point x="415" y="428"/>
      <point x="495" y="428" type="curve" smooth="yes"/>
      <point x="552" y="428"/>
      <point x="572" y="388"/>
    </contour>
  </outline>
</glyph>
<glyph name="o" format="2">
  <advance width="541"/>
  <unicode hex="006F"/>
  <outline>
    <contour>
      <point x="271" y="-8" type="curve" smooth="yes"/>
      <point x="411" y="-8"/>
      <point x="508" y="94"/>
      <point x="508" y="249" type="curve" smooth="yes"/>
      <point x="508" y="404"/>
      <point x="411" y="508"/>
      <point x="271" y="508" type="curve" smooth="yes"/>
      <point x="131" y="508"/>
      <point x="33" y="404"/>
      <point x="33" y="249" type="curve" smooth="yes"/>
      <point x="33" y="94"/>
      <point x="131" y="-8"/>
    </contour>
    <contour>
      <point x="271" y="72" type="curve" smooth="yes"/>
      <point x="181" y="72"/>
      <point x="133" y="139"/>
      <point x="133" y="249" type="curve" smooth="yes"/>
      <point x="133" y="359"/>
      <point x="181" y="428"/>
      <point x="271" y="428" type="curve" smooth="yes"/>
      <point x="361" y="428"/>
      <point x="408" y="359"/>
      <point x="408" y="249" type="curve" smooth="yes"/>
      <point x="408" y="139"/>
      <point x="361" y="72"/>
    </contour>
  </outline>
</glyph>
<glyph name="p" format="2">
  <advance width="537"/>
  <unicode hex="0070"/>
  <outline>
    <contour>
      <point x="42" y="500" type="line"/>
      <point x="42" y="-200" type="line"/>
      <point x="142" y="-200" type="line"/>
      <point x="142" y="95" type="line"/>
      <point x="163" y="32"/>
      <point x="207" y="-8"/>
      <point x="296" y="-8" type="curve" smooth="yes"/>
      <point x="436" y="-8"/>
      <point x="504" y="92"/>
      <point x="504" y="250" type="curve" smooth="yes"/>
      <point x="504" y="400"/>
      <point x="436" y="508"/>
      <point x="296" y="508" type="curve" smooth="yes"/>
      <point x="211" y="508"/>
      <point x="165" y="469"/>
      <point x="142" y="399" type="curve"/>
      <point x="142" y="500" type="line"/>
    </contour>
    <contour>
      <point x="276" y="72" type="curve" smooth="yes"/>
      <point x="181" y="72"/>
      <point x="142" y="140"/>
      <point x="142" y="250" type="curve" smooth="yes"/>
      <point x="142" y="360"/>
      <point x="181" y="428"/>
      <point x="276" y="428" type="curve" smooth="yes"/>
      <point x="370" y="428"/>
      <point x="404" y="360"/>
      <point x="404" y="250" type="curve" smooth="yes"/>
      <point x="404" y="140"/>
      <point x="370" y="72"/>
    </contour>
  </outline>
</glyph>
<glyph name="q" format="2">
  <advance width="537"/>
  <unicode hex="0071"/>
  <outline>
    <contour>
      <point x="495" y="500" type="line"/>
      <point x="395" y="500" type="line"/>
      <point x="395" y="-200" type="line"/>
      <point x="495" y="-200" type="line"/>
    </contour>
    <contour>
      <point x="241" y="-8" type="curve" smooth="yes"/>
      <point x="375" y="-8"/>
      <point x="413" y="104"/>
      <point x="413" y="250" type="curve" smooth="yes"/>
      <point x="413" y="411"/>
      <point x="393" y="508"/>
      <point x="241" y="508" type="curve" smooth="yes"/>
      <point x="111" y="508"/>
      <point x="33" y="398"/>
      <point x="33" y="248" type="curve" smooth="yes"/>
      <point x="33" y="90"/>
      <point x="91" y="-8"/>
    </contour>
    <contour>
      <point x="262" y="72" type="curve" smooth="yes"/>
      <point x="172" y="72"/>
      <point x="134" y="140"/>
      <point x="133" y="248" type="curve" smooth="yes"/>
      <point x="134" y="361"/>
      <point x="187" y="428"/>
      <point x="274" y="428" type="curve" smooth="yes"/>
      <point x="351" y="428"/>
      <point x="395" y="353"/>
      <point x="395" y="250" type="curve" smooth="yes"/>
      <point x="395" y="146"/>
      <point x="340" y="72"/>
    </contour>
  </outline>
</glyph>
<glyph name="r" format="2">
  <advance width="321"/>
  <unicode hex="0072"/>
  <outline>
    <contour>
      <point x="42" y="500" type="line"/>
      <point x="42" y="0" type="line"/>
      <point x="142" y="0" type="line"/>
      <point x="142" y="399" type="line"/>
      <point x="142" y="500" type="line"/>
    </contour>
    <contour>
      <point x="304" y="428" type="line"/>
      <point x="321" y="508" type="line"/>
      <point x="296" y="508" type="line"/>
      <point x="158" y="508"/>
      <point x="124" y="411"/>
      <point x="124" y="250" type="curve"/>
      <point x="142" y="250" type="line"/>
      <point x="142" y="374"/>
      <point x="192" y="428"/>
      <point x="292" y="428" type="curve"/>
    </contour>
  </outline>
</glyph>
<glyph name="s" format="2">
  <advance width="475"/>
  <unicode hex="0073"/>
  <outline>
    <contour>
      <point x="33" y="357" type="curve"/>
      <point x="33" y="172"/>
      <point x="342" y="243"/>
      <point x="342" y="138" type="curve"/>
      <point x="342" y="102"/>
      <point x="306" y="72"/>
      <point x="229" y="72" type="curve" smooth="yes"/>
      <point x="164" y="72"/>
      <point x="125" y="96"/>
      <point x="125" y="146" type="curve"/>
      <point x="34" y="141" type="line"/>
      <point x="34" y="51"/>
      <point x="109" y="-8"/>
      <point x="229" y="-8" type="curve" smooth="yes"/>
      <point x="354" y="-8"/>
      <point x="442" y="61"/>
      <point x="442" y="148" type="curve" smooth="yes"/>
      <point x="442" y="323"/>
      <point x="133" y="272"/>
      <point x="133" y="367" type="curve"/>
      <point x="133" y="403"/>
      <point x="177" y="428"/>
      <point x="229" y="428" type="curve" smooth="yes"/>
      <point x="299" y="428"/>
      <point x="347" y="381"/>
      <point x="347" y="331" type="curve"/>
      <point x="438" y="336" type="line"/>
      <point x="438" y="426"/>
      <point x="354" y="508"/>
      <point x="229" y="508" type="curve" smooth="yes"/>
      <point x="104" y="508"/>
      <point x="33" y="443"/>
    </contour>
  </outline>
</glyph>
<glyph name="t" format="2">
  <advance width="423"/>
  <unicode hex="0074"/>
  <outline>
    <contour>
      <point x="390" y="32" type="curve"/>
      <point x="390" y="112" type="line"/>
      <point x="369" y="95"/>
      <point x="340" y="71"/>
      <point x="294" y="71" type="curve" smooth="yes"/>
      <point x="240" y="71"/>
      <point x="211" y="104"/>
      <point x="211" y="163" type="curve"/>
      <point x="211" y="605" type="line"/>
      <point x="111" y="605" type="line"/>
      <point x="111" y="158" type="line" smooth="yes"/>
      <point x="111" y="34"/>
      <point x="213" y="-9"/>
      <point x="285" y="-9" type="curve" smooth="yes"/>
      <point x="335" y="-9"/>
      <point x="365" y="12"/>
    </contour>
    <contour>
      <point x="33" y="496" type="line"/>
      <point x="33" y="416" type="line"/>
      <point x="375" y="416" type="line"/>
      <point x="375" y="496" type="line"/>
    </contour>
  </outline>
</glyph>
<glyph name="u" format="2">
  <advance width="498"/>
  <unicode hex="0075"/>
  <outline>
    <contour>
      <point x="456" y="0" type="line"/>
      <point x="456" y="500" type="line"/>
      <point x="356" y="500" type="line"/>
      <point x="356" y="101" type="line"/>
      <point x="356" y="0" type="line"/>
    </contour>
    <contour>
      <point x="142" y="187" type="curve"/>
      <point x="142" y="500" type="line"/>
      <point x="42" y="500" type="line"/>
      <point x="42" y="187" type="line" smooth="yes"/>
      <point x="42" y="91"/>
      <point x="72" y="-8"/>
      <point x="212" y="-8" type="curve" smooth="yes"/>
      <point x="350" y="-8"/>
      <point x="374" y="89"/>
      <point x="374" y="250" type="curve"/>
      <point x="356" y="250" type="line"/>
      <point x="356" y="126"/>
      <point x="315" y="72"/>
      <point x="245" y="72" type="curve" smooth="yes"/>
      <point x="172" y="72"/>
      <point x="142" y="131"/>
    </contour>
  </outline>
</glyph>
<glyph name="w" format="2">
  <advance width="648"/>
  <unicode hex="0077"/>
  <outline>
    <contour>
      <point x="-1" y="500" type="line"/>
      <point x="121" y="0" type="line"/>
      <point x="221" y="0" type="line"/>
      <point x="319" y="362" type="line"/>
      <point x="403" y="0" type="line"/>
      <point x="503" y="0" type="line"/>
      <point x="649" y="499" type="line"/>
      <point x="549" y="499" type="line"/>
      <point x="452" y="132" type="line"/>
      <point x="369" y="499" type="line"/>
      <point x="279" y="499" type="line"/>
      <point x="178" y="132" type="line"/>
      <point x="99" y="500" type="line"/>
    </contour>
  </outline>
</glyph>
<glyph name="x" format="2">
  <advance width="470"/>
  <unicode hex="0078"/>
  <outline>
    <contour>
      <point x="-1" y="499" type="line"/>
      <point x="175" y="250" type="line"/>
      <point x="1" y="0" type="line"/>
      <point x="108" y="0" type="line"/>
      <point x="239" y="180" type="line"/>
      <point x="368" y="0" type="line"/>
      <point x="471" y="0" type="line"/>
      <point x="302" y="250" type="line"/>
      <point x="469" y="499" type="line"/>
      <point x="363" y="499" type="line"/>
      <point x="239" y="310" type="line"/>
      <point x="105" y="499" type="line"/>
    </contour>
  </outline>
</glyph>
<glyph name="y" format="2">
  <advance width="476"/>
  <unicode hex="0079"/>
  <outline>
    <contour>
      <point x="-1" y="500" type="line"/>
      <point x="188" y="0" type="line"/>
      <point x="288" y="0" type="line"/>
      <point x="477" y="499" type="line"/>
      <point x="377" y="499" type="line"/>
      <point x="237" y="132" type="line"/>
      <point x="97" y="500" type="line"/>
    </contour>
    <contour>
      <point x="288" y="0" type="curve"/>
      <point x="188" y="0" type="line"/>
      <point x="186" y="-57"/>
      <point x="153" y="-125"/>
      <point x="89" y="-127" type="curve" smooth="yes"/>
      <point x="62" y="-128"/>
      <point x="25" y="-118"/>
      <point x="4" y="-101" type="curve"/>
      <point x="4" y="-181" type="line"/>
      <point x="30" y="-198"/>
      <point x="66" y="-208"/>
      <point x="99" y="-208" type="curve" smooth="yes"/>
      <point x="194" y="-208"/>
      <point x="248" y="-115"/>
    </contour>
  </outline>
</glyph>
<glyph name="A.init" format="2">
  <advance width="774"/>
  <outline>
    <contour>
      <point x="52" y="286" type="line"/>
      <point x="157" y="213" type="line"/>
      <point x="386" y="643" type="line"/>
      <point x="617" y="-110" type="line"/>
      <point x="722" y="-183" type="line"/>
      <point x="458" y="703" type="line"/>
      <point x="318" y="801" type="line"/>
    </contour>
    <contour>
      <point x="194" y="487" type="line"/>
      <point x="194" y="397" type="line"/>
      <point x="574" y="131" type="line"/>
      <point x="574" y="221" type="line"/>
    </contour>
  </outline>
</glyph>
<glyph name="B.init.alt" format="2">
  <advance width="570"/>
  <outline>
    <contour>
      <point x="52" y="-252" type="line"/>
      <point x="309" y="-72" type="line" smooth="yes"/>
      <point x="485" y="52"/>
      <point x="570" y="179"/>
      <point x="570" y="324" type="curve" smooth="yes"/>
      <point x="570" y="388"/>
      <point x="543" y="427"/>
      <point x="468" y="413" type="curve"/>
      <point x="516" y="482"/>
      <point x="543" y="549"/>
      <point x="543" y="617" type="curve" smooth="yes"/>
      <point x="543" y="733"/>
      <point x="451" y="728"/>
      <point x="309" y="628" type="curve" smooth="yes"/>
      <point x="52" y="448" type="line"/>
    </contour>
    <contour>
      <point x="157" y="-89" type="line"/>
      <point x="157" y="149" type="line"/>
      <point x="309" y="255" type="line" smooth="yes"/>
      <point x="405" y="323"/>
      <point x="465" y="315"/>
      <point x="465" y="250" type="curve" smooth="yes"/>
      <point x="465" y="174"/>
      <point x="420" y="98"/>
      <point x="309" y="18" type="curve" smooth="yes"/>
    </contour>
    <contour>
      <point x="157" y="239" type="line"/>
      <point x="157" y="432" type="line"/>
      <point x="309" y="538" type="line" smooth="yes"/>
      <point x="381" y="589"/>
      <point x="438" y="599"/>
      <point x="438" y="543" type="curve" smooth="yes"/>
      <point x="438" y="471"/>
      <point x="398" y="408"/>
      <point x="309" y="345" type="curve" smooth="yes"/>
    </contour>
  </outline>
</glyph>
<glyph name="B.init" format="2">
  <advance width="570"/>
  <outline>
    <contour>
      <point x="52" y="111" type="line"/>
      <point x="309" y="-69" type="line" smooth="yes"/>
      <point x="485" y="-192"/>
      <point x="570" y="-184"/>
      <point x="570" y="-39" type="curve" smooth="yes"/>
      <point x="570" y="25"/>
      <point x="543" y="102"/>
      <point x="468" y="193" type="curve"/>
      <point x="516" y="195"/>
      <point x="543" y="224"/>
      <point x="543" y="292" type="curve" smooth="yes"/>
      <point x="543" y="408"/>
      <point x="451" y="532"/>
      <point x="309" y="631" type="curve" smooth="yes"/>
      <point x="52" y="811" type="line"/>
    </contour>
    <contour>
      <point x="157" y="127" type="line"/>
      <point x="157" y="365" type="line"/>
      <point x="309" y="258" type="line" smooth="yes"/>
      <point x="405" y="191"/>
      <point x="465" y="99"/>
      <point x="465" y="34" type="curve" smooth="yes"/>
      <point x="465" y="-42"/>
      <point x="420" y="-55"/>
      <point x="309" y="21" type="curve" smooth="yes"/>
    </contour>
    <contour>
      <point x="157" y="455" type="line"/>
      <point x="157" y="648" type="line"/>
      <point x="309" y="541" type="line" smooth="yes"/>
      <point x="381" y="491"/>
      <point x="438" y="421"/>
      <point x="438" y="365" type="curve" smooth="yes"/>
      <point x="438" y="293"/>
      <point x="398" y="286"/>
      <point x="309" y="348" type="curve" smooth="yes"/>
    </contour>
  </outline>
</glyph>
<glyph name="C.init.alt" format="2">
  <advance width="737"/>
  <outline>
    <contour>
      <point x="694" y="471" type="curve"/>
      <point x="589" y="415" type="line"/>
      <point x="573" y="330"/>
      <point x="505" y="177"/>
      <point x="365" y="79" type="curve" smooth="yes"/>
      <point x="225" y="-19"/>
      <point x="148" y="30"/>
      <point x="148" y="195" type="curve" smooth="yes"/>
      <point x="148" y="360"/>
      <point x="225" y="517"/>
      <point x="365" y="615" type="curve" smooth="yes"/>
      <point x="505" y="713"/>
      <point x="576" y="663"/>
      <point x="589" y="590" type="curve"/>
      <point x="694" y="680" type="line"/>
      <point x="654" y="810"/>
      <point x="560" y="842"/>
      <point x="365" y="705" type="curve" smooth="yes"/>
      <point x="170" y="569"/>
      <point x="43" y="337"/>
      <point x="43" y="122" type="curve" smooth="yes"/>
      <point x="43" y="-93"/>
      <point x="170" y="-147"/>
      <point x="365" y="-11" type="curve" smooth="yes"/>
      <point x="560" y="126"/>
      <point x="654" y="297"/>
    </contour>
  </outline>
</glyph>
<glyph name="C.init" format="2">
  <advance width="737"/>
  <outline>
    <contour>
      <point x="694" y="15" type="curve"/>
      <point x="589" y="106" type="line"/>
      <point x="573" y="44"/>
      <point x="505" y="-14"/>
      <point x="365" y="84" type="curve" smooth="yes"/>
      <point x="225" y="182"/>
      <point x="148" y="339"/>
      <point x="148" y="504" type="curve" smooth="yes"/>
      <point x="148" y="669"/>
      <point x="225" y="718"/>
      <point x="365" y="620" type="curve" smooth="yes"/>
      <point x="505" y="522"/>
      <point x="576" y="372"/>
      <point x="589" y="281" type="curve"/>
      <point x="694" y="224" type="line"/>
      <point x="654" y="410"/>
      <point x="560" y="574"/>
      <point x="365" y="710" type="curve" smooth="yes"/>
      <point x="170" y="847"/>
      <point x="43" y="793"/>
      <point x="43" y="578" type="curve" smooth="yes"/>
      <point x="43" y="363"/>
      <point x="170" y="131"/>
      <point x="365" y="-6" type="curve" smooth="yes"/>
      <point x="560" y="-142"/>
      <point x="654" y="-103"/>
    </contour>
  </outline>
</glyph>
<glyph name="D.init.alt" format="2">
  <advance width="600"/>
  <outline>
    <contour>
      <point x="38" y="418" type="line"/>
      <point x="38" y="-282" type="line"/>
      <point x="267" y="-122" type="line" smooth="yes"/>
      <point x="462" y="14"/>
      <point x="604" y="254"/>
      <point x="604" y="464" type="curve" smooth="yes"/>
      <point x="604" y="674"/>
      <point x="463" y="716"/>
      <point x="268" y="579" type="curve" smooth="yes"/>
    </contour>
    <contour>
      <point x="143" y="-118" type="line"/>
      <point x="143" y="402" type="line"/>
      <point x="268" y="489" type="line" smooth="yes"/>
      <point x="401" y="582"/>
      <point x="499" y="550"/>
      <point x="499" y="390" type="curve" smooth="yes"/>
      <point x="499" y="230"/>
      <point x="400" y="62"/>
      <point x="267" y="-32" type="curve" smooth="yes"/>
    </contour>
  </outline>
</glyph>
<glyph name="D.init" format="2">
  <advance width="600"/>
  <outline>
    <contour>
      <point x="38" y="814" type="line"/>
      <point x="38" y="114" type="line"/>
      <point x="267" y="-46" type="line" smooth="yes"/>
      <point x="462" y="-183"/>
      <point x="604" y="-142"/>
      <point x="604" y="68" type="curve" smooth="yes"/>
      <point x="604" y="278"/>
      <point x="463" y="517"/>
      <point x="268" y="653" type="curve" smooth="yes"/>
    </contour>
    <contour>
      <point x="143" y="131" type="line"/>
      <point x="143" y="651" type="line"/>
      <point x="268" y="563" type="line" smooth="yes"/>
      <point x="401" y="470"/>
      <point x="499" y="301"/>
      <point x="499" y="141" type="curve" smooth="yes"/>
      <point x="499" y="-19"/>
      <point x="400" y="-49"/>
      <point x="267" y="44" type="curve" smooth="yes"/>
    </contour>
  </outline>
</glyph>
<glyph name="E.init.alt" format="2">
  <advance width="536"/>
  <outline>
    <contour>
      <point x="52" y="508" type="line"/>
      <point x="52" y="-192" type="line"/>
      <point x="157" y="-118" type="line"/>
      <point x="157" y="582" type="line"/>
    </contour>
    <contour>
      <point x="157" y="291" type="line"/>
      <point x="157" y="201" type="line"/>
      <point x="464" y="415" type="line"/>
      <point x="464" y="505" type="line"/>
    </contour>
    <contour>
      <point x="157" y="582" type="line"/>
      <point x="157" y="492" type="line"/>
      <point x="484" y="720" type="line"/>
      <point x="484" y="810" type="line"/>
    </contour>
    <contour>
      <point x="157" y="-28" type="line"/>
      <point x="157" y="-118" type="line"/>
      <point x="484" y="110" type="line"/>
      <point x="484" y="200" type="line"/>
    </contour>
  </outline>
</glyph>
<glyph name="G.init.alt" format="2">
  <advance width="737"/>
  <outline>
    <contour>
      <point x="694" y="248" type="line"/>
      <point x="694" y="618" type="line"/>
      <point x="352" y="378" type="line"/>
      <point x="352" y="288" type="line"/>
      <point x="573" y="442" type="line"/>
      <point x="572" y="347"/>
      <point x="505" y="197"/>
      <point x="365" y="99" type="curve" smooth="yes"/>
      <point x="225" y="1"/>
      <point x="148" y="50"/>
      <point x="148" y="215" type="curve" smooth="yes"/>
      <point x="148" y="380"/>
      <point x="225" y="537"/>
      <point x="365" y="635" type="curve" smooth="yes"/>
      <point x="484" y="719"/>
      <point x="575" y="707"/>
      <point x="593" y="638" type="curve"/>
      <point x="694" y="726" type="line"/>
      <point x="649" y="853"/>
      <point x="506" y="825"/>
      <point x="365" y="725" type="curve" smooth="yes"/>
      <point x="170" y="589"/>
      <point x="43" y="357"/>
      <point x="43" y="142" type="curve" smooth="yes"/>
      <point x="43" y="-73"/>
      <point x="170" y="-127"/>
      <point x="365" y="9" type="curve" smooth="yes"/>
      <point x="560" y="146"/>
      <point x="613" y="327"/>
      <point x="603" y="463" type="curve"/>
      <point x="603" y="184" type="line"/>
    </contour>
  </outline>
</glyph>
<glyph name="G.init" format="2">
  <advance width="737"/>
  <outline>
    <contour>
      <point x="694" y="-208" type="line"/>
      <point x="694" y="162" type="line"/>
      <point x="352" y="401" type="line"/>
      <point x="352" y="311" type="line"/>
      <point x="573" y="156" type="line"/>
      <point x="572" y="62"/>
      <point x="505" y="6"/>
      <point x="365" y="104" type="curve" smooth="yes"/>
      <point x="225" y="202"/>
      <point x="148" y="359"/>
      <point x="148" y="524" type="curve" smooth="yes"/>
      <point x="148" y="689"/>
      <point x="225" y="738"/>
      <point x="365" y="640" type="curve" smooth="yes"/>
      <point x="484" y="557"/>
      <point x="575" y="418"/>
      <point x="593" y="324" type="curve"/>
      <point x="694" y="270" type="line"/>
      <point x="649" y="460"/>
      <point x="506" y="632"/>
      <point x="365" y="730" type="curve" smooth="yes"/>
      <point x="170" y="867"/>
      <point x="43" y="813"/>
      <point x="43" y="598" type="curve" smooth="yes"/>
      <point x="43" y="383"/>
      <point x="170" y="151"/>
      <point x="365" y="14" type="curve" smooth="yes"/>
      <point x="560" y="-122"/>
      <point x="613" y="-15"/>
      <point x="603" y="135" type="curve"/>
      <point x="603" y="-144" type="line"/>
    </contour>
  </outline>
</glyph>
<glyph name="H.init.alt" format="2">
  <advance width="625"/>
  <outline>
    <contour>
      <point x="468" y="759" type="line"/>
      <point x="468" y="59" type="line"/>
      <point x="573" y="133" type="line"/>
      <point x="573" y="833" type="line"/>
    </contour>
    <contour>
      <point x="52" y="467" type="line"/>
      <point x="52" y="-233" type="line"/>
      <point x="157" y="-159" type="line"/>
      <point x="157" y="541" type="line"/>
    </contour>
    <contour>
      <point x="152" y="255" type="line"/>
      <point x="152" y="165" type="line"/>
      <point x="474" y="391" type="line"/>
      <point x="474" y="481" type="line"/>
    </contour>
  </outline>
</glyph>
<glyph name="H.init" format="2">
  <advance width="625"/>
  <outline>
    <contour>
      <point x="468" y="541" type="line"/>
      <point x="468" y="-159" type="line"/>
      <point x="573" y="-232" type="line"/>
      <point x="573" y="468" type="line"/>
    </contour>
    <contour>
      <point x="52" y="832" type="line"/>
      <point x="52" y="132" type="line"/>
      <point x="157" y="59" type="line"/>
      <point x="157" y="759" type="line"/>
    </contour>
    <contour>
      <point x="152" y="480" type="line"/>
      <point x="152" y="390" type="line"/>
      <point x="474" y="165" type="line"/>
      <point x="474" y="255" type="line"/>
    </contour>
  </outline>
</glyph>
<glyph name="J.init.alt" format="2">
  <advance width="600"/>
  <outline>
    <contour>
      <point x="456" y="734" type="line"/>
      <point x="456" y="224" type="line"/>
      <point x="456" y="96"/>
      <point x="411" y="24"/>
      <point x="346" y="-21" type="curve"/>
      <point x="280" y="-67"/>
      <point x="216" y="-71"/>
      <point x="216" y="21" type="curve"/>
      <point x="111" y="-52" type="line"/>
      <point x="111" y="-189"/>
      <point x="194" y="-228"/>
      <point x="354" y="-116" type="curve"/>
      <point x="558" y="28"/>
      <point x="561" y="188"/>
      <point x="561" y="277" type="curve"/>
      <point x="561" y="807" type="line"/>
    </contour>
  </outline>
</glyph>
<glyph name="J.init" format="2">
  <advance width="600"/>
  <outline>
    <contour>
      <point x="456" y="806" type="line"/>
      <point x="456" y="56" type="line"/>
      <point x="456" y="-72"/>
      <point x="411" y="-81"/>
      <point x="346" y="-35" type="curve"/>
      <point x="280" y="11"/>
      <point x="216" y="97"/>
      <point x="216" y="189" type="curve"/>
      <point x="111" y="263" type="line"/>
      <point x="111" y="126"/>
      <point x="194" y="-29"/>
      <point x="354" y="-141" type="curve"/>
      <point x="558" y="-283"/>
      <point x="561" y="-127"/>
      <point x="561" y="-38" type="curve"/>
      <point x="561" y="732" type="line"/>
    </contour>
  </outline>
</glyph>
<glyph name="K.init.alt" format="2">
  <advance width="559"/>
  <outline>
    <contour>
      <point x="146" y="172" type="line"/>
      <point x="416" y="13" type="line"/>
      <point x="539" y="99" type="line"/>
      <point x="266" y="256" type="line"/>
      <point x="559" y="820" type="line"/>
      <point x="434" y="733" type="line"/>
    </contour>
    <contour>
      <point x="65" y="467" type="line"/>
      <point x="65" y="-233" type="line"/>
      <point x="170" y="-160" type="line"/>
      <point x="170" y="540" type="line"/>
    </contour>
  </outline>
</glyph>
<glyph name="K.init" format="2">
  <advance width="559"/>
  <outline>
    <contour>
      <point x="146" y="404" type="line"/>
      <point x="416" y="-133" type="line"/>
      <point x="539" y="-219" type="line"/>
      <point x="266" y="320" type="line"/>
      <point x="559" y="474" type="line"/>
      <point x="434" y="562" type="line"/>
    </contour>
    <contour>
      <point x="65" y="813" type="line"/>
      <point x="65" y="113" type="line"/>
      <point x="170" y="39" type="line"/>
      <point x="170" y="739" type="line"/>
    </contour>
  </outline>
</glyph>
<glyph name="M.init.alt" format="2">
  <advance width="795"/>
  <outline>
    <contour>
      <point x="345" y="-7" type="line"/>
      <point x="450" y="67" type="line"/>
      <point x="638" y="727" type="line"/>
      <point x="638" y="199" type="line"/>
      <point x="743" y="272" type="line"/>
      <point x="743" y="972" type="line"/>
      <point x="586" y="860" type="line"/>
      <point x="398" y="173" type="line"/>
      <point x="204" y="594" type="line"/>
      <point x="52" y="488" type="line"/>
      <point x="52" y="-212" type="line"/>
      <point x="157" y="-139" type="line"/>
      <point x="157" y="389" type="line"/>
    </contour>
  </outline>
</glyph>
<glyph name="M.init" format="2">
  <advance width="795"/>
  <outline>
    <contour>
      <point x="345" y="67" type="line"/>
      <point x="450" y="-7" type="line"/>
      <point x="638" y="390" type="line"/>
      <point x="638" y="-138" type="line"/>
      <point x="743" y="-212" type="line"/>
      <point x="743" y="488" type="line"/>
      <point x="586" y="596" type="line"/>
      <point x="398" y="172" type="line"/>
      <point x="204" y="865" type="line"/>
      <point x="52" y="972" type="line"/>
      <point x="52" y="272" type="line"/>
      <point x="157" y="198" type="line"/>
      <point x="157" y="726" type="line"/>
    </contour>
  </outline>
</glyph>
<glyph name="N.init.alt" format="2">
  <advance width="655"/>
  <outline>
    <contour>
      <point x="498" y="808" type="line"/>
      <point x="498" y="217" type="line"/>
      <point x="210" y="605" type="line"/>
      <point x="52" y="495" type="line"/>
      <point x="52" y="-205" type="line"/>
      <point x="157" y="-132" type="line"/>
      <point x="157" y="439" type="line"/>
      <point x="445" y="71" type="line"/>
      <point x="603" y="181" type="line"/>
      <point x="603" y="881" type="line"/>
    </contour>
  </outline>
</glyph>
<glyph name="N.init" format="2">
  <advance width="655"/>
  <outline>
    <contour>
      <point x="498" y="569" type="line"/>
      <point x="498" y="-22" type="line"/>
      <point x="210" y="770" type="line"/>
      <point x="52" y="881" type="line"/>
      <point x="52" y="181" type="line"/>
      <point x="157" y="107" type="line"/>
      <point x="157" y="678" type="line"/>
      <point x="445" y="-94" type="line"/>
      <point x="603" y="-205" type="line"/>
      <point x="603" y="495" type="line"/>
    </contour>
  </outline>
</glyph>
<glyph name="O.init.alt" format="2">
  <advance width="737"/>
  <outline>
    <contour>
      <point x="365" y="-11" type="curve" smooth="yes"/>
      <point x="560" y="126"/>
      <point x="694" y="363"/>
      <point x="694" y="578" type="curve" smooth="yes"/>
      <point x="694" y="793"/>
      <point x="560" y="842"/>
      <point x="365" y="705" type="curve" smooth="yes"/>
      <point x="170" y="569"/>
      <point x="43" y="337"/>
      <point x="43" y="122" type="curve" smooth="yes"/>
      <point x="43" y="-93"/>
      <point x="170" y="-147"/>
    </contour>
    <contour>
      <point x="365" y="79" type="curve" smooth="yes"/>
      <point x="225" y="-19"/>
      <point x="148" y="30"/>
      <point x="148" y="195" type="curve" smooth="yes"/>
      <point x="148" y="360"/>
      <point x="225" y="517"/>
      <point x="365" y="615" type="curve" smooth="yes"/>
      <point x="505" y="713"/>
      <point x="589" y="670"/>
      <point x="589" y="505" type="curve" smooth="yes"/>
      <point x="589" y="340"/>
      <point x="505" y="177"/>
    </contour>
  </outline>
</glyph>
<glyph name="O.init" format="2">
  <advance width="737"/>
  <outline>
    <contour>
      <point x="365" y="-6" type="curve" smooth="yes"/>
      <point x="560" y="-142"/>
      <point x="694" y="-93"/>
      <point x="694" y="122" type="curve" smooth="yes"/>
      <point x="694" y="337"/>
      <point x="560" y="574"/>
      <point x="365" y="710" type="curve" smooth="yes"/>
      <point x="170" y="847"/>
      <point x="43" y="793"/>
      <point x="43" y="578" type="curve" smooth="yes"/>
      <point x="43" y="363"/>
      <point x="170" y="131"/>
    </contour>
    <contour>
      <point x="365" y="84" type="curve" smooth="yes"/>
      <point x="225" y="182"/>
      <point x="148" y="339"/>
      <point x="148" y="504" type="curve" smooth="yes"/>
      <point x="148" y="669"/>
      <point x="225" y="718"/>
      <point x="365" y="620" type="curve" smooth="yes"/>
      <point x="505" y="522"/>
      <point x="589" y="361"/>
      <point x="589" y="196" type="curve" smooth="yes"/>
      <point x="589" y="31"/>
      <point x="505" y="-14"/>
    </contour>
  </outline>
</glyph>
<glyph name="P.init.alt" format="2">
  <advance width="586"/>
  <outline>
    <contour>
      <point x="52" y="558" type="line"/>
      <point x="52" y="-212" type="line"/>
      <point x="157" y="-139" type="line"/>
      <point x="157" y="631" type="line"/>
    </contour>
    <contour>
      <point x="157" y="309" type="line"/>
      <point x="157" y="219" type="line"/>
      <point x="319" y="333" type="line"/>
      <point x="319" y="423" type="line"/>
    </contour>
    <contour>
      <point x="157" y="631" type="line"/>
      <point x="157" y="541" type="line"/>
      <point x="319" y="655" type="line"/>
      <point x="319" y="745" type="line"/>
    </contour>
    <contour>
      <point x="319" y="745" type="curve"/>
      <point x="319" y="655" type="line"/>
      <point x="385" y="702"/>
      <point x="443" y="698"/>
      <point x="443" y="627" type="curve"/>
      <point x="443" y="557"/>
      <point x="386" y="472"/>
      <point x="319" y="423" type="curve"/>
      <point x="319" y="333" type="line"/>
      <point x="438" y="419"/>
      <point x="543" y="546"/>
      <point x="543" y="697" type="curve" smooth="yes"/>
      <point x="543" y="848"/>
      <point x="438" y="829"/>
    </contour>
  </outline>
</glyph>
<glyph name="P.init" format="2">
  <advance width="586"/>
  <outline>
    <contour>
      <point x="52" y="812" type="line"/>
      <point x="52" y="-8" type="line"/>
      <point x="157" y="-82" type="line"/>
      <point x="157" y="738" type="line"/>
    </contour>
    <contour>
      <point x="157" y="416" type="line"/>
      <point x="157" y="326" type="line"/>
      <point x="319" y="213" type="line"/>
      <point x="319" y="303" type="line"/>
    </contour>
    <contour>
      <point x="157" y="738" type="line"/>
      <point x="157" y="648" type="line"/>
      <point x="319" y="535" type="line"/>
      <point x="319" y="625" type="line"/>
    </contour>
    <contour>
      <point x="319" y="625" type="curve"/>
      <point x="319" y="535" type="line"/>
      <point x="385" y="489"/>
      <point x="443" y="404"/>
      <point x="443" y="333" type="curve"/>
      <point x="443" y="263"/>
      <point x="386" y="258"/>
      <point x="319" y="303" type="curve"/>
      <point x="319" y="213" type="line"/>
      <point x="438" y="132"/>
      <point x="543" y="112"/>
      <point x="543" y="263" type="curve" smooth="yes"/>
      <point x="543" y="414"/>
      <point x="438" y="542"/>
    </contour>
  </outline>
</glyph>
<glyph name="Q.init.alt" format="2">
  <advance width="719"/>
  <outline>
    <contour>
      <point x="347" y="29" type="curve" smooth="yes"/>
      <point x="544" y="168"/>
      <point x="676" y="403"/>
      <point x="676" y="618" type="curve" smooth="yes"/>
      <point x="676" y="834"/>
      <point x="544" y="886"/>
      <point x="347" y="747" type="curve" smooth="yes"/>
      <point x="154" y="613"/>
      <point x="25" y="378"/>
      <point x="25" y="162" type="curve" smooth="yes"/>
      <point x="25" y="-53"/>
      <point x="154" y="-105"/>
    </contour>
    <contour>
      <point x="347" y="119" type="curve" smooth="yes"/>
      <point x="215" y="27"/>
      <point x="130" y="66"/>
      <point x="130" y="235" type="curve" smooth="yes"/>
      <point x="130" y="398"/>
      <point x="211" y="563"/>
      <point x="347" y="657" type="curve" smooth="yes"/>
      <point x="482" y="752"/>
      <point x="571" y="714"/>
      <point x="571" y="545" type="curve" smooth="yes"/>
      <point x="571" y="383"/>
      <point x="488" y="219"/>
    </contour>
    <contour>
      <point x="432" y="338" type="line"/>
      <point x="362" y="216" type="line"/>
      <point x="606" y="144" type="line"/>
      <point x="676" y="265" type="line"/>
    </contour>
  </outline>
</glyph>
<glyph name="Q.init" format="2">
  <advance width="719"/>
  <outline>
    <contour>
      <point x="347" y="34" type="curve" smooth="yes"/>
      <point x="544" y="-103"/>
      <point x="676" y="-53"/>
      <point x="676" y="162" type="curve" smooth="yes"/>
      <point x="676" y="378"/>
      <point x="544" y="615"/>
      <point x="347" y="752" type="curve" smooth="yes"/>
      <point x="154" y="888"/>
      <point x="25" y="834"/>
      <point x="25" y="618" type="curve" smooth="yes"/>
      <point x="25" y="403"/>
      <point x="154" y="170"/>
    </contour>
    <contour>
      <point x="347" y="124" type="curve" smooth="yes"/>
      <point x="215" y="217"/>
      <point x="130" y="375"/>
      <point x="130" y="544" type="curve" smooth="yes"/>
      <point x="130" y="707"/>
      <point x="211" y="758"/>
      <point x="347" y="662" type="curve" smooth="yes"/>
      <point x="482" y="568"/>
      <point x="571" y="405"/>
      <point x="571" y="236" type="curve" smooth="yes"/>
      <point x="571" y="74"/>
      <point x="488" y="26"/>
    </contour>
    <contour>
      <point x="432" y="224" type="line"/>
      <point x="362" y="200" type="line"/>
      <point x="606" y="-214" type="line"/>
      <point x="676" y="-191" type="line"/>
    </contour>
  </outline>
</glyph>
<glyph name="R.init.alt" format="2">
  <advance width="587"/>
  <outline>
    <contour>
      <point x="52" y="497" type="line"/>
      <point x="52" y="-203" type="line"/>
      <point x="157" y="-128" type="line"/>
      <point x="157" y="572" type="line"/>
    </contour>
    <contour>
      <point x="157" y="250" type="line"/>
      <point x="157" y="160" type="line"/>
      <point x="319" y="272" type="line"/>
      <point x="319" y="362" type="line"/>
    </contour>
    <contour>
      <point x="157" y="572" type="line"/>
      <point x="157" y="482" type="line"/>
      <point x="319" y="594" type="line"/>
      <point x="319" y="684" type="line"/>
    </contour>
    <contour>
      <point x="319" y="684" type="curve"/>
      <point x="319" y="594" type="line"/>
      <point x="385" y="641"/>
      <point x="443" y="640"/>
      <point x="443" y="557" type="curve"/>
      <point x="443" y="480"/>
      <point x="386" y="411"/>
      <point x="319" y="362" type="curve"/>
      <point x="319" y="272" type="line"/>
      <point x="438" y="358"/>
      <point x="543" y="476"/>
      <point x="543" y="627" type="curve" smooth="yes"/>
      <point x="543" y="778"/>
      <point x="438" y="768"/>
    </contour>
    <contour>
      <point x="246" y="239" type="line"/>
      <point x="419" y="55" type="line"/>
      <point x="544" y="143" type="line"/>
      <point x="361" y="319" type="line"/>
    </contour>
  </outline>
</glyph>
<glyph name="R.init" format="2">
  <advance width="587"/>
  <outline>
    <contour>
      <point x="52" y="812" type="line"/>
      <point x="52" y="112" type="line"/>
      <point x="157" y="39" type="line"/>
      <point x="157" y="739" type="line"/>
    </contour>
    <contour>
      <point x="157" y="417" type="line"/>
      <point x="157" y="327" type="line"/>
      <point x="319" y="213" type="line"/>
      <point x="319" y="303" type="line"/>
    </contour>
    <contour>
      <point x="157" y="739" type="line"/>
      <point x="157" y="649" type="line"/>
      <point x="319" y="535" type="line"/>
      <point x="319" y="625" type="line"/>
    </contour>
    <contour>
      <point x="319" y="625" type="curve"/>
      <point x="319" y="535" type="line"/>
      <point x="385" y="489"/>
      <point x="443" y="407"/>
      <point x="443" y="324" type="curve"/>
      <point x="443" y="247"/>
      <point x="386" y="258"/>
      <point x="319" y="303" type="curve"/>
      <point x="319" y="213" type="line"/>
      <point x="438" y="132"/>
      <point x="543" y="103"/>
      <point x="543" y="254" type="curve" smooth="yes"/>
      <point x="543" y="405"/>
      <point x="438" y="542"/>
    </contour>
    <contour>
      <point x="246" y="282" type="line"/>
      <point x="419" y="-144" type="line"/>
      <point x="544" y="-232" type="line"/>
      <point x="361" y="201" type="line"/>
    </contour>
  </outline>
</glyph>
<glyph name="S.init.alt" format="2">
  <advance width="604"/>
  <outline>
    <contour>
      <point x="38" y="314" type="curve"/>
      <point x="38" y="57"/>
      <point x="466" y="476"/>
      <point x="466" y="310" type="curve"/>
      <point x="466" y="249"/>
      <point x="399" y="161"/>
      <point x="293" y="86" type="curve" smooth="yes"/>
      <point x="203" y="23"/>
      <point x="138" y="22"/>
      <point x="138" y="91" type="curve"/>
      <point x="33" y="10" type="line"/>
      <point x="33" y="-115"/>
      <point x="126" y="-120"/>
      <point x="293" y="-4" type="curve" smooth="yes"/>
      <point x="466" y="118"/>
      <point x="571" y="277"/>
      <point x="571" y="398" type="curve" smooth="yes"/>
      <point x="571" y="640"/>
      <point x="143" y="249"/>
      <point x="143" y="401" type="curve"/>
      <point x="144" y="468"/>
      <point x="220" y="550"/>
      <point x="293" y="601" type="curve" smooth="yes"/>
      <point x="382" y="664"/>
      <point x="464" y="676"/>
      <point x="464" y="607" type="curve"/>
      <point x="569" y="687" type="line"/>
      <point x="569" y="811"/>
      <point x="466" y="813"/>
      <point x="293" y="691" type="curve" smooth="yes"/>
      <point x="119" y="570"/>
      <point x="38" y="433"/>
    </contour>
  </outline>
</glyph>
<glyph name="S.init" format="2">
  <advance width="604"/>
  <outline>
    <contour>
      <point x="38" y="684" type="curve"/>
      <point x="38" y="427"/>
      <point x="466" y="246"/>
      <point x="466" y="80" type="curve"/>
      <point x="466" y="19"/>
      <point x="399" y="25"/>
      <point x="293" y="99" type="curve" smooth="yes"/>
      <point x="203" y="162"/>
      <point x="138" y="252"/>
      <point x="138" y="321" type="curve"/>
      <point x="33" y="387" type="line"/>
      <point x="33" y="262"/>
      <point x="126" y="126"/>
      <point x="293" y="9" type="curve" smooth="yes"/>
      <point x="466" y="-112"/>
      <point x="571" y="-100"/>
      <point x="571" y="21" type="curve" smooth="yes"/>
      <point x="571" y="263"/>
      <point x="143" y="472"/>
      <point x="143" y="624" type="curve"/>
      <point x="144" y="689"/>
      <point x="220" y="665"/>
      <point x="293" y="614" type="curve" smooth="yes"/>
      <point x="382" y="552"/>
      <point x="464" y="449"/>
      <point x="464" y="380" type="curve"/>
      <point x="569" y="313" type="line"/>
      <point x="569" y="437"/>
      <point x="466" y="583"/>
      <point x="293" y="704" type="curve" smooth="yes"/>
      <point x="119" y="826"/>
      <point x="38" y="803"/>
    </contour>
  </outline>
</glyph>
<glyph name="T.init.alt" format="2">
  <advance width="494"/>
  <outline>
    <contour>
      <point x="195" y="613" type="line"/>
      <point x="195" y="-87" type="line"/>
      <point x="300" y="-13" type="line"/>
      <point x="300" y="687" type="line"/>
    </contour>
    <contour>
      <point x="20" y="491" type="line"/>
      <point x="20" y="401" type="line"/>
      <point x="195" y="523" type="line"/>
      <point x="195" y="613" type="line"/>
    </contour>
    <contour>
      <point x="300" y="687" type="line"/>
      <point x="300" y="597" type="line"/>
      <point x="474" y="719" type="line"/>
      <point x="474" y="809" type="line"/>
    </contour>
  </outline>
</glyph>
<glyph name="U.init.alt" format="2">
  <advance width="600"/>
  <outline>
    <contour>
      <point x="456" y="739" type="line"/>
      <point x="456" y="299" type="line"/>
      <point x="456" y="172"/>
      <point x="373" y="73"/>
      <point x="298" y="20" type="curve"/>
      <point x="223" y="-33"/>
      <point x="145" y="-46"/>
      <point x="145" y="81" type="curve"/>
      <point x="145" y="521" type="line"/>
      <point x="40" y="447" type="line"/>
      <point x="40" y="-13" type="line"/>
      <point x="40" y="-150"/>
      <point x="141" y="-189"/>
      <point x="296" y="-81" type="curve"/>
      <point x="451" y="28"/>
      <point x="561" y="214"/>
      <point x="561" y="353" type="curve"/>
      <point x="561" y="813" type="line"/>
    </contour>
  </outline>
</glyph>
<glyph name="U.init" format="2">
  <advance width="600"/>
  <outline>
    <contour>
      <point x="456" y="521" type="line"/>
      <point x="456" y="81" type="line"/>
      <point x="456" y="-46"/>
      <point x="373" y="-29"/>
      <point x="298" y="24" type="curve"/>
      <point x="223" y="76"/>
      <point x="145" y="172"/>
      <point x="145" y="299" type="curve"/>
      <point x="145" y="739" type="line"/>
      <point x="40" y="812" type="line"/>
      <point x="40" y="352" type="line"/>
      <point x="40" y="215"/>
      <point x="141" y="34"/>
      <point x="296" y="-75" type="curve"/>
      <point x="451" y="-183"/>
      <point x="561" y="-151"/>
      <point x="561" y="-12" type="curve"/>
      <point x="561" y="448" type="line"/>
    </contour>
  </outline>
</glyph>
<glyph name="V.init.alt" format="2">
  <advance width="668"/>
  <outline>
    <contour>
      <point x="-1" y="337" type="line"/>
      <point x="265" y="-179" type="line"/>
      <point x="405" y="-81" type="line"/>
      <point x="669" y="804" type="line"/>
      <point x="564" y="731" type="line"/>
      <point x="333" y="-20" type="line"/>
      <point x="104" y="410" type="line"/>
    </contour>
  </outline>
</glyph>
<glyph name="V.init" format="2">
  <advance width="668"/>
  <outline>
    <contour>
      <point x="-1" y="806" type="line"/>
      <point x="265" y="-82" type="line"/>
      <point x="405" y="-180" type="line"/>
      <point x="669" y="335" type="line"/>
      <point x="564" y="409" type="line"/>
      <point x="333" y="-19" type="line"/>
      <point x="104" y="732" type="line"/>
    </contour>
  </outline>
</glyph>
<glyph name="W.init.alt" format="2">
  <advance width="872"/>
  <outline>
    <contour>
      <point x="-1" y="364" type="line"/>
      <point x="152" y="-229" type="line"/>
      <point x="292" y="-131" type="line"/>
      <point x="429" y="513" type="line"/>
      <point x="547" y="47" type="line"/>
      <point x="687" y="146" type="line"/>
      <point x="873" y="976" type="line"/>
      <point x="768" y="903" type="line"/>
      <point x="615" y="206" type="line"/>
      <point x="501" y="715" type="line"/>
      <point x="371" y="625" type="line"/>
      <point x="232" y="-63" type="line"/>
      <point x="104" y="437" type="line"/>
    </contour>
  </outline>
</glyph>
<glyph name="W.init" format="2">
  <advance width="872"/>
  <outline>
    <contour>
      <point x="-1" y="976" type="line"/>
      <point x="152" y="169" type="line"/>
      <point x="292" y="71" type="line"/>
      <point x="429" y="523" type="line"/>
      <point x="547" y="-108" type="line"/>
      <point x="687" y="-206" type="line"/>
      <point x="873" y="364" type="line"/>
      <point x="768" y="438" type="line"/>
      <point x="615" y="-45" type="line"/>
      <point x="501" y="624" type="line"/>
      <point x="371" y="716" type="line"/>
      <point x="232" y="223" type="line"/>
      <point x="104" y="902" type="line"/>
    </contour>
  </outline>
</glyph>
<glyph name="X.init.alt" format="2">
  <advance width="606"/>
  <outline>
    <contour>
      <point x="-1" y="487" type="line"/>
      <point x="246" y="311" type="line"/>
      <point x="2" y="-211" type="line"/>
      <point x="125" y="-124" type="line"/>
      <point x="309" y="260" type="line"/>
      <point x="490" y="131" type="line"/>
      <point x="607" y="213" type="line"/>
      <point x="370" y="398" type="line"/>
      <point x="604" y="911" type="line"/>
      <point x="483" y="826" type="line"/>
      <point x="309" y="436" type="line"/>
      <point x="121" y="572" type="line"/>
    </contour>
  </outline>
</glyph>
<glyph name="X.init" format="2">
  <advance width="606"/>
  <outline>
    <contour>
      <point x="-1" y="913" type="line"/>
      <point x="246" y="391" type="line"/>
      <point x="2" y="211" type="line"/>
      <point x="125" y="125" type="line"/>
      <point x="309" y="252" type="line"/>
      <point x="490" y="-131" type="line"/>
      <point x="607" y="-213" type="line"/>
      <point x="370" y="304" type="line"/>
      <point x="604" y="489" type="line"/>
      <point x="483" y="574" type="line"/>
      <point x="309" y="428" type="line"/>
      <point x="121" y="827" type="line"/>
    </contour>
  </outline>
</glyph>
<glyph name="Y.init" format="2">
  <advance width="628"/>
  <outline>
    <contour>
      <point x="-1" y="812" type="line"/>
      <point x="253" y="193" type="line"/>
      <point x="254" y="192" type="line"/>
      <point x="254" y="-68" type="line"/>
      <point x="359" y="-142" type="line"/>
      <point x="359" y="118" type="line"/>
      <point x="629" y="369" type="line"/>
      <point x="524" y="443" type="line"/>
      <point x="305" y="247" type="line"/>
      <point x="104" y="738" type="line"/>
    </contour>
  </outline>
</glyph>
<glyph name="Z.init" format="2">
  <advance width="600"/>
  <outline>
    <contour>
      <point x="564" y="-113" type="line"/>
      <point x="168" y="164" type="line"/>
      <point x="582" y="401" type="line"/>
      <point x="582" y="483" type="line"/>
      <point x="51" y="855" type="line"/>
      <point x="51" y="765" type="line"/>
      <point x="460" y="479" type="line"/>
      <point x="51" y="246" type="line"/>
      <point x="52" y="155" type="line"/>
      <point x="564" y="-203" type="line"/>
    </contour>
  </outline>
</glyph>
<glyph name="a.fina.alt" format="2">
  <advance width="492"/>
  <outline>
    <contour>
      <point x="350" y="197" type="curve"/>
      <point x="350" y="-136" type="line"/>
      <point x="450" y="-206" type="line"/>
      <point x="450" y="132" type="line" smooth="yes"/>
      <point x="450" y="228"/>
      <point x="371" y="357"/>
      <point x="242" y="448" type="curve" smooth="yes"/>
      <point x="124" y="530"/>
      <point x="33" y="534"/>
      <point x="33" y="410" type="curve"/>
      <point x="133" y="340" type="line"/>
      <point x="133" y="399"/>
      <point x="182" y="407"/>
      <point x="242" y="365" type="curve" smooth="yes"/>
      <point x="302" y="323"/>
      <point x="350" y="247"/>
    </contour>
    <contour>
      <point x="367" y="160" type="line"/>
      <point x="126" y="329"/>
      <point x="34" y="321"/>
      <point x="34" y="213" type="curve" smooth="yes"/>
      <point x="34" y="112"/>
      <point x="124" y="14"/>
      <point x="191" y="-33" type="curve" smooth="yes"/>
      <point x="294" y="-105"/>
      <point x="364" y="-103"/>
      <point x="364" y="59" type="curve"/>
      <point x="350" y="56" type="line"/>
      <point x="350" y="13"/>
      <point x="313" y="-22"/>
      <point x="258" y="-2" type="curve" smooth="yes"/>
      <point x="179" y="28"/>
      <point x="115" y="110"/>
      <point x="115" y="168" type="curve" smooth="yes"/>
      <point x="115" y="245"/>
      <point x="248" y="164"/>
      <point x="367" y="81" type="curve"/>
    </contour>
  </outline>
</glyph>
<glyph name="a.fina" format="2">
  <advance width="492"/>
  <outline>
    <contour>
      <point x="350" y="409" type="curve"/>
      <point x="350" y="76" type="line"/>
      <point x="450" y="146" type="line"/>
      <point x="450" y="484" type="line" smooth="yes"/>
      <point x="450" y="580"/>
      <point x="371" y="599"/>
      <point x="242" y="508" type="curve" smooth="yes"/>
      <point x="124" y="426"/>
      <point x="33" y="302"/>
      <point x="33" y="178" type="curve"/>
      <point x="133" y="248" type="line"/>
      <point x="133" y="307"/>
      <point x="182" y="383"/>
      <point x="242" y="425" type="curve" smooth="yes"/>
      <point x="302" y="467"/>
      <point x="350" y="459"/>
    </contour>
    <contour>
      <point x="367" y="396" type="line"/>
      <point x="126" y="227"/>
      <point x="34" y="91"/>
      <point x="34" y="-17" type="curve" smooth="yes"/>
      <point x="34" y="-118"/>
      <point x="124" y="-90"/>
      <point x="191" y="-43" type="curve" smooth="yes"/>
      <point x="294" y="29"/>
      <point x="364" y="129"/>
      <point x="364" y="291" type="curve"/>
      <point x="350" y="268" type="line"/>
      <point x="350" y="225"/>
      <point x="313" y="138"/>
      <point x="258" y="82" type="curve" smooth="yes"/>
      <point x="179" y="0"/>
      <point x="115" y="-8"/>
      <point x="115" y="50" type="curve" smooth="yes"/>
      <point x="115" y="127"/>
      <point x="248" y="234"/>
      <point x="367" y="317" type="curve"/>
    </contour>
  </outline>
</glyph>
<glyph name="a_a.liga.alt1" format="2">
  <advance width="924"/>
  <outline>
    <contour>
      <point x="332" y="332" type="curve"/>
      <point x="332" y="-1" type="line"/>
      <point x="432" y="-71" type="line"/>
      <point x="432" y="267" type="line" smooth="yes"/>
      <point x="432" y="363"/>
      <point x="353" y="492"/>
      <point x="224" y="583" type="curve" smooth="yes"/>
      <point x="106" y="665"/>
      <point x="15" y="669"/>
      <point x="15" y="545" type="curve"/>
      <point x="115" y="475" type="line"/>
      <point x="115" y="534"/>
      <point x="164" y="542"/>
      <point x="224" y="500" type="curve" smooth="yes"/>
      <point x="284" y="458"/>
      <point x="332" y="382"/>
    </contour>
    <contour>
      <point x="349" y="295" type="line"/>
      <point x="108" y="464"/>
      <point x="16" y="456"/>
      <point x="16" y="348" type="curve" smooth="yes"/>
      <point x="16" y="247"/>
      <point x="106" y="149"/>
      <point x="173" y="102" type="curve" smooth="yes"/>
      <point x="276" y="30"/>
      <point x="346" y="32"/>
      <point x="346" y="194" type="curve"/>
      <point x="332" y="191" type="line"/>
      <point x="332" y="148"/>
      <point x="295" y="113"/>
      <point x="240" y="133" type="curve" smooth="yes"/>
      <point x="161" y="163"/>
      <point x="97" y="245"/>
      <point x="97" y="303" type="curve" smooth="yes"/>
      <point x="97" y="380"/>
      <point x="230" y="299"/>
      <point x="349" y="216" type="curve"/>
    </contour>
    <contour>
      <point x="794" y="336" type="curve"/>
      <point x="794" y="3" type="line"/>
      <point x="894" y="-67" type="line"/>
      <point x="894" y="271" type="line" smooth="yes"/>
      <point x="894" y="367"/>
      <point x="815" y="497"/>
      <point x="686" y="587" type="curve" smooth="yes"/>
      <point x="568" y="670"/>
      <point x="477" y="674"/>
      <point x="477" y="550" type="curve"/>
      <point x="577" y="480" type="line"/>
      <point x="577" y="539"/>
      <point x="626" y="546"/>
      <point x="686" y="504" type="curve" smooth="yes"/>
      <point x="746" y="462"/>
      <point x="794" y="386"/>
    </contour>
    <contour>
      <point x="811" y="299" type="line"/>
      <point x="570" y="469"/>
      <point x="478" y="461"/>
      <point x="478" y="353" type="curve" smooth="yes"/>
      <point x="478" y="252"/>
      <point x="568" y="154"/>
      <point x="635" y="107" type="curve" smooth="yes"/>
      <point x="738" y="34"/>
      <point x="808" y="36"/>
      <point x="808" y="198" type="curve"/>
      <point x="794" y="195" type="line"/>
      <point x="794" y="152"/>
      <point x="757" y="118"/>
      <point x="702" y="138" type="curve" smooth="yes"/>
      <point x="623" y="168"/>
      <point x="559" y="249"/>
      <point x="559" y="307" type="curve" smooth="yes"/>
      <point x="559" y="384"/>
      <point x="692" y="304"/>
      <point x="811" y="220" type="curve"/>
    </contour>
  </outline>
</glyph>
<glyph name="a_a.liga.alt2" format="2">
  <advance width="954"/>
  <outline>
    <contour>
      <point x="350" y="370" type="curve"/>
      <point x="350" y="37" type="line"/>
      <point x="450" y="107" type="line"/>
      <point x="450" y="445" type="line" smooth="yes"/>
      <point x="450" y="541"/>
      <point x="371" y="559"/>
      <point x="242" y="470" type="curve" smooth="yes"/>
      <point x="124" y="386"/>
      <point x="33" y="263"/>
      <point x="33" y="139" type="curve"/>
      <point x="133" y="209" type="line"/>
      <point x="133" y="268"/>
      <point x="182" y="345"/>
      <point x="242" y="387" type="curve" smooth="yes"/>
      <point x="302" y="429"/>
      <point x="350" y="420"/>
    </contour>
    <contour>
      <point x="367" y="357" type="line"/>
      <point x="126" y="188"/>
      <point x="34" y="51"/>
      <point x="34" y="-57" type="curve" smooth="yes"/>
      <point x="34" y="-158"/>
      <point x="124" y="-130"/>
      <point x="191" y="-83" type="curve" smooth="yes"/>
      <point x="294" y="-10"/>
      <point x="364" y="90"/>
      <point x="364" y="252" type="curve"/>
      <point x="350" y="229" type="line"/>
      <point x="350" y="186"/>
      <point x="313" y="99"/>
      <point x="258" y="42" type="curve" smooth="yes"/>
      <point x="179" y="-39"/>
      <point x="115" y="-46"/>
      <point x="115" y="12" type="curve" smooth="yes"/>
      <point x="115" y="89"/>
      <point x="248" y="194"/>
      <point x="367" y="278" type="curve"/>
    </contour>
    <contour>
      <point x="812" y="325" type="curve"/>
      <point x="812" y="-8" type="line"/>
      <point x="912" y="62" type="line"/>
      <point x="912" y="400" type="line" smooth="yes"/>
      <point x="912" y="496"/>
      <point x="833" y="515"/>
      <point x="704" y="425" type="curve" smooth="yes"/>
      <point x="586" y="342"/>
      <point x="495" y="219"/>
      <point x="495" y="95" type="curve"/>
      <point x="595" y="165" type="line"/>
      <point x="595" y="224"/>
      <point x="644" y="300"/>
      <point x="704" y="342" type="curve" smooth="yes"/>
      <point x="764" y="384"/>
      <point x="812" y="375"/>
    </contour>
    <contour>
      <point x="829" y="312" type="line"/>
      <point x="588" y="144"/>
      <point x="496" y="7"/>
      <point x="496" y="-101" type="curve" smooth="yes"/>
      <point x="496" y="-202"/>
      <point x="586" y="-174"/>
      <point x="653" y="-127" type="curve" smooth="yes"/>
      <point x="756" y="-55"/>
      <point x="826" y="45"/>
      <point x="826" y="207" type="curve"/>
      <point x="812" y="184" type="line"/>
      <point x="812" y="141"/>
      <point x="775" y="55"/>
      <point x="720" y="-2" type="curve" smooth="yes"/>
      <point x="641" y="-83"/>
      <point x="577" y="-91"/>
      <point x="577" y="-33" type="curve" smooth="yes"/>
      <point x="577" y="44"/>
      <point x="710" y="150"/>
      <point x="829" y="233" type="curve"/>
    </contour>
  </outline>
</glyph>
<glyph name="a_a.liga.alt3" format="2">
  <advance width="954"/>
  <outline>
    <contour>
      <point x="350" y="336" type="curve"/>
      <point x="350" y="3" type="line"/>
      <point x="450" y="73" type="line"/>
      <point x="450" y="411" type="line" smooth="yes"/>
      <point x="450" y="507"/>
      <point x="371" y="525"/>
      <point x="242" y="436" type="curve" smooth="yes"/>
      <point x="124" y="352"/>
      <point x="33" y="229"/>
      <point x="33" y="105" type="curve"/>
      <point x="133" y="175" type="line"/>
      <point x="133" y="234"/>
      <point x="182" y="311"/>
      <point x="242" y="353" type="curve" smooth="yes"/>
      <point x="302" y="395"/>
      <point x="350" y="386"/>
    </contour>
    <contour>
      <point x="367" y="323" type="line"/>
      <point x="126" y="154"/>
      <point x="34" y="17"/>
      <point x="34" y="-91" type="curve" smooth="yes"/>
      <point x="34" y="-192"/>
      <point x="124" y="-164"/>
      <point x="191" y="-117" type="curve" smooth="yes"/>
      <point x="294" y="-44"/>
      <point x="364" y="56"/>
      <point x="364" y="218" type="curve"/>
      <point x="350" y="195" type="line"/>
      <point x="350" y="152"/>
      <point x="313" y="65"/>
      <point x="258" y="8" type="curve" smooth="yes"/>
      <point x="179" y="-73"/>
      <point x="115" y="-80"/>
      <point x="115" y="-22" type="curve" smooth="yes"/>
      <point x="115" y="55"/>
      <point x="248" y="160"/>
      <point x="367" y="244" type="curve"/>
    </contour>
    <contour>
      <point x="812" y="173" type="curve"/>
      <point x="812" y="-160" type="line"/>
      <point x="912" y="-230" type="line"/>
      <point x="912" y="108" type="line" smooth="yes"/>
      <point x="912" y="204"/>
      <point x="833" y="334"/>
      <point x="704" y="424" type="curve" smooth="yes"/>
      <point x="586" y="507"/>
      <point x="495" y="511"/>
      <point x="495" y="387" type="curve"/>
      <point x="595" y="317" type="line"/>
      <point x="595" y="376"/>
      <point x="644" y="383"/>
      <point x="704" y="341" type="curve" smooth="yes"/>
      <point x="764" y="299"/>
      <point x="812" y="223"/>
    </contour>
    <contour>
      <point x="829" y="136" type="line"/>
      <point x="588" y="306"/>
      <point x="496" y="298"/>
      <point x="496" y="190" type="curve" smooth="yes"/>
      <point x="496" y="89"/>
      <point x="586" y="-9"/>
      <point x="653" y="-56" type="curve" smooth="yes"/>
      <point x="756" y="-129"/>
      <point x="826" y="-127"/>
      <point x="826" y="35" type="curve"/>
      <point x="812" y="32" type="line"/>
      <point x="812" y="-11"/>
      <point x="775" y="-45"/>
      <point x="720" y="-25" type="curve" smooth="yes"/>
      <point x="641" y="5"/>
      <point x="577" y="86"/>
      <point x="577" y="144" type="curve" smooth="yes"/>
      <point x="577" y="221"/>
      <point x="710" y="141"/>
      <point x="829" y="57" type="curve"/>
    </contour>
  </outline>
</glyph>
<glyph name="a_a.liga" format="2">
  <advance width="954"/>
  <outline>
    <contour>
      <point x="350" y="184" type="curve"/>
      <point x="350" y="-149" type="line"/>
      <point x="450" y="-219" type="line"/>
      <point x="450" y="119" type="line" smooth="yes"/>
      <point x="450" y="215"/>
      <point x="371" y="344"/>
      <point x="242" y="435" type="curve" smooth="yes"/>
      <point x="124" y="517"/>
      <point x="33" y="521"/>
      <point x="33" y="397" type="curve"/>
      <point x="133" y="327" type="line"/>
      <point x="133" y="386"/>
      <point x="182" y="394"/>
      <point x="242" y="352" type="curve" smooth="yes"/>
      <point x="302" y="310"/>
      <point x="350" y="234"/>
    </contour>
    <contour>
      <point x="367" y="147" type="line"/>
      <point x="126" y="316"/>
      <point x="34" y="308"/>
      <point x="34" y="200" type="curve" smooth="yes"/>
      <point x="34" y="99"/>
      <point x="124" y="1"/>
      <point x="191" y="-46" type="curve" smooth="yes"/>
      <point x="294" y="-118"/>
      <point x="364" y="-116"/>
      <point x="364" y="46" type="curve"/>
      <point x="350" y="43" type="line"/>
      <point x="350" y="0"/>
      <point x="313" y="-35"/>
      <point x="258" y="-15" type="curve" smooth="yes"/>
      <point x="179" y="15"/>
      <point x="115" y="97"/>
      <point x="115" y="155" type="curve" smooth="yes"/>
      <point x="115" y="232"/>
      <point x="248" y="151"/>
      <point x="367" y="68" type="curve"/>
    </contour>
    <contour>
      <point x="812" y="325" type="curve"/>
      <point x="812" y="-8" type="line"/>
      <point x="912" y="62" type="line"/>
      <point x="912" y="400" type="line" smooth="yes"/>
      <point x="912" y="496"/>
      <point x="833" y="515"/>
      <point x="704" y="425" type="curve" smooth="yes"/>
      <point x="586" y="342"/>
      <point x="495" y="219"/>
      <point x="495" y="95" type="curve"/>
      <point x="595" y="165" type="line"/>
      <point x="595" y="224"/>
      <point x="644" y="300"/>
      <point x="704" y="342" type="curve" smooth="yes"/>
      <point x="764" y="384"/>
      <point x="812" y="375"/>
    </contour>
    <contour>
      <point x="829" y="312" type="line"/>
      <point x="588" y="144"/>
      <point x="496" y="7"/>
      <point x="496" y="-101" type="curve" smooth="yes"/>
      <point x="496" y="-202"/>
      <point x="586" y="-174"/>
      <point x="653" y="-127" type="curve" smooth="yes"/>
      <point x="756" y="-55"/>
      <point x="826" y="45"/>
      <point x="826" y="207" type="curve"/>
      <point x="812" y="184" type="line"/>
      <point x="812" y="141"/>
      <point x="775" y="55"/>
      <point x="720" y="-2" type="curve" smooth="yes"/>
      <point x="641" y="-83"/>
      <point x="577" y="-91"/>
      <point x="577" y="-33" type="curve" smooth="yes"/>
      <point x="577" y="44"/>
      <point x="710" y="150"/>
      <point x="829" y="233" type="curve"/>
    </contour>
  </outline>
</glyph>
<glyph name="b.fina.alt" format="2">
  <advance width="537"/>
  <outline>
    <contour>
      <point x="42" y="800" type="line"/>
      <point x="42" y="0" type="line"/>
      <point x="142" y="-70" type="line"/>
      <point x="142" y="730" type="line"/>
    </contour>
    <contour>
      <point x="296" y="-186" type="curve" smooth="yes"/>
      <point x="436" y="-284"/>
      <point x="504" y="-232"/>
      <point x="504" y="-74" type="curve" smooth="yes"/>
      <point x="504" y="76"/>
      <point x="436" y="232"/>
      <point x="296" y="330" type="curve" smooth="yes"/>
      <point x="166" y="421"/>
      <point x="124" y="353"/>
      <point x="124" y="192" type="curve" smooth="yes"/>
      <point x="124" y="46"/>
      <point x="147" y="-82"/>
    </contour>
    <contour>
      <point x="276" y="-92" type="curve" smooth="yes"/>
      <point x="181" y="-26"/>
      <point x="142" y="76"/>
      <point x="142" y="180" type="curve" smooth="yes"/>
      <point x="142" y="283"/>
      <point x="181" y="330"/>
      <point x="276" y="264" type="curve" smooth="yes"/>
      <point x="366" y="201"/>
      <point x="404" y="106"/>
      <point x="404" y="-4" type="curve" smooth="yes"/>
      <point x="404" y="-114"/>
      <point x="366" y="-155"/>
    </contour>
  </outline>
</glyph>
<glyph name="b.fina" format="2">
  <advance width="537"/>
  <outline>
    <contour>
      <point x="42" y="730" type="line"/>
      <point x="42" y="-162" type="line"/>
      <point x="142" y="-92" type="line"/>
      <point x="142" y="800" type="line"/>
    </contour>
    <contour>
      <point x="296" y="8" type="curve" smooth="yes"/>
      <point x="436" y="106"/>
      <point x="504" y="254"/>
      <point x="504" y="412" type="curve" smooth="yes"/>
      <point x="504" y="562"/>
      <point x="436" y="622"/>
      <point x="296" y="524" type="curve" smooth="yes"/>
      <point x="166" y="433"/>
      <point x="124" y="307"/>
      <point x="124" y="146" type="curve" smooth="yes"/>
      <point x="124" y="0"/>
      <point x="147" y="-96"/>
    </contour>
    <contour>
      <point x="276" y="74" type="curve" smooth="yes"/>
      <point x="181" y="8"/>
      <point x="142" y="54"/>
      <point x="142" y="158" type="curve" smooth="yes"/>
      <point x="142" y="261"/>
      <point x="181" y="364"/>
      <point x="276" y="430" type="curve" smooth="yes"/>
      <point x="366" y="493"/>
      <point x="404" y="452"/>
      <point x="404" y="342" type="curve" smooth="yes"/>
      <point x="404" y="232"/>
      <point x="366" y="137"/>
    </contour>
  </outline>
</glyph>
<glyph name="b_b.liga.alt1" format="2">
  <advance width="1044"/>
  <outline>
    <contour>
      <point x="42" y="983" type="line"/>
      <point x="42" y="183" type="line"/>
      <point x="142" y="113" type="line"/>
      <point x="142" y="913" type="line"/>
    </contour>
    <contour>
      <point x="296" y="-3" type="curve" smooth="yes"/>
      <point x="436" y="-101"/>
      <point x="504" y="-48"/>
      <point x="504" y="110" type="curve" smooth="yes"/>
      <point x="504" y="260"/>
      <point x="436" y="415"/>
      <point x="296" y="513" type="curve" smooth="yes"/>
      <point x="166" y="604"/>
      <point x="124" y="537"/>
      <point x="124" y="376" type="curve" smooth="yes"/>
      <point x="124" y="230"/>
      <point x="147" y="101"/>
    </contour>
    <contour>
      <point x="276" y="91" type="curve" smooth="yes"/>
      <point x="181" y="158"/>
      <point x="142" y="259"/>
      <point x="142" y="363" type="curve" smooth="yes"/>
      <point x="142" y="466"/>
      <point x="181" y="514"/>
      <point x="276" y="447" type="curve" smooth="yes"/>
      <point x="366" y="384"/>
      <point x="404" y="290"/>
      <point x="404" y="180" type="curve" smooth="yes"/>
      <point x="404" y="70"/>
      <point x="366" y="28"/>
    </contour>
    <contour>
      <point x="549" y="979" type="line"/>
      <point x="549" y="179" type="line"/>
      <point x="649" y="109" type="line"/>
      <point x="649" y="909" type="line"/>
    </contour>
    <contour>
      <point x="803" y="-7" type="curve" smooth="yes"/>
      <point x="943" y="-105"/>
      <point x="1011" y="-52"/>
      <point x="1011" y="106" type="curve" smooth="yes"/>
      <point x="1011" y="256"/>
      <point x="943" y="411"/>
      <point x="803" y="509" type="curve" smooth="yes"/>
      <point x="673" y="600"/>
      <point x="631" y="532"/>
      <point x="631" y="371" type="curve" smooth="yes"/>
      <point x="631" y="225"/>
      <point x="654" y="98"/>
    </contour>
    <contour>
      <point x="783" y="87" type="curve" smooth="yes"/>
      <point x="688" y="153"/>
      <point x="649" y="255"/>
      <point x="649" y="359" type="curve" smooth="yes"/>
      <point x="649" y="462"/>
      <point x="688" y="509"/>
      <point x="783" y="443" type="curve" smooth="yes"/>
      <point x="873" y="380"/>
      <point x="911" y="285"/>
      <point x="911" y="175" type="curve" smooth="yes"/>
      <point x="911" y="65"/>
      <point x="873" y="24"/>
    </contour>
  </outline>
</glyph>
<glyph name="b_b.liga.alt2" format="2">
  <advance width="1074"/>
  <outline>
    <contour>
      <point x="42" y="723" type="line"/>
      <point x="42" y="-77" type="line"/>
      <point x="142" y="-7" type="line"/>
      <point x="142" y="793" type="line"/>
    </contour>
    <contour>
      <point x="296" y="93" type="curve" smooth="yes"/>
      <point x="436" y="191"/>
      <point x="504" y="339"/>
      <point x="504" y="497" type="curve" smooth="yes"/>
      <point x="504" y="647"/>
      <point x="436" y="707"/>
      <point x="296" y="609" type="curve" smooth="yes"/>
      <point x="166" y="518"/>
      <point x="124" y="392"/>
      <point x="124" y="231" type="curve" smooth="yes"/>
      <point x="124" y="85"/>
      <point x="147" y="-12"/>
    </contour>
    <contour>
      <point x="276" y="159" type="curve" smooth="yes"/>
      <point x="181" y="93"/>
      <point x="142" y="139"/>
      <point x="142" y="243" type="curve" smooth="yes"/>
      <point x="142" y="346"/>
      <point x="181" y="449"/>
      <point x="276" y="515" type="curve" smooth="yes"/>
      <point x="366" y="578"/>
      <point x="404" y="537"/>
      <point x="404" y="427" type="curve" smooth="yes"/>
      <point x="404" y="317"/>
      <point x="366" y="222"/>
    </contour>
    <contour>
      <point x="579" y="729" type="line"/>
      <point x="579" y="-71" type="line"/>
      <point x="679" y="-1" type="line"/>
      <point x="679" y="799" type="line"/>
    </contour>
    <contour>
      <point x="833" y="99" type="curve" smooth="yes"/>
      <point x="973" y="197"/>
      <point x="1041" y="345"/>
      <point x="1041" y="503" type="curve" smooth="yes"/>
      <point x="1041" y="653"/>
      <point x="973" y="713"/>
      <point x="833" y="615" type="curve" smooth="yes"/>
      <point x="703" y="524"/>
      <point x="661" y="397"/>
      <point x="661" y="236" type="curve" smooth="yes"/>
      <point x="661" y="90"/>
      <point x="684" y="-5"/>
    </contour>
    <contour>
      <point x="813" y="165" type="curve" smooth="yes"/>
      <point x="718" y="98"/>
      <point x="679" y="145"/>
      <point x="679" y="249" type="curve" smooth="yes"/>
      <point x="679" y="352"/>
      <point x="718" y="454"/>
      <point x="813" y="521" type="curve" smooth="yes"/>
      <point x="903" y="584"/>
      <point x="941" y="542"/>
      <point x="941" y="432" type="curve" smooth="yes"/>
      <point x="941" y="322"/>
      <point x="903" y="228"/>
    </contour>
  </outline>
</glyph>
<glyph name="b_b.liga.alt3" format="2">
  <advance width="1044"/>
  <outline>
    <contour>
      <point x="42" y="735" type="line"/>
      <point x="42" y="-225" type="line"/>
      <point x="142" y="-160" type="line"/>
      <point x="142" y="800" type="line"/>
    </contour>
    <contour>
      <point x="296" y="-69" type="curve" smooth="yes"/>
      <point x="436" y="21"/>
      <point x="504" y="166"/>
      <point x="504" y="324" type="curve" smooth="yes"/>
      <point x="504" y="474"/>
      <point x="436" y="537"/>
      <point x="296" y="447" type="curve" smooth="yes"/>
      <point x="166" y="363"/>
      <point x="124" y="239"/>
      <point x="124" y="78" type="curve" smooth="yes"/>
      <point x="124" y="-68"/>
      <point x="147" y="-166"/>
    </contour>
    <contour>
      <point x="276" y="-2" type="curve" smooth="yes"/>
      <point x="181" y="-63"/>
      <point x="142" y="-14"/>
      <point x="142" y="90" type="curve" smooth="yes"/>
      <point x="142" y="193"/>
      <point x="181" y="293"/>
      <point x="276" y="354" type="curve" smooth="yes"/>
      <point x="366" y="412"/>
      <point x="404" y="369"/>
      <point x="404" y="259" type="curve" smooth="yes"/>
      <point x="404" y="149"/>
      <point x="366" y="56"/>
    </contour>
    <contour>
      <point x="549" y="919" type="line"/>
      <point x="549" y="119" type="line"/>
      <point x="649" y="54" type="line"/>
      <point x="649" y="854" type="line"/>
    </contour>
    <contour>
      <point x="803" y="-53" type="curve" smooth="yes"/>
      <point x="943" y="-144"/>
      <point x="1011" y="-87"/>
      <point x="1011" y="71" type="curve" smooth="yes"/>
      <point x="1011" y="221"/>
      <point x="943" y="372"/>
      <point x="803" y="463" type="curve" smooth="yes"/>
      <point x="673" y="547"/>
      <point x="631" y="477"/>
      <point x="631" y="316" type="curve" smooth="yes"/>
      <point x="631" y="170"/>
      <point x="654" y="43"/>
    </contour>
    <contour>
      <point x="783" y="40" type="curve" smooth="yes"/>
      <point x="688" y="101"/>
      <point x="649" y="200"/>
      <point x="649" y="304" type="curve" smooth="yes"/>
      <point x="649" y="407"/>
      <point x="688" y="457"/>
      <point x="783" y="396" type="curve" smooth="yes"/>
      <point x="873" y="338"/>
      <point x="911" y="245"/>
      <point x="911" y="135" type="curve" smooth="yes"/>
      <point x="911" y="25"/>
      <point x="873" y="-18"/>
    </contour>
  </outline>
</glyph>
<glyph name="b_b.liga" format="2">
  <advance width="1044"/>
  <outline>
    <contour>
      <point x="42" y="878" type="line"/>
      <point x="42" y="98" type="line"/>
      <point x="142" y="23" type="line"/>
      <point x="142" y="803" type="line"/>
    </contour>
    <contour>
      <point x="296" y="-101" type="curve" smooth="yes"/>
      <point x="436" y="-207"/>
      <point x="504" y="-157"/>
      <point x="504" y="1" type="curve" smooth="yes"/>
      <point x="504" y="151"/>
      <point x="436" y="309"/>
      <point x="296" y="415" type="curve" smooth="yes"/>
      <point x="166" y="513"/>
      <point x="124" y="448"/>
      <point x="124" y="287" type="curve" smooth="yes"/>
      <point x="124" y="141"/>
      <point x="147" y="10"/>
    </contour>
    <contour>
      <point x="276" y="-6" type="curve" smooth="yes"/>
      <point x="181" y="66"/>
      <point x="142" y="169"/>
      <point x="142" y="273" type="curve" smooth="yes"/>
      <point x="142" y="376"/>
      <point x="181" y="422"/>
      <point x="276" y="350" type="curve" smooth="yes"/>
      <point x="366" y="282"/>
      <point x="404" y="186"/>
      <point x="404" y="76" type="curve" smooth="yes"/>
      <point x="404" y="-34"/>
      <point x="366" y="-74"/>
    </contour>
    <contour>
      <point x="549" y="736" type="line"/>
      <point x="549" y="-204" type="line"/>
      <point x="649" y="-129" type="line"/>
      <point x="649" y="811" type="line"/>
    </contour>
    <contour>
      <point x="803" y="-21" type="curve" smooth="yes"/>
      <point x="943" y="84"/>
      <point x="1011" y="236"/>
      <point x="1011" y="394" type="curve" smooth="yes"/>
      <point x="1011" y="544"/>
      <point x="943" y="600"/>
      <point x="803" y="495" type="curve" smooth="yes"/>
      <point x="673" y="397"/>
      <point x="631" y="268"/>
      <point x="631" y="107" type="curve" smooth="yes"/>
      <point x="631" y="-39"/>
      <point x="654" y="-133"/>
    </contour>
    <contour>
      <point x="783" y="44" type="curve" smooth="yes"/>
      <point x="688" y="-28"/>
      <point x="649" y="17"/>
      <point x="649" y="121" type="curve" smooth="yes"/>
      <point x="649" y="224"/>
      <point x="688" y="328"/>
      <point x="783" y="400" type="curve" smooth="yes"/>
      <point x="873" y="468"/>
      <point x="911" y="428"/>
      <point x="911" y="318" type="curve" smooth="yes"/>
      <point x="911" y="208"/>
      <point x="873" y="112"/>
    </contour>
  </outline>
</glyph>
<glyph name="b_c.liga.alt1" format="2">
  <advance width="1040"/>
  <outline>
    <contour>
      <point x="42" y="938" type="line"/>
      <point x="42" y="138" type="line"/>
      <point x="142" y="68" type="line"/>
      <point x="142" y="868" type="line"/>
    </contour>
    <contour>
      <point x="296" y="-47" type="curve" smooth="yes"/>
      <point x="436" y="-145"/>
      <point x="504" y="-93"/>
      <point x="504" y="65" type="curve" smooth="yes"/>
      <point x="504" y="215"/>
      <point x="436" y="371"/>
      <point x="296" y="469" type="curve" smooth="yes"/>
      <point x="166" y="560"/>
      <point x="124" y="492"/>
      <point x="124" y="331" type="curve" smooth="yes"/>
      <point x="124" y="185"/>
      <point x="147" y="57"/>
    </contour>
    <contour>
      <point x="276" y="47" type="curve" smooth="yes"/>
      <point x="181" y="113"/>
      <point x="142" y="214"/>
      <point x="142" y="318" type="curve" smooth="yes"/>
      <point x="142" y="421"/>
      <point x="181" y="469"/>
      <point x="276" y="403" type="curve" smooth="yes"/>
      <point x="366" y="340"/>
      <point x="404" y="245"/>
      <point x="404" y="135" type="curve" smooth="yes"/>
      <point x="404" y="25"/>
      <point x="366" y="-16"/>
    </contour>
    <contour>
      <point x="1006" y="-22" type="curve"/>
      <point x="906" y="59" type="line"/>
      <point x="897" y="19"/>
      <point x="862" y="-30"/>
      <point x="772" y="33" type="curve" smooth="yes"/>
      <point x="682" y="96"/>
      <point x="634" y="202"/>
      <point x="634" y="306" type="curve" smooth="yes"/>
      <point x="634" y="409"/>
      <point x="682" y="452"/>
      <point x="772" y="389" type="curve" smooth="yes"/>
      <point x="862" y="326"/>
      <point x="903" y="222"/>
      <point x="907" y="157" type="curve"/>
      <point x="1007" y="100" type="line"/>
      <point x="991" y="227"/>
      <point x="912" y="371"/>
      <point x="772" y="469" type="curve" smooth="yes"/>
      <point x="632" y="567"/>
      <point x="534" y="537"/>
      <point x="534" y="376" type="curve" smooth="yes"/>
      <point x="534" y="230"/>
      <point x="629" y="53"/>
      <point x="772" y="-47" type="curve" smooth="yes"/>
      <point x="896" y="-135"/>
      <point x="986" y="-117"/>
    </contour>
  </outline>
</glyph>
<glyph name="b_c.liga.alt3" format="2">
  <advance width="1040"/>
  <outline>
    <contour>
      <point x="42" y="595" type="line"/>
      <point x="42" y="-205" type="line"/>
      <point x="142" y="-135" type="line"/>
      <point x="142" y="665" type="line"/>
    </contour>
    <contour>
      <point x="296" y="-35" type="curve" smooth="yes"/>
      <point x="436" y="63"/>
      <point x="504" y="210"/>
      <point x="504" y="368" type="curve" smooth="yes"/>
      <point x="504" y="518"/>
      <point x="436" y="579"/>
      <point x="296" y="481" type="curve" smooth="yes"/>
      <point x="166" y="390"/>
      <point x="124" y="263"/>
      <point x="124" y="102" type="curve" smooth="yes"/>
      <point x="124" y="-44"/>
      <point x="147" y="-139"/>
    </contour>
    <contour>
      <point x="276" y="31" type="curve" smooth="yes"/>
      <point x="181" y="-36"/>
      <point x="142" y="11"/>
      <point x="142" y="115" type="curve" smooth="yes"/>
      <point x="142" y="218"/>
      <point x="181" y="320"/>
      <point x="276" y="387" type="curve" smooth="yes"/>
      <point x="366" y="450"/>
      <point x="404" y="408"/>
      <point x="404" y="298" type="curve" smooth="yes"/>
      <point x="404" y="188"/>
      <point x="366" y="94"/>
    </contour>
    <contour>
      <point x="1006" y="-42" type="curve"/>
      <point x="906" y="39" type="line"/>
      <point x="897" y="-1"/>
      <point x="862" y="-50"/>
      <point x="772" y="13" type="curve" smooth="yes"/>
      <point x="682" y="76"/>
      <point x="634" y="182"/>
      <point x="634" y="286" type="curve" smooth="yes"/>
      <point x="634" y="389"/>
      <point x="682" y="432"/>
      <point x="772" y="369" type="curve" smooth="yes"/>
      <point x="862" y="306"/>
      <point x="903" y="202"/>
      <point x="907" y="137" type="curve"/>
      <point x="1007" y="80" type="line"/>
      <point x="991" y="207"/>
      <point x="912" y="351"/>
      <point x="772" y="449" type="curve" smooth="yes"/>
      <point x="632" y="547"/>
      <point x="534" y="517"/>
      <point x="534" y="356" type="curve" smooth="yes"/>
      <point x="534" y="210"/>
      <point x="629" y="33"/>
      <point x="772" y="-67" type="curve" smooth="yes"/>
      <point x="896" y="-155"/>
      <point x="986" y="-137"/>
    </contour>
  </outline>
</glyph>
<glyph name="b_c.liga" format="2">
  <advance width="1040"/>
  <outline>
    <contour>
      <point x="42" y="918" type="line"/>
      <point x="42" y="118" type="line"/>
      <point x="142" y="48" type="line"/>
      <point x="142" y="848" type="line"/>
    </contour>
    <contour>
      <point x="296" y="-67" type="curve" smooth="yes"/>
      <point x="436" y="-165"/>
      <point x="504" y="-113"/>
      <point x="504" y="45" type="curve" smooth="yes"/>
      <point x="504" y="195"/>
      <point x="436" y="351"/>
      <point x="296" y="449" type="curve" smooth="yes"/>
      <point x="166" y="540"/>
      <point x="124" y="472"/>
      <point x="124" y="311" type="curve" smooth="yes"/>
      <point x="124" y="165"/>
      <point x="147" y="37"/>
    </contour>
    <contour>
      <point x="276" y="27" type="curve" smooth="yes"/>
      <point x="181" y="93"/>
      <point x="142" y="194"/>
      <point x="142" y="298" type="curve" smooth="yes"/>
      <point x="142" y="401"/>
      <point x="181" y="449"/>
      <point x="276" y="383" type="curve" smooth="yes"/>
      <point x="366" y="320"/>
      <point x="404" y="225"/>
      <point x="404" y="115" type="curve" smooth="yes"/>
      <point x="404" y="5"/>
      <point x="366" y="-36"/>
    </contour>
    <contour>
      <point x="1006" y="288" type="curve"/>
      <point x="906" y="229" type="line"/>
      <point x="897" y="176"/>
      <point x="862" y="78"/>
      <point x="772" y="15" type="curve" smooth="yes"/>
      <point x="682" y="-48"/>
      <point x="634" y="-9"/>
      <point x="634" y="95" type="curve" smooth="yes"/>
      <point x="634" y="198"/>
      <point x="682" y="308"/>
      <point x="772" y="371" type="curve" smooth="yes"/>
      <point x="862" y="434"/>
      <point x="903" y="388"/>
      <point x="907" y="328" type="curve"/>
      <point x="1007" y="411" type="line"/>
      <point x="991" y="516"/>
      <point x="912" y="549"/>
      <point x="772" y="451" type="curve" smooth="yes"/>
      <point x="632" y="353"/>
      <point x="534" y="186"/>
      <point x="534" y="25" type="curve" smooth="yes"/>
      <point x="534" y="-121"/>
      <point x="629" y="-165"/>
      <point x="772" y="-65" type="curve" smooth="yes"/>
      <point x="896" y="21"/>
      <point x="986" y="165"/>
    </contour>
  </outline>
</glyph>
<glyph name="c.fina.alt" format="2">
  <advance width="539"/>
  <outline>
    <contour>
      <point x="505" y="16" type="curve"/>
      <point x="405" y="98" type="line"/>
      <point x="396" y="57"/>
      <point x="361" y="8"/>
      <point x="271" y="71" type="curve" smooth="yes"/>
      <point x="181" y="134"/>
      <point x="133" y="241"/>
      <point x="133" y="345" type="curve" smooth="yes"/>
      <point x="133" y="448"/>
      <point x="181" y="490"/>
      <point x="271" y="427" type="curve" smooth="yes"/>
      <point x="361" y="364"/>
      <point x="402" y="261"/>
      <point x="406" y="195" type="curve"/>
      <point x="506" y="138" type="line"/>
      <point x="490" y="266"/>
      <point x="411" y="409"/>
      <point x="271" y="507" type="curve" smooth="yes"/>
      <point x="131" y="605"/>
      <point x="33" y="576"/>
      <point x="33" y="415" type="curve" smooth="yes"/>
      <point x="33" y="269"/>
      <point x="128" y="91"/>
      <point x="271" y="-9" type="curve" smooth="yes"/>
      <point x="395" y="-96"/>
      <point x="485" y="-78"/>
    </contour>
  </outline>
</glyph>
<glyph name="c.fina" format="2">
  <advance width="539"/>
  <outline>
    <contour>
      <point x="505" y="346" type="curve"/>
      <point x="405" y="288" type="line"/>
      <point x="396" y="235"/>
      <point x="361" y="136"/>
      <point x="271" y="73" type="curve" smooth="yes"/>
      <point x="181" y="10"/>
      <point x="133" y="49"/>
      <point x="133" y="153" type="curve" smooth="yes"/>
      <point x="133" y="256"/>
      <point x="181" y="366"/>
      <point x="271" y="429" type="curve" smooth="yes"/>
      <point x="361" y="492"/>
      <point x="402" y="447"/>
      <point x="406" y="387" type="curve"/>
      <point x="506" y="470" type="line"/>
      <point x="490" y="574"/>
      <point x="411" y="607"/>
      <point x="271" y="509" type="curve" smooth="yes"/>
      <point x="131" y="411"/>
      <point x="33" y="244"/>
      <point x="33" y="83" type="curve" smooth="yes"/>
      <point x="33" y="-63"/>
      <point x="128" y="-107"/>
      <point x="271" y="-7" type="curve" smooth="yes"/>
      <point x="395" y="80"/>
      <point x="485" y="224"/>
    </contour>
  </outline>
</glyph>
<glyph name="c_c.liga.alt1" format="2">
  <advance width="1042"/>
  <outline>
    <contour>
      <point x="505" y="56" type="curve"/>
      <point x="405" y="138" type="line"/>
      <point x="396" y="97"/>
      <point x="361" y="48"/>
      <point x="271" y="111" type="curve" smooth="yes"/>
      <point x="181" y="174"/>
      <point x="133" y="280"/>
      <point x="133" y="384" type="curve" smooth="yes"/>
      <point x="133" y="487"/>
      <point x="181" y="530"/>
      <point x="271" y="467" type="curve" smooth="yes"/>
      <point x="361" y="404"/>
      <point x="402" y="301"/>
      <point x="406" y="235" type="curve"/>
      <point x="506" y="178" type="line"/>
      <point x="490" y="305"/>
      <point x="411" y="449"/>
      <point x="271" y="547" type="curve" smooth="yes"/>
      <point x="131" y="645"/>
      <point x="33" y="615"/>
      <point x="33" y="454" type="curve" smooth="yes"/>
      <point x="33" y="308"/>
      <point x="128" y="131"/>
      <point x="271" y="31" type="curve" smooth="yes"/>
      <point x="395" y="-56"/>
      <point x="485" y="-38"/>
    </contour>
    <contour>
      <point x="1008" y="59" type="curve"/>
      <point x="908" y="141" type="line"/>
      <point x="899" y="100"/>
      <point x="864" y="51"/>
      <point x="774" y="114" type="curve" smooth="yes"/>
      <point x="684" y="177"/>
      <point x="636" y="283"/>
      <point x="636" y="387" type="curve" smooth="yes"/>
      <point x="636" y="490"/>
      <point x="684" y="533"/>
      <point x="774" y="470" type="curve" smooth="yes"/>
      <point x="864" y="407"/>
      <point x="905" y="304"/>
      <point x="909" y="238" type="curve"/>
      <point x="1009" y="181" type="line"/>
      <point x="993" y="309"/>
      <point x="914" y="452"/>
      <point x="774" y="550" type="curve" smooth="yes"/>
      <point x="634" y="648"/>
      <point x="536" y="618"/>
      <point x="536" y="457" type="curve" smooth="yes"/>
      <point x="536" y="311"/>
      <point x="631" y="134"/>
      <point x="774" y="34" type="curve" smooth="yes"/>
      <point x="898" y="-53"/>
      <point x="988" y="-35"/>
    </contour>
  </outline>
</glyph>
<glyph name="c_c.liga.alt2" format="2">
  <advance width="1042"/>
  <outline>
    <contour>
      <point x="505" y="484" type="curve"/>
      <point x="405" y="426" type="line"/>
      <point x="396" y="373"/>
      <point x="361" y="275"/>
      <point x="271" y="212" type="curve" smooth="yes"/>
      <point x="181" y="148"/>
      <point x="133" y="187"/>
      <point x="133" y="291" type="curve" smooth="yes"/>
      <point x="133" y="394"/>
      <point x="181" y="504"/>
      <point x="271" y="568" type="curve" smooth="yes"/>
      <point x="361" y="631"/>
      <point x="402" y="585"/>
      <point x="406" y="525" type="curve"/>
      <point x="506" y="608" type="line"/>
      <point x="490" y="712"/>
      <point x="411" y="746"/>
      <point x="271" y="648" type="curve" smooth="yes"/>
      <point x="131" y="549"/>
      <point x="33" y="382"/>
      <point x="33" y="221" type="curve" smooth="yes"/>
      <point x="33" y="75"/>
      <point x="128" y="31"/>
      <point x="271" y="132" type="curve" smooth="yes"/>
      <point x="395" y="218"/>
      <point x="485" y="362"/>
    </contour>
    <contour>
      <point x="1008" y="484" type="curve"/>
      <point x="908" y="426" type="line"/>
      <point x="899" y="372"/>
      <point x="864" y="274"/>
      <point x="774" y="211" type="curve" smooth="yes"/>
      <point x="684" y="148"/>
      <point x="636" y="187"/>
      <point x="636" y="291" type="curve" smooth="yes"/>
      <point x="636" y="394"/>
      <point x="684" y="504"/>
      <point x="774" y="567" type="curve" smooth="yes"/>
      <point x="864" y="630"/>
      <point x="905" y="584"/>
      <point x="909" y="524" type="curve"/>
      <point x="1009" y="607" type="line"/>
      <point x="993" y="713"/>
      <point x="914" y="745"/>
      <point x="774" y="647" type="curve" smooth="yes"/>
      <point x="634" y="549"/>
      <point x="536" y="382"/>
      <point x="536" y="221" type="curve" smooth="yes"/>
      <point x="536" y="75"/>
      <point x="631" y="31"/>
      <point x="774" y="131" type="curve" smooth="yes"/>
      <point x="898" y="218"/>
      <point x="988" y="362"/>
    </contour>
  </outline>
</glyph>
<glyph name="c_c.liga.alt3" format="2">
  <advance width="1042"/>
  <outline>
    <contour>
      <point x="505" y="278" type="curve"/>
      <point x="405" y="220" type="line"/>
      <point x="396" y="166"/>
      <point x="361" y="68"/>
      <point x="271" y="5" type="curve" smooth="yes"/>
      <point x="181" y="-58"/>
      <point x="133" y="-19"/>
      <point x="133" y="85" type="curve" smooth="yes"/>
      <point x="133" y="188"/>
      <point x="181" y="298"/>
      <point x="271" y="361" type="curve" smooth="yes"/>
      <point x="361" y="424"/>
      <point x="402" y="379"/>
      <point x="406" y="318" type="curve"/>
      <point x="506" y="401" type="line"/>
      <point x="490" y="506"/>
      <point x="411" y="539"/>
      <point x="271" y="441" type="curve" smooth="yes"/>
      <point x="131" y="343"/>
      <point x="33" y="176"/>
      <point x="33" y="15" type="curve" smooth="yes"/>
      <point x="33" y="-131"/>
      <point x="128" y="-175"/>
      <point x="271" y="-75" type="curve" smooth="yes"/>
      <point x="395" y="12"/>
      <point x="485" y="156"/>
    </contour>
    <contour>
      <point x="1008" y="-41" type="curve"/>
      <point x="908" y="41" type="line"/>
      <point x="899" y="1"/>
      <point x="864" y="-48"/>
      <point x="774" y="15" type="curve" smooth="yes"/>
      <point x="684" y="78"/>
      <point x="636" y="183"/>
      <point x="636" y="287" type="curve" smooth="yes"/>
      <point x="636" y="390"/>
      <point x="684" y="434"/>
      <point x="774" y="371" type="curve" smooth="yes"/>
      <point x="864" y="308"/>
      <point x="905" y="204"/>
      <point x="909" y="139" type="curve"/>
      <point x="1009" y="82" type="line"/>
      <point x="993" y="209"/>
      <point x="914" y="353"/>
      <point x="774" y="451" type="curve" smooth="yes"/>
      <point x="634" y="549"/>
      <point x="536" y="518"/>
      <point x="536" y="357" type="curve" smooth="yes"/>
      <point x="536" y="211"/>
      <point x="631" y="34"/>
      <point x="774" y="-65" type="curve" smooth="yes"/>
      <point x="898" y="-153"/>
      <point x="988" y="-135"/>
    </contour>
  </outline>
</glyph>
<glyph name="c_c.liga" format="2">
  <advance width="1042"/>
  <outline>
    <contour>
      <point x="505" y="-52" type="curve"/>
      <point x="405" y="30" type="line"/>
      <point x="396" y="-11"/>
      <point x="361" y="-60"/>
      <point x="271" y="3" type="curve" smooth="yes"/>
      <point x="181" y="66"/>
      <point x="133" y="172"/>
      <point x="133" y="276" type="curve" smooth="yes"/>
      <point x="133" y="379"/>
      <point x="181" y="422"/>
      <point x="271" y="359" type="curve" smooth="yes"/>
      <point x="361" y="296"/>
      <point x="402" y="193"/>
      <point x="406" y="127" type="curve"/>
      <point x="506" y="70" type="line"/>
      <point x="490" y="197"/>
      <point x="411" y="341"/>
      <point x="271" y="439" type="curve" smooth="yes"/>
      <point x="131" y="537"/>
      <point x="33" y="507"/>
      <point x="33" y="346" type="curve" smooth="yes"/>
      <point x="33" y="200"/>
      <point x="128" y="23"/>
      <point x="271" y="-77" type="curve" smooth="yes"/>
      <point x="395" y="-164"/>
      <point x="485" y="-146"/>
    </contour>
    <contour>
      <point x="1008" y="289" type="curve"/>
      <point x="908" y="231" type="line"/>
      <point x="899" y="178"/>
      <point x="864" y="80"/>
      <point x="774" y="17" type="curve" smooth="yes"/>
      <point x="684" y="-46"/>
      <point x="636" y="-8"/>
      <point x="636" y="96" type="curve" smooth="yes"/>
      <point x="636" y="199"/>
      <point x="684" y="310"/>
      <point x="774" y="373" type="curve" smooth="yes"/>
      <point x="864" y="436"/>
      <point x="905" y="390"/>
      <point x="909" y="330" type="curve"/>
      <point x="1009" y="413" type="line"/>
      <point x="993" y="518"/>
      <point x="914" y="551"/>
      <point x="774" y="453" type="curve" smooth="yes"/>
      <point x="634" y="355"/>
      <point x="536" y="187"/>
      <point x="536" y="26" type="curve" smooth="yes"/>
      <point x="536" y="-120"/>
      <point x="631" y="-164"/>
      <point x="774" y="-63" type="curve" smooth="yes"/>
      <point x="898" y="23"/>
      <point x="988" y="167"/>
    </contour>
  </outline>
</glyph>
<glyph name="c_d.liga.alt1" format="2">
  <advance width="1057"/>
  <outline>
    <contour>
      <point x="505" y="30" type="curve"/>
      <point x="405" y="112" type="line"/>
      <point x="396" y="71"/>
      <point x="361" y="21"/>
      <point x="271" y="84" type="curve" smooth="yes"/>
      <point x="181" y="147"/>
      <point x="133" y="254"/>
      <point x="133" y="358" type="curve" smooth="yes"/>
      <point x="133" y="461"/>
      <point x="181" y="503"/>
      <point x="271" y="440" type="curve" smooth="yes"/>
      <point x="361" y="377"/>
      <point x="402" y="275"/>
      <point x="406" y="209" type="curve"/>
      <point x="506" y="152" type="line"/>
      <point x="490" y="279"/>
      <point x="411" y="422"/>
      <point x="271" y="520" type="curve" smooth="yes"/>
      <point x="131" y="618"/>
      <point x="33" y="589"/>
      <point x="33" y="428" type="curve" smooth="yes"/>
      <point x="33" y="282"/>
      <point x="128" y="104"/>
      <point x="271" y="4" type="curve" smooth="yes"/>
      <point x="395" y="-82"/>
      <point x="485" y="-64"/>
    </contour>
    <contour>
      <point x="1015" y="679" type="line"/>
      <point x="915" y="749" type="line"/>
      <point x="915" y="-51" type="line"/>
      <point x="1015" y="-121" type="line"/>
    </contour>
    <contour>
      <point x="761" y="48" type="curve" smooth="yes"/>
      <point x="910" y="-56"/>
      <point x="933" y="39"/>
      <point x="933" y="185" type="curve" smooth="yes"/>
      <point x="933" y="346"/>
      <point x="891" y="473"/>
      <point x="761" y="564" type="curve" smooth="yes"/>
      <point x="621" y="662"/>
      <point x="553" y="601"/>
      <point x="553" y="451" type="curve" smooth="yes"/>
      <point x="553" y="293"/>
      <point x="621" y="146"/>
    </contour>
    <contour>
      <point x="781" y="114" type="curve"/>
      <point x="691" y="177"/>
      <point x="653" y="271"/>
      <point x="653" y="381" type="curve" smooth="yes"/>
      <point x="653" y="491"/>
      <point x="691" y="533"/>
      <point x="781" y="470" type="curve" smooth="yes"/>
      <point x="876" y="403"/>
      <point x="915" y="302"/>
      <point x="915" y="199" type="curve" smooth="yes"/>
      <point x="915" y="95"/>
      <point x="876" y="47"/>
    </contour>
  </outline>
</glyph>
<glyph name="c_d.liga.alt3" format="2">
  <advance width="1057"/>
  <outline>
    <contour>
      <point x="505" y="310" type="curve"/>
      <point x="405" y="252" type="line"/>
      <point x="396" y="198"/>
      <point x="361" y="99"/>
      <point x="271" y="36" type="curve" smooth="yes"/>
      <point x="181" y="-27"/>
      <point x="133" y="13"/>
      <point x="133" y="117" type="curve" smooth="yes"/>
      <point x="133" y="220"/>
      <point x="181" y="329"/>
      <point x="271" y="392" type="curve" smooth="yes"/>
      <point x="361" y="455"/>
      <point x="402" y="411"/>
      <point x="406" y="350" type="curve"/>
      <point x="506" y="433" type="line"/>
      <point x="490" y="538"/>
      <point x="411" y="570"/>
      <point x="271" y="472" type="curve" smooth="yes"/>
      <point x="131" y="374"/>
      <point x="33" y="208"/>
      <point x="33" y="47" type="curve" smooth="yes"/>
      <point x="33" y="-99"/>
      <point x="128" y="-144"/>
      <point x="271" y="-44" type="curve" smooth="yes"/>
      <point x="395" y="44"/>
      <point x="485" y="188"/>
    </contour>
    <contour>
      <point x="1015" y="730" type="line"/>
      <point x="915" y="800" type="line"/>
      <point x="915" y="-101" type="line"/>
      <point x="1015" y="-171" type="line"/>
    </contour>
    <contour>
      <point x="761" y="-2" type="curve" smooth="yes"/>
      <point x="910" y="-106"/>
      <point x="933" y="-11"/>
      <point x="933" y="135" type="curve" smooth="yes"/>
      <point x="933" y="296"/>
      <point x="891" y="423"/>
      <point x="761" y="514" type="curve" smooth="yes"/>
      <point x="621" y="612"/>
      <point x="553" y="551"/>
      <point x="553" y="401" type="curve" smooth="yes"/>
      <point x="553" y="243"/>
      <point x="621" y="96"/>
    </contour>
    <contour>
      <point x="781" y="64" type="curve" smooth="yes"/>
      <point x="691" y="127"/>
      <point x="653" y="221"/>
      <point x="653" y="331" type="curve" smooth="yes"/>
      <point x="653" y="441"/>
      <point x="691" y="483"/>
      <point x="781" y="420" type="curve" smooth="yes"/>
      <point x="876" y="353"/>
      <point x="915" y="252"/>
      <point x="915" y="149" type="curve" smooth="yes"/>
      <point x="915" y="45"/>
      <point x="876" y="-3"/>
    </contour>
  </outline>
</glyph>
<glyph name="c_d.liga" format="2">
  <advance width="1057"/>
  <outline>
    <contour>
      <point x="505" y="-20" type="curve"/>
      <point x="405" y="62" type="line"/>
      <point x="396" y="21"/>
      <point x="361" y="-29"/>
      <point x="271" y="34" type="curve" smooth="yes"/>
      <point x="181" y="97"/>
      <point x="133" y="204"/>
      <point x="133" y="308" type="curve" smooth="yes"/>
      <point x="133" y="411"/>
      <point x="181" y="453"/>
      <point x="271" y="390" type="curve" smooth="yes"/>
      <point x="361" y="327"/>
      <point x="402" y="225"/>
      <point x="406" y="159" type="curve"/>
      <point x="506" y="102" type="line"/>
      <point x="490" y="229"/>
      <point x="411" y="372"/>
      <point x="271" y="470" type="curve" smooth="yes"/>
      <point x="131" y="568"/>
      <point x="33" y="539"/>
      <point x="33" y="378" type="curve" smooth="yes"/>
      <point x="33" y="232"/>
      <point x="128" y="54"/>
      <point x="271" y="-46" type="curve" smooth="yes"/>
      <point x="395" y="-132"/>
      <point x="485" y="-114"/>
    </contour>
    <contour>
      <point x="1015" y="952" type="line"/>
      <point x="915" y="882" type="line"/>
      <point x="915" y="82" type="line"/>
      <point x="1015" y="152" type="line"/>
    </contour>
    <contour>
      <point x="761" y="-34" type="curve" smooth="yes"/>
      <point x="910" y="70"/>
      <point x="933" y="198"/>
      <point x="933" y="344" type="curve" smooth="yes"/>
      <point x="933" y="505"/>
      <point x="891" y="573"/>
      <point x="761" y="482" type="curve" smooth="yes"/>
      <point x="621" y="384"/>
      <point x="553" y="228"/>
      <point x="553" y="78" type="curve" smooth="yes"/>
      <point x="553" y="-80"/>
      <point x="621" y="-132"/>
    </contour>
    <contour>
      <point x="781" y="60" type="curve" smooth="yes"/>
      <point x="691" y="-3"/>
      <point x="653" y="38"/>
      <point x="653" y="148" type="curve" smooth="yes"/>
      <point x="653" y="258"/>
      <point x="691" y="353"/>
      <point x="781" y="416" type="curve" smooth="yes"/>
      <point x="876" y="482"/>
      <point x="915" y="435"/>
      <point x="915" y="332" type="curve" smooth="yes"/>
      <point x="915" y="228"/>
      <point x="876" y="126"/>
    </contour>
  </outline>
</glyph>
<glyph name="d.fina.alt" format="2">
  <advance width="537"/>
  <outline>
    <contour>
      <point x="495" y="730" type="line"/>
      <point x="395" y="800" type="line"/>
      <point x="395" y="-92" type="line"/>
      <point x="495" y="-162" type="line"/>
    </contour>
    <contour>
      <point x="241" y="8" type="curve" smooth="yes"/>
      <point x="390" y="-96"/>
      <point x="413" y="0"/>
      <point x="413" y="146" type="curve" smooth="yes"/>
      <point x="413" y="307"/>
      <point x="371" y="433"/>
      <point x="241" y="524" type="curve" smooth="yes"/>
      <point x="101" y="622"/>
      <point x="33" y="562"/>
      <point x="33" y="412" type="curve" smooth="yes"/>
      <point x="33" y="254"/>
      <point x="101" y="106"/>
    </contour>
    <contour>
      <point x="261" y="74" type="curve" smooth="yes"/>
      <point x="171" y="137"/>
      <point x="133" y="232"/>
      <point x="133" y="342" type="curve" smooth="yes"/>
      <point x="133" y="452"/>
      <point x="171" y="493"/>
      <point x="261" y="430" type="curve" smooth="yes"/>
      <point x="356" y="364"/>
      <point x="395" y="261"/>
      <point x="395" y="158" type="curve" smooth="yes"/>
      <point x="395" y="54"/>
      <point x="356" y="8"/>
    </contour>
  </outline>
</glyph>
<glyph name="d.fina" format="2">
  <advance width="537"/>
  <outline>
    <contour>
      <point x="495" y="962" type="line"/>
      <point x="395" y="892" type="line"/>
      <point x="395" y="92" type="line"/>
      <point x="495" y="162" type="line"/>
    </contour>
    <contour>
      <point x="241" y="-24" type="curve" smooth="yes"/>
      <point x="390" y="80"/>
      <point x="413" y="208"/>
      <point x="413" y="354" type="curve" smooth="yes"/>
      <point x="413" y="515"/>
      <point x="371" y="583"/>
      <point x="241" y="492" type="curve" smooth="yes"/>
      <point x="101" y="394"/>
      <point x="33" y="238"/>
      <point x="33" y="88" type="curve" smooth="yes"/>
      <point x="33" y="-70"/>
      <point x="101" y="-122"/>
    </contour>
    <contour>
      <point x="261" y="70" type="curve" smooth="yes"/>
      <point x="171" y="7"/>
      <point x="133" y="48"/>
      <point x="133" y="158" type="curve" smooth="yes"/>
      <point x="133" y="268"/>
      <point x="171" y="363"/>
      <point x="261" y="426" type="curve" smooth="yes"/>
      <point x="356" y="492"/>
      <point x="395" y="445"/>
      <point x="395" y="342" type="curve" smooth="yes"/>
      <point x="395" y="238"/>
      <point x="356" y="136"/>
    </contour>
  </outline>
</glyph>
<glyph name="d_d.liga.alt1" format="2">
  <advance width="1049"/>
  <outline>
    <contour>
      <point x="495" y="731" type="line"/>
      <point x="395" y="801" type="line"/>
      <point x="395" y="1" type="line"/>
      <point x="495" y="-69" type="line"/>
    </contour>
    <contour>
      <point x="241" y="100" type="curve" smooth="yes"/>
      <point x="390" y="-4"/>
      <point x="413" y="92"/>
      <point x="413" y="238" type="curve" smooth="yes"/>
      <point x="413" y="399"/>
      <point x="371" y="525"/>
      <point x="241" y="616" type="curve" smooth="yes"/>
      <point x="101" y="714"/>
      <point x="33" y="654"/>
      <point x="33" y="504" type="curve" smooth="yes"/>
      <point x="33" y="346"/>
      <point x="101" y="198"/>
    </contour>
    <contour>
      <point x="261" y="166" type="curve" smooth="yes"/>
      <point x="171" y="229"/>
      <point x="133" y="324"/>
      <point x="133" y="434" type="curve" smooth="yes"/>
      <point x="133" y="544"/>
      <point x="171" y="585"/>
      <point x="261" y="522" type="curve" smooth="yes"/>
      <point x="356" y="456"/>
      <point x="395" y="354"/>
      <point x="395" y="251" type="curve" smooth="yes"/>
      <point x="395" y="147"/>
      <point x="356" y="100"/>
    </contour>
    <contour>
      <point x="1007" y="731" type="line"/>
      <point x="907" y="801" type="line"/>
      <point x="907" y="1" type="line"/>
      <point x="1007" y="-69" type="line"/>
    </contour>
    <contour>
      <point x="753" y="101" type="curve" smooth="yes"/>
      <point x="902" y="-4"/>
      <point x="925" y="93"/>
      <point x="925" y="239" type="curve" smooth="yes"/>
      <point x="925" y="400"/>
      <point x="883" y="526"/>
      <point x="753" y="617" type="curve" smooth="yes"/>
      <point x="613" y="715"/>
      <point x="545" y="655"/>
      <point x="545" y="505" type="curve" smooth="yes"/>
      <point x="545" y="347"/>
      <point x="613" y="199"/>
    </contour>
    <contour>
      <point x="773" y="167" type="curve" smooth="yes"/>
      <point x="683" y="230"/>
      <point x="645" y="325"/>
      <point x="645" y="435" type="curve" smooth="yes"/>
      <point x="645" y="545"/>
      <point x="683" y="586"/>
      <point x="773" y="523" type="curve" smooth="yes"/>
      <point x="868" y="457"/>
      <point x="907" y="354"/>
      <point x="907" y="251" type="curve"/>
      <point x="907" y="147"/>
      <point x="868" y="101"/>
    </contour>
  </outline>
</glyph>
<glyph name="d_d.liga.alt2" format="2">
  <advance width="1049"/>
  <outline>
    <contour>
      <point x="495" y="985" type="line"/>
      <point x="395" y="915" type="line"/>
      <point x="395" y="115" type="line"/>
      <point x="495" y="185" type="line"/>
    </contour>
    <contour>
      <point x="241" y="-2" type="curve" smooth="yes"/>
      <point x="390" y="103"/>
      <point x="413" y="231"/>
      <point x="413" y="377" type="curve" smooth="yes"/>
      <point x="413" y="538"/>
      <point x="371" y="606"/>
      <point x="241" y="514" type="curve" smooth="yes"/>
      <point x="101" y="416"/>
      <point x="33" y="261"/>
      <point x="33" y="111" type="curve" smooth="yes"/>
      <point x="33" y="-47"/>
      <point x="101" y="-100"/>
    </contour>
    <contour>
      <point x="261" y="92" type="curve" smooth="yes"/>
      <point x="171" y="29"/>
      <point x="133" y="71"/>
      <point x="133" y="181" type="curve" smooth="yes"/>
      <point x="133" y="291"/>
      <point x="171" y="385"/>
      <point x="261" y="448" type="curve" smooth="yes"/>
      <point x="356" y="516"/>
      <point x="395" y="468"/>
      <point x="395" y="365" type="curve" smooth="yes"/>
      <point x="395" y="261"/>
      <point x="356" y="160"/>
    </contour>
    <contour>
      <point x="1007" y="984" type="line"/>
      <point x="907" y="914" type="line"/>
      <point x="907" y="114" type="line"/>
      <point x="1007" y="184" type="line"/>
    </contour>
    <contour>
      <point x="753" y="-1" type="curve" smooth="yes"/>
      <point x="902" y="102"/>
      <point x="925" y="231"/>
      <point x="925" y="377" type="curve" smooth="yes"/>
      <point x="925" y="538"/>
      <point x="883" y="606"/>
      <point x="753" y="515" type="curve" smooth="yes"/>
      <point x="613" y="416"/>
      <point x="545" y="261"/>
      <point x="545" y="111" type="curve" smooth="yes"/>
      <point x="545" y="-47"/>
      <point x="613" y="-100"/>
    </contour>
    <contour>
      <point x="773" y="93" type="curve" smooth="yes"/>
      <point x="683" y="29"/>
      <point x="645" y="71"/>
      <point x="645" y="181" type="curve" smooth="yes"/>
      <point x="645" y="291"/>
      <point x="683" y="385"/>
      <point x="773" y="449" type="curve" smooth="yes"/>
      <point x="868" y="516"/>
      <point x="907" y="467"/>
      <point x="907" y="364" type="curve"/>
      <point x="907" y="260"/>
      <point x="868" y="160"/>
    </contour>
  </outline>
</glyph>
<glyph name="d_d.liga.alt3" format="2">
  <advance width="1049"/>
  <outline>
    <contour>
      <point x="495" y="988" type="line"/>
      <point x="395" y="918" type="line"/>
      <point x="395" y="118" type="line"/>
      <point x="495" y="188" type="line"/>
    </contour>
    <contour>
      <point x="241" y="2" type="curve" smooth="yes"/>
      <point x="390" y="106"/>
      <point x="413" y="235"/>
      <point x="413" y="381" type="curve" smooth="yes"/>
      <point x="413" y="542"/>
      <point x="371" y="609"/>
      <point x="241" y="518" type="curve" smooth="yes"/>
      <point x="101" y="420"/>
      <point x="33" y="265"/>
      <point x="33" y="115" type="curve" smooth="yes"/>
      <point x="33" y="-43"/>
      <point x="101" y="-96"/>
    </contour>
    <contour>
      <point x="261" y="96" type="curve" smooth="yes"/>
      <point x="171" y="33"/>
      <point x="133" y="75"/>
      <point x="133" y="185" type="curve" smooth="yes"/>
      <point x="133" y="295"/>
      <point x="171" y="389"/>
      <point x="261" y="452" type="curve" smooth="yes"/>
      <point x="356" y="519"/>
      <point x="395" y="471"/>
      <point x="395" y="368" type="curve" smooth="yes"/>
      <point x="395" y="264"/>
      <point x="356" y="163"/>
    </contour>
    <contour>
      <point x="1007" y="740" type="line"/>
      <point x="907" y="810" type="line"/>
      <point x="907" y="-79" type="line"/>
      <point x="1007" y="-149" type="line"/>
    </contour>
    <contour>
      <point x="753" y="20" type="curve" smooth="yes"/>
      <point x="902" y="-84"/>
      <point x="925" y="12"/>
      <point x="925" y="158" type="curve" smooth="yes"/>
      <point x="925" y="319"/>
      <point x="883" y="445"/>
      <point x="753" y="536" type="curve" smooth="yes"/>
      <point x="613" y="634"/>
      <point x="545" y="574"/>
      <point x="545" y="424" type="curve" smooth="yes"/>
      <point x="545" y="266"/>
      <point x="613" y="118"/>
    </contour>
    <contour>
      <point x="773" y="86" type="curve" smooth="yes"/>
      <point x="683" y="149"/>
      <point x="645" y="244"/>
      <point x="645" y="354" type="curve" smooth="yes"/>
      <point x="645" y="464"/>
      <point x="683" y="505"/>
      <point x="773" y="442" type="curve" smooth="yes"/>
      <point x="868" y="376"/>
      <point x="907" y="274"/>
      <point x="907" y="171" type="curve"/>
      <point x="907" y="67"/>
      <point x="868" y="20"/>
    </contour>
  </outline>
</glyph>
<glyph name="d_d.liga" format="2">
  <advance width="1049"/>
  <outline>
    <contour>
      <point x="495" y="735" type="line"/>
      <point x="395" y="805" type="line"/>
      <point x="395" y="-65" type="line"/>
      <point x="495" y="-135" type="line"/>
    </contour>
    <contour>
      <point x="241" y="34" type="curve" smooth="yes"/>
      <point x="390" y="-70"/>
      <point x="413" y="26"/>
      <point x="413" y="172" type="curve" smooth="yes"/>
      <point x="413" y="333"/>
      <point x="371" y="459"/>
      <point x="241" y="550" type="curve" smooth="yes"/>
      <point x="101" y="648"/>
      <point x="33" y="588"/>
      <point x="33" y="438" type="curve" smooth="yes"/>
      <point x="33" y="280"/>
      <point x="101" y="132"/>
    </contour>
    <contour>
      <point x="261" y="100" type="curve" smooth="yes"/>
      <point x="171" y="163"/>
      <point x="133" y="258"/>
      <point x="133" y="368" type="curve" smooth="yes"/>
      <point x="133" y="478"/>
      <point x="171" y="519"/>
      <point x="261" y="456" type="curve" smooth="yes"/>
      <point x="356" y="390"/>
      <point x="395" y="288"/>
      <point x="395" y="185" type="curve" smooth="yes"/>
      <point x="395" y="81"/>
      <point x="356" y="34"/>
    </contour>
    <contour>
      <point x="1007" y="884" type="line"/>
      <point x="907" y="814" type="line"/>
      <point x="907" y="74" type="line"/>
      <point x="1007" y="144" type="line"/>
    </contour>
    <contour>
      <point x="753" y="-42" type="curve" smooth="yes"/>
      <point x="902" y="62"/>
      <point x="925" y="191"/>
      <point x="925" y="337" type="curve" smooth="yes"/>
      <point x="925" y="498"/>
      <point x="883" y="565"/>
      <point x="753" y="474" type="curve" smooth="yes"/>
      <point x="613" y="376"/>
      <point x="545" y="221"/>
      <point x="545" y="71" type="curve" smooth="yes"/>
      <point x="545" y="-87"/>
      <point x="613" y="-140"/>
    </contour>
    <contour>
      <point x="773" y="52" type="curve" smooth="yes"/>
      <point x="683" y="-11"/>
      <point x="645" y="31"/>
      <point x="645" y="141" type="curve" smooth="yes"/>
      <point x="645" y="251"/>
      <point x="683" y="345"/>
      <point x="773" y="408" type="curve" smooth="yes"/>
      <point x="868" y="475"/>
      <point x="907" y="427"/>
      <point x="907" y="324" type="curve"/>
      <point x="907" y="220"/>
      <point x="868" y="119"/>
    </contour>
  </outline>
</glyph>
<glyph name="e.fina.alt" format="2">
  <advance width="535"/>
  <outline>
    <contour>
      <point x="498" y="8" type="curve"/>
      <point x="408" y="83" type="line"/>
      <point x="393" y="16"/>
      <point x="332" y="24"/>
      <point x="269" y="71" type="curve" smooth="yes"/>
      <point x="209" y="116"/>
      <point x="133" y="207"/>
      <point x="133" y="350" type="curve" smooth="yes"/>
      <point x="133" y="480"/>
      <point x="189" y="483"/>
      <point x="272" y="425" type="curve" smooth="yes"/>
      <point x="347" y="372"/>
      <point x="386" y="306"/>
      <point x="399" y="224" type="curve"/>
      <point x="112" y="425" type="line"/>
      <point x="112" y="345" type="line"/>
      <point x="498" y="74" type="line"/>
      <point x="502" y="95"/>
      <point x="502" y="116"/>
      <point x="501" y="131" type="curve" smooth="yes"/>
      <point x="493" y="262"/>
      <point x="398" y="416"/>
      <point x="272" y="505" type="curve" smooth="yes"/>
      <point x="130" y="604"/>
      <point x="33" y="581"/>
      <point x="33" y="420" type="curve" smooth="yes"/>
      <point x="33" y="274"/>
      <point x="126" y="91"/>
      <point x="269" y="-9" type="curve" smooth="yes"/>
      <point x="385" y="-90"/>
      <point x="478" y="-82"/>
    </contour>
  </outline>
</glyph>
<glyph name="e.fina" format="2">
  <advance width="535"/>
  <outline>
    <contour>
      <point x="498" y="332" type="curve"/>
      <point x="408" y="281" type="line"/>
      <point x="393" y="192"/>
      <point x="332" y="114"/>
      <point x="269" y="73" type="curve" smooth="yes"/>
      <point x="209" y="34"/>
      <point x="133" y="19"/>
      <point x="133" y="162" type="curve" smooth="yes"/>
      <point x="133" y="292"/>
      <point x="189" y="373"/>
      <point x="272" y="431" type="curve" smooth="yes"/>
      <point x="347" y="484"/>
      <point x="386" y="472"/>
      <point x="399" y="408" type="curve"/>
      <point x="112" y="207" type="line"/>
      <point x="112" y="127" type="line"/>
      <point x="498" y="398" type="line"/>
      <point x="502" y="423"/>
      <point x="502" y="444"/>
      <point x="501" y="459" type="curve" smooth="yes"/>
      <point x="493" y="578"/>
      <point x="398" y="600"/>
      <point x="272" y="511" type="curve" smooth="yes"/>
      <point x="130" y="412"/>
      <point x="33" y="253"/>
      <point x="33" y="92" type="curve" smooth="yes"/>
      <point x="33" y="-54"/>
      <point x="126" y="-107"/>
      <point x="269" y="-7" type="curve" smooth="yes"/>
      <point x="385" y="74"/>
      <point x="478" y="214"/>
    </contour>
  </outline>
</glyph>
<glyph name="e_d.liga.alt3" format="2">
  <advance width="1053"/>
  <outline>
    <contour>
      <point x="498" y="284" type="curve"/>
      <point x="408" y="233" type="line"/>
      <point x="393" y="144"/>
      <point x="332" y="67"/>
      <point x="269" y="25" type="curve" smooth="yes"/>
      <point x="209" y="-14"/>
      <point x="133" y="-29"/>
      <point x="133" y="114" type="curve" smooth="yes"/>
      <point x="133" y="244"/>
      <point x="189" y="325"/>
      <point x="272" y="384" type="curve" smooth="yes"/>
      <point x="347" y="437"/>
      <point x="386" y="424"/>
      <point x="399" y="360" type="curve"/>
      <point x="112" y="160" type="line"/>
      <point x="112" y="80" type="line"/>
      <point x="498" y="350" type="line"/>
      <point x="502" y="376"/>
      <point x="502" y="397"/>
      <point x="501" y="411" type="curve" smooth="yes"/>
      <point x="493" y="530"/>
      <point x="398" y="552"/>
      <point x="272" y="464" type="curve" smooth="yes"/>
      <point x="130" y="364"/>
      <point x="33" y="205"/>
      <point x="33" y="44" type="curve" smooth="yes"/>
      <point x="33" y="-102"/>
      <point x="126" y="-155"/>
      <point x="269" y="-55" type="curve" smooth="yes"/>
      <point x="385" y="27"/>
      <point x="478" y="166"/>
    </contour>
    <contour>
      <point x="1011" y="731" type="line"/>
      <point x="911" y="800" type="line"/>
      <point x="911" y="-108" type="line"/>
      <point x="1011" y="-177" type="line"/>
    </contour>
    <contour>
      <point x="757" y="-8" type="curve" smooth="yes"/>
      <point x="906" y="-112"/>
      <point x="929" y="-17"/>
      <point x="929" y="129" type="curve" smooth="yes"/>
      <point x="929" y="290"/>
      <point x="887" y="417"/>
      <point x="757" y="508" type="curve" smooth="yes"/>
      <point x="617" y="606"/>
      <point x="549" y="545"/>
      <point x="549" y="395" type="curve" smooth="yes"/>
      <point x="549" y="237"/>
      <point x="617" y="90"/>
    </contour>
    <contour>
      <point x="777" y="58" type="curve" smooth="yes"/>
      <point x="687" y="121"/>
      <point x="649" y="215"/>
      <point x="649" y="325" type="curve" smooth="yes"/>
      <point x="649" y="435"/>
      <point x="687" y="477"/>
      <point x="777" y="414" type="curve" smooth="yes"/>
      <point x="872" y="347"/>
      <point x="911" y="245"/>
      <point x="911" y="142" type="curve" smooth="yes"/>
      <point x="911" y="38"/>
      <point x="872" y="-9"/>
    </contour>
  </outline>
</glyph>
<glyph name="e_d.liga" format="2">
  <advance width="1053"/>
  <outline>
    <contour>
      <point x="498" y="-39" type="curve"/>
      <point x="408" y="36" type="line"/>
      <point x="393" y="-32"/>
      <point x="332" y="-24"/>
      <point x="269" y="23" type="curve" smooth="yes"/>
      <point x="209" y="68"/>
      <point x="133" y="159"/>
      <point x="133" y="302" type="curve" smooth="yes"/>
      <point x="133" y="432"/>
      <point x="189" y="435"/>
      <point x="272" y="377" type="curve" smooth="yes"/>
      <point x="347" y="325"/>
      <point x="386" y="258"/>
      <point x="399" y="176" type="curve"/>
      <point x="112" y="377" type="line"/>
      <point x="112" y="297" type="line"/>
      <point x="498" y="27" type="line"/>
      <point x="502" y="47"/>
      <point x="502" y="68"/>
      <point x="501" y="84" type="curve" smooth="yes"/>
      <point x="493" y="214"/>
      <point x="398" y="369"/>
      <point x="272" y="457" type="curve" smooth="yes"/>
      <point x="130" y="556"/>
      <point x="33" y="533"/>
      <point x="33" y="372" type="curve" smooth="yes"/>
      <point x="33" y="226"/>
      <point x="126" y="43"/>
      <point x="269" y="-57" type="curve" smooth="yes"/>
      <point x="385" y="-138"/>
      <point x="478" y="-129"/>
    </contour>
    <contour>
      <point x="1011" y="946" type="line"/>
      <point x="911" y="875" type="line"/>
      <point x="911" y="75" type="line"/>
      <point x="1011" y="146" type="line"/>
    </contour>
    <contour>
      <point x="757" y="-40" type="curve" smooth="yes"/>
      <point x="906" y="64"/>
      <point x="929" y="192"/>
      <point x="929" y="338" type="curve" smooth="yes"/>
      <point x="929" y="499"/>
      <point x="887" y="567"/>
      <point x="757" y="476" type="curve" smooth="yes"/>
      <point x="617" y="378"/>
      <point x="549" y="222"/>
      <point x="549" y="72" type="curve" smooth="yes"/>
      <point x="549" y="-86"/>
      <point x="617" y="-138"/>
    </contour>
    <contour>
      <point x="777" y="54" type="curve" smooth="yes"/>
      <point x="687" y="-9"/>
      <point x="649" y="32"/>
      <point x="649" y="142" type="curve" smooth="yes"/>
      <point x="649" y="252"/>
      <point x="687" y="347"/>
      <point x="777" y="410" type="curve" smooth="yes"/>
      <point x="872" y="476"/>
      <point x="911" y="428"/>
      <point x="911" y="325" type="curve" smooth="yes"/>
      <point x="911" y="221"/>
      <point x="872" y="120"/>
    </contour>
  </outline>
</glyph>
<glyph name="e_e.liga.alt1" format="2">
  <advance width="1070"/>
  <outline>
    <contour>
      <point x="498" y="61" type="curve"/>
      <point x="408" y="136" type="line"/>
      <point x="393" y="68"/>
      <point x="332" y="76"/>
      <point x="269" y="123" type="curve" smooth="yes"/>
      <point x="209" y="168"/>
      <point x="133" y="259"/>
      <point x="133" y="402" type="curve" smooth="yes"/>
      <point x="133" y="532"/>
      <point x="189" y="535"/>
      <point x="272" y="477" type="curve" smooth="yes"/>
      <point x="347" y="425"/>
      <point x="386" y="358"/>
      <point x="399" y="276" type="curve"/>
      <point x="112" y="477" type="line"/>
      <point x="112" y="397" type="line"/>
      <point x="498" y="127" type="line"/>
      <point x="502" y="147"/>
      <point x="502" y="168"/>
      <point x="501" y="184" type="curve" smooth="yes"/>
      <point x="493" y="314"/>
      <point x="398" y="469"/>
      <point x="272" y="557" type="curve" smooth="yes"/>
      <point x="130" y="656"/>
      <point x="33" y="633"/>
      <point x="33" y="472" type="curve" smooth="yes"/>
      <point x="33" y="326"/>
      <point x="126" y="143"/>
      <point x="269" y="43" type="curve" smooth="yes"/>
      <point x="385" y="-38"/>
      <point x="478" y="-29"/>
    </contour>
    <contour>
      <point x="1033" y="46" type="curve"/>
      <point x="943" y="121" type="line"/>
      <point x="928" y="54"/>
      <point x="867" y="61"/>
      <point x="804" y="109" type="curve" smooth="yes"/>
      <point x="744" y="154"/>
      <point x="668" y="245"/>
      <point x="668" y="388" type="curve" smooth="yes"/>
      <point x="668" y="518"/>
      <point x="724" y="521"/>
      <point x="807" y="462" type="curve" smooth="yes"/>
      <point x="882" y="410"/>
      <point x="921" y="344"/>
      <point x="934" y="262" type="curve"/>
      <point x="647" y="462" type="line"/>
      <point x="647" y="382" type="line"/>
      <point x="1033" y="112" type="line"/>
      <point x="1037" y="132"/>
      <point x="1037" y="153"/>
      <point x="1036" y="169" type="curve" smooth="yes"/>
      <point x="1028" y="300"/>
      <point x="933" y="454"/>
      <point x="807" y="542" type="curve" smooth="yes"/>
      <point x="665" y="642"/>
      <point x="568" y="619"/>
      <point x="568" y="458" type="curve" smooth="yes"/>
      <point x="568" y="312"/>
      <point x="661" y="129"/>
      <point x="804" y="29" type="curve" smooth="yes"/>
      <point x="920" y="-53"/>
      <point x="1013" y="-44"/>
    </contour>
  </outline>
</glyph>
<glyph name="e_e.liga.alt2" format="2">
  <advance width="1070"/>
  <outline>
    <contour>
      <point x="498" y="343" type="curve"/>
      <point x="408" y="292" type="line"/>
      <point x="393" y="203"/>
      <point x="332" y="126"/>
      <point x="269" y="85" type="curve" smooth="yes"/>
      <point x="209" y="46"/>
      <point x="133" y="30"/>
      <point x="133" y="173" type="curve" smooth="yes"/>
      <point x="133" y="303"/>
      <point x="189" y="385"/>
      <point x="272" y="443" type="curve" smooth="yes"/>
      <point x="347" y="496"/>
      <point x="386" y="484"/>
      <point x="399" y="420" type="curve"/>
      <point x="112" y="219" type="line"/>
      <point x="112" y="139" type="line"/>
      <point x="498" y="409" type="line"/>
      <point x="502" y="435"/>
      <point x="502" y="456"/>
      <point x="501" y="471" type="curve" smooth="yes"/>
      <point x="493" y="589"/>
      <point x="398" y="611"/>
      <point x="272" y="523" type="curve" smooth="yes"/>
      <point x="130" y="423"/>
      <point x="33" y="264"/>
      <point x="33" y="103" type="curve" smooth="yes"/>
      <point x="33" y="-43"/>
      <point x="126" y="-96"/>
      <point x="269" y="5" type="curve" smooth="yes"/>
      <point x="385" y="86"/>
      <point x="478" y="225"/>
    </contour>
    <contour>
      <point x="1033" y="343" type="curve"/>
      <point x="943" y="292" type="line"/>
      <point x="928" y="204"/>
      <point x="867" y="125"/>
      <point x="804" y="85" type="curve" smooth="yes"/>
      <point x="744" y="46"/>
      <point x="668" y="30"/>
      <point x="668" y="173" type="curve" smooth="yes"/>
      <point x="668" y="303"/>
      <point x="724" y="385"/>
      <point x="807" y="442" type="curve" smooth="yes"/>
      <point x="882" y="495"/>
      <point x="921" y="484"/>
      <point x="934" y="420" type="curve"/>
      <point x="647" y="218" type="line"/>
      <point x="647" y="138" type="line"/>
      <point x="1033" y="409" type="line"/>
      <point x="1037" y="434"/>
      <point x="1037" y="455"/>
      <point x="1036" y="470" type="curve" smooth="yes"/>
      <point x="1028" y="590"/>
      <point x="933" y="611"/>
      <point x="807" y="522" type="curve" smooth="yes"/>
      <point x="665" y="423"/>
      <point x="568" y="264"/>
      <point x="568" y="103" type="curve" smooth="yes"/>
      <point x="568" y="-43"/>
      <point x="661" y="-95"/>
      <point x="804" y="5" type="curve" smooth="yes"/>
      <point x="920" y="85"/>
      <point x="1013" y="225"/>
    </contour>
  </outline>
</glyph>
<glyph name="e_e.liga.alt3" format="2">
  <advance width="1052"/>
  <outline>
    <contour>
      <point x="1015" y="-36" type="curve"/>
      <point x="925" y="39" type="line"/>
      <point x="910" y="-29"/>
      <point x="849" y="-21"/>
      <point x="786" y="27" type="curve" smooth="yes"/>
      <point x="726" y="72"/>
      <point x="650" y="162"/>
      <point x="650" y="305" type="curve" smooth="yes"/>
      <point x="650" y="435"/>
      <point x="706" y="439"/>
      <point x="789" y="380" type="curve" smooth="yes"/>
      <point x="864" y="327"/>
      <point x="903" y="262"/>
      <point x="916" y="180" type="curve"/>
      <point x="629" y="380" type="line"/>
      <point x="629" y="300" type="line"/>
      <point x="1015" y="30" type="line"/>
      <point x="1019" y="50"/>
      <point x="1019" y="71"/>
      <point x="1018" y="87" type="curve" smooth="yes"/>
      <point x="1010" y="217"/>
      <point x="915" y="372"/>
      <point x="789" y="460" type="curve" smooth="yes"/>
      <point x="647" y="559"/>
      <point x="550" y="536"/>
      <point x="550" y="375" type="curve" smooth="yes"/>
      <point x="550" y="229"/>
      <point x="643" y="47"/>
      <point x="786" y="-53" type="curve" smooth="yes"/>
      <point x="902" y="-135"/>
      <point x="995" y="-126"/>
    </contour>
    <contour>
      <point x="498" y="289" type="curve"/>
      <point x="408" y="238" type="line"/>
      <point x="393" y="149"/>
      <point x="332" y="71"/>
      <point x="269" y="30" type="curve" smooth="yes"/>
      <point x="209" y="-9"/>
      <point x="133" y="-24"/>
      <point x="133" y="119" type="curve" smooth="yes"/>
      <point x="133" y="249"/>
      <point x="189" y="330"/>
      <point x="272" y="388" type="curve" smooth="yes"/>
      <point x="347" y="441"/>
      <point x="386" y="429"/>
      <point x="399" y="365" type="curve"/>
      <point x="112" y="164" type="line"/>
      <point x="112" y="84" type="line"/>
      <point x="498" y="355" type="line"/>
      <point x="502" y="380"/>
      <point x="502" y="401"/>
      <point x="501" y="416" type="curve" smooth="yes"/>
      <point x="493" y="535"/>
      <point x="398" y="557"/>
      <point x="272" y="468" type="curve" smooth="yes"/>
      <point x="130" y="369"/>
      <point x="33" y="210"/>
      <point x="33" y="49" type="curve" smooth="yes"/>
      <point x="33" y="-97"/>
      <point x="126" y="-150"/>
      <point x="269" y="-50" type="curve" smooth="yes"/>
      <point x="385" y="31"/>
      <point x="478" y="171"/>
    </contour>
  </outline>
</glyph>
<glyph name="e_e.liga" format="2">
  <advance width="1034"/>
  <outline>
    <contour>
      <point x="498" y="-53" type="curve"/>
      <point x="408" y="22" type="line"/>
      <point x="393" y="-45"/>
      <point x="332" y="-37"/>
      <point x="269" y="10" type="curve" smooth="yes"/>
      <point x="209" y="55"/>
      <point x="133" y="146"/>
      <point x="133" y="289" type="curve" smooth="yes"/>
      <point x="133" y="419"/>
      <point x="189" y="422"/>
      <point x="272" y="364" type="curve" smooth="yes"/>
      <point x="347" y="311"/>
      <point x="467" y="115"/>
      <point x="399" y="163" type="curve" smooth="yes"/>
      <point x="112" y="364" type="line"/>
      <point x="112" y="284" type="line"/>
      <point x="498" y="13" type="line"/>
      <point x="502" y="34"/>
      <point x="502" y="55"/>
      <point x="501" y="70" type="curve" smooth="yes"/>
      <point x="493" y="201"/>
      <point x="398" y="355"/>
      <point x="272" y="444" type="curve" smooth="yes"/>
      <point x="130" y="543"/>
      <point x="33" y="520"/>
      <point x="33" y="359" type="curve" smooth="yes"/>
      <point x="33" y="213"/>
      <point x="126" y="30"/>
      <point x="269" y="-70" type="curve" smooth="yes"/>
      <point x="385" y="-151"/>
      <point x="478" y="-143"/>
    </contour>
    <contour>
      <point x="997" y="287" type="curve"/>
      <point x="907" y="236" type="line"/>
      <point x="892" y="147"/>
      <point x="831" y="70"/>
      <point x="768" y="29" type="curve" smooth="yes"/>
      <point x="708" y="-10"/>
      <point x="632" y="-26"/>
      <point x="632" y="117" type="curve" smooth="yes"/>
      <point x="632" y="247"/>
      <point x="688" y="329"/>
      <point x="771" y="387" type="curve" smooth="yes"/>
      <point x="846" y="439"/>
      <point x="885" y="428"/>
      <point x="898" y="364" type="curve"/>
      <point x="611" y="163" type="line"/>
      <point x="611" y="83" type="line"/>
      <point x="997" y="353" type="line"/>
      <point x="1001" y="379"/>
      <point x="1001" y="400"/>
      <point x="1000" y="414" type="curve" smooth="yes"/>
      <point x="992" y="533"/>
      <point x="897" y="555"/>
      <point x="771" y="467" type="curve" smooth="yes"/>
      <point x="629" y="367"/>
      <point x="532" y="208"/>
      <point x="532" y="47" type="curve" smooth="yes"/>
      <point x="532" y="-99"/>
      <point x="625" y="-151"/>
      <point x="768" y="-51" type="curve" smooth="yes"/>
      <point x="884" y="30"/>
      <point x="977" y="169"/>
    </contour>
  </outline>
</glyph>
<glyph name="eight.alt1" format="2">
  <advance width="637"/>
  <outline>
    <contour>
      <point x="319" y="37" type="curve" smooth="yes"/>
      <point x="509" y="170"/>
      <point x="594" y="330"/>
      <point x="594" y="445" type="curve" smooth="yes"/>
      <point x="594" y="535"/>
      <point x="537" y="550"/>
      <point x="466" y="532" type="curve"/>
      <point x="517" y="602"/>
      <point x="556" y="679"/>
      <point x="556" y="740" type="curve" smooth="yes"/>
      <point x="556" y="845"/>
      <point x="459" y="856"/>
      <point x="319" y="758" type="curve" smooth="yes"/>
      <point x="179" y="660"/>
      <point x="81" y="513"/>
      <point x="81" y="408" type="curve" smooth="yes"/>
      <point x="81" y="347"/>
      <point x="120" y="324"/>
      <point x="172" y="326" type="curve"/>
      <point x="101" y="245"/>
      <point x="43" y="149"/>
      <point x="43" y="59" type="curve" smooth="yes"/>
      <point x="43" y="-56"/>
      <point x="129" y="-96"/>
    </contour>
    <contour>
      <point x="319" y="127" type="curve" smooth="yes"/>
      <point x="219" y="57"/>
      <point x="148" y="38"/>
      <point x="148" y="133" type="curve" smooth="yes"/>
      <point x="148" y="228"/>
      <point x="219" y="310"/>
      <point x="319" y="380" type="curve" smooth="yes"/>
      <point x="419" y="450"/>
      <point x="489" y="466"/>
      <point x="489" y="371" type="curve" smooth="yes"/>
      <point x="489" y="276"/>
      <point x="419" y="197"/>
    </contour>
    <contour>
      <point x="319" y="470" type="curve" smooth="yes"/>
      <point x="229" y="407"/>
      <point x="181" y="413"/>
      <point x="181" y="473" type="curve" smooth="yes"/>
      <point x="181" y="533"/>
      <point x="229" y="605"/>
      <point x="319" y="668" type="curve" smooth="yes"/>
      <point x="409" y="731"/>
      <point x="456" y="725"/>
      <point x="456" y="665" type="curve" smooth="yes"/>
      <point x="456" y="605"/>
      <point x="409" y="533"/>
    </contour>
  </outline>
</glyph>
<glyph name="f.fina" format="2">
  <advance width="355"/>
  <outline>
    <contour>
      <point x="356" y="880" type="line"/>
      <point x="334" y="892"/>
      <point x="296" y="876"/>
      <point x="257" y="849" type="curve" smooth="yes"/>
      <point x="140" y="767"/>
      <point x="83" y="676"/>
      <point x="83" y="560" type="curve" smooth="yes"/>
      <point x="83" y="-67" type="line"/>
      <point x="183" y="3" type="line"/>
      <point x="183" y="625" type="line"/>
      <point x="183" y="699"/>
      <point x="222" y="744"/>
      <point x="257" y="769" type="curve" smooth="yes"/>
      <point x="287" y="790"/>
      <point x="325" y="803"/>
      <point x="356" y="800" type="curve"/>
    </contour>
    <contour>
      <point x="-1" y="291" type="line"/>
      <point x="349" y="536" type="line"/>
      <point x="349" y="616" type="line"/>
      <point x="-1" y="371" type="line"/>
    </contour>
  </outline>
</glyph>
<glyph name="f_f.liga.alt1" format="2">
  <advance width="792"/>
  <outline>
    <contour>
      <point x="356" y="570" type="line"/>
      <point x="334" y="613"/>
      <point x="296" y="652"/>
      <point x="257" y="680" type="curve" smooth="yes"/>
      <point x="140" y="765"/>
      <point x="83" y="756"/>
      <point x="83" y="640" type="curve" smooth="yes"/>
      <point x="83" y="13" type="line"/>
      <point x="183" y="-60" type="line"/>
      <point x="183" y="562" type="line"/>
      <point x="183" y="636"/>
      <point x="222" y="626"/>
      <point x="257" y="600" type="curve" smooth="yes"/>
      <point x="287" y="579"/>
      <point x="325" y="538"/>
      <point x="356" y="490" type="curve"/>
    </contour>
    <contour>
      <point x="-1" y="491" type="line"/>
      <point x="349" y="236" type="line"/>
      <point x="349" y="316" type="line"/>
      <point x="-1" y="571" type="line"/>
    </contour>
    <contour>
      <point x="793" y="571" type="line"/>
      <point x="771" y="614"/>
      <point x="733" y="653"/>
      <point x="694" y="681" type="curve" smooth="yes"/>
      <point x="577" y="766"/>
      <point x="520" y="756"/>
      <point x="520" y="640" type="curve" smooth="yes"/>
      <point x="520" y="13" type="line"/>
      <point x="620" y="-59" type="line"/>
      <point x="620" y="563" type="line"/>
      <point x="620" y="637"/>
      <point x="659" y="626"/>
      <point x="694" y="601" type="curve" smooth="yes"/>
      <point x="724" y="579"/>
      <point x="762" y="539"/>
      <point x="793" y="491" type="curve"/>
    </contour>
    <contour>
      <point x="436" y="491" type="line"/>
      <point x="786" y="237" type="line"/>
      <point x="786" y="317" type="line"/>
      <point x="436" y="571" type="line"/>
    </contour>
  </outline>
</glyph>
<glyph name="f_f.liga.alt2" format="2">
  <advance width="762"/>
  <outline>
    <contour>
      <point x="356" y="800" type="line"/>
      <point x="334" y="812"/>
      <point x="296" y="798"/>
      <point x="257" y="771" type="curve" smooth="yes"/>
      <point x="140" y="692"/>
      <point x="83" y="603"/>
      <point x="83" y="487" type="curve" smooth="yes"/>
      <point x="83" y="-140" type="line"/>
      <point x="183" y="-73" type="line"/>
      <point x="183" y="549" type="line"/>
      <point x="183" y="623"/>
      <point x="222" y="668"/>
      <point x="257" y="691" type="curve" smooth="yes"/>
      <point x="287" y="712"/>
      <point x="325" y="724"/>
      <point x="356" y="720" type="curve"/>
    </contour>
    <contour>
      <point x="-1" y="221" type="line"/>
      <point x="349" y="456" type="line"/>
      <point x="349" y="536" type="line"/>
      <point x="-1" y="301" type="line"/>
    </contour>
    <contour>
      <point x="763" y="815" type="line"/>
      <point x="741" y="827"/>
      <point x="703" y="812"/>
      <point x="664" y="786" type="curve" smooth="yes"/>
      <point x="547" y="707"/>
      <point x="490" y="617"/>
      <point x="490" y="501" type="curve" smooth="yes"/>
      <point x="490" y="-126" type="line"/>
      <point x="590" y="-58" type="line"/>
      <point x="590" y="564" type="line"/>
      <point x="590" y="638"/>
      <point x="629" y="682"/>
      <point x="664" y="706" type="curve" smooth="yes"/>
      <point x="694" y="726"/>
      <point x="732" y="739"/>
      <point x="763" y="735" type="curve"/>
    </contour>
    <contour>
      <point x="406" y="235" type="line"/>
      <point x="756" y="471" type="line"/>
      <point x="756" y="551" type="line"/>
      <point x="406" y="315" type="line"/>
    </contour>
  </outline>
</glyph>
<glyph name="f_f.liga.alt3" format="2">
  <advance width="732"/>
  <outline>
    <contour>
      <point x="356" y="804" type="line"/>
      <point x="334" y="815"/>
      <point x="296" y="800"/>
      <point x="257" y="772" type="curve" smooth="yes"/>
      <point x="140" y="690"/>
      <point x="83" y="600"/>
      <point x="83" y="484" type="curve" smooth="yes"/>
      <point x="83" y="-143" type="line"/>
      <point x="183" y="-73" type="line"/>
      <point x="183" y="549" type="line"/>
      <point x="183" y="623"/>
      <point x="222" y="667"/>
      <point x="257" y="692" type="curve" smooth="yes"/>
      <point x="287" y="713"/>
      <point x="325" y="727"/>
      <point x="356" y="724" type="curve"/>
    </contour>
    <contour>
      <point x="-1" y="215" type="line"/>
      <point x="349" y="459" type="line"/>
      <point x="349" y="539" type="line"/>
      <point x="-1" y="295" type="line"/>
    </contour>
    <contour>
      <point x="733" y="628" type="line"/>
      <point x="711" y="671"/>
      <point x="673" y="708"/>
      <point x="634" y="736" type="curve" smooth="yes"/>
      <point x="517" y="818"/>
      <point x="460" y="806"/>
      <point x="460" y="690" type="curve" smooth="yes"/>
      <point x="460" y="-73" type="line"/>
      <point x="560" y="-143" type="line"/>
      <point x="560" y="615" type="line"/>
      <point x="560" y="689"/>
      <point x="599" y="681"/>
      <point x="634" y="656" type="curve" smooth="yes"/>
      <point x="664" y="635"/>
      <point x="702" y="595"/>
      <point x="733" y="548" type="curve"/>
    </contour>
    <contour>
      <point x="376" y="459" type="line"/>
      <point x="726" y="215" type="line"/>
      <point x="726" y="295" type="line"/>
      <point x="376" y="539" type="line"/>
    </contour>
  </outline>
</glyph>
<glyph name="f_f.liga" format="2">
  <advance width="732"/>
  <outline>
    <contour>
      <point x="356" y="554" type="line"/>
      <point x="334" y="596"/>
      <point x="296" y="634"/>
      <point x="257" y="661" type="curve" smooth="yes"/>
      <point x="140" y="743"/>
      <point x="83" y="732"/>
      <point x="83" y="616" type="curve" smooth="yes"/>
      <point x="83" y="-82" type="line"/>
      <point x="183" y="-152" type="line"/>
      <point x="183" y="541" type="line"/>
      <point x="183" y="615"/>
      <point x="222" y="605"/>
      <point x="257" y="581" type="curve" smooth="yes"/>
      <point x="287" y="560"/>
      <point x="325" y="520"/>
      <point x="356" y="474" type="curve"/>
    </contour>
    <contour>
      <point x="-1" y="465" type="line"/>
      <point x="349" y="219" type="line"/>
      <point x="349" y="299" type="line"/>
      <point x="-1" y="545" type="line"/>
    </contour>
    <contour>
      <point x="733" y="788" type="line"/>
      <point x="711" y="800"/>
      <point x="673" y="784"/>
      <point x="634" y="757" type="curve" smooth="yes"/>
      <point x="517" y="675"/>
      <point x="460" y="584"/>
      <point x="460" y="468" type="curve" smooth="yes"/>
      <point x="460" y="-149" type="line"/>
      <point x="560" y="-79" type="line"/>
      <point x="560" y="533" type="line"/>
      <point x="560" y="607"/>
      <point x="599" y="653"/>
      <point x="634" y="677" type="curve" smooth="yes"/>
      <point x="664" y="698"/>
      <point x="702" y="712"/>
      <point x="733" y="708" type="curve"/>
    </contour>
    <contour>
      <point x="376" y="199" type="line"/>
      <point x="726" y="445" type="line"/>
      <point x="726" y="525" type="line"/>
      <point x="376" y="279" type="line"/>
    </contour>
  </outline>
</glyph>
<glyph name="five.alt1" format="2">
  <advance width="627"/>
  <outline>
    <contour>
      <point x="119" y="564" type="line"/>
      <point x="78" y="250" type="line"/>
      <point x="159" y="235" type="line"/>
      <point x="197" y="528" type="line"/>
      <point x="535" y="765" type="line"/>
      <point x="535" y="855" type="line"/>
    </contour>
    <contour>
      <point x="309" y="461" type="curve"/>
      <point x="251" y="420"/>
      <point x="199" y="367"/>
      <point x="141" y="283" type="curve"/>
      <point x="159" y="235" type="line"/>
      <point x="209" y="300"/>
      <point x="259" y="336"/>
      <point x="309" y="371" type="curve" smooth="yes"/>
      <point x="449" y="469"/>
      <point x="479" y="418"/>
      <point x="479" y="323" type="curve" smooth="yes"/>
      <point x="479" y="228"/>
      <point x="409" y="149"/>
      <point x="309" y="79" type="curve" smooth="yes"/>
      <point x="209" y="9"/>
      <point x="148" y="6"/>
      <point x="148" y="101" type="curve"/>
      <point x="43" y="38" type="line"/>
      <point x="43" y="-77"/>
      <point x="119" y="-144"/>
      <point x="309" y="-11" type="curve" smooth="yes"/>
      <point x="499" y="122"/>
      <point x="584" y="281"/>
      <point x="584" y="396" type="curve" smooth="yes"/>
      <point x="584" y="531"/>
      <point x="520" y="609"/>
    </contour>
  </outline>
</glyph>
<glyph name="four.alt1" format="2">
  <advance width="646"/>
  <outline>
    <contour>
      <point x="43" y="70" type="line"/>
      <point x="43" y="-20" type="line"/>
      <point x="386" y="220" type="line"/>
      <point x="386" y="-46" type="line"/>
      <point x="491" y="28" type="line"/>
      <point x="491" y="294" type="line"/>
      <point x="603" y="372" type="line"/>
      <point x="603" y="462" type="line"/>
      <point x="491" y="384" type="line"/>
      <point x="491" y="818" type="line"/>
      <point x="315" y="694" type="line"/>
    </contour>
    <contour>
      <point x="159" y="151" type="line"/>
      <point x="386" y="668" type="line"/>
      <point x="386" y="310" type="line"/>
    </contour>
  </outline>
</glyph>
<glyph name="g.fina.alt" format="2">
  <advance width="537"/>
  <outline>
    <contour>
      <point x="495" y="338" type="line"/>
      <point x="395" y="408" type="line"/>
      <point x="395" y="-92" type="line"/>
      <point x="495" y="-162" type="line"/>
    </contour>
    <contour>
      <point x="241" y="8" type="curve" smooth="yes"/>
      <point x="381" y="-90"/>
      <point x="413" y="-16"/>
      <point x="413" y="146" type="curve" smooth="yes"/>
      <point x="413" y="307"/>
      <point x="371" y="433"/>
      <point x="241" y="524" type="curve" smooth="yes"/>
      <point x="101" y="622"/>
      <point x="33" y="560"/>
      <point x="33" y="410" type="curve" smooth="yes"/>
      <point x="33" y="252"/>
      <point x="101" y="106"/>
    </contour>
    <contour>
      <point x="261" y="74" type="curve" smooth="yes"/>
      <point x="171" y="137"/>
      <point x="133" y="230"/>
      <point x="133" y="340" type="curve" smooth="yes"/>
      <point x="133" y="450"/>
      <point x="171" y="493"/>
      <point x="261" y="430" type="curve" smooth="yes"/>
      <point x="356" y="364"/>
      <point x="395" y="261"/>
      <point x="395" y="158" type="curve" smooth="yes"/>
      <point x="395" y="54"/>
      <point x="356" y="8"/>
    </contour>
    <contour>
      <point x="495" y="-162" type="curve"/>
      <point x="395" y="-92" type="line"/>
      <point x="395" y="-174"/>
      <point x="344" y="-184"/>
      <point x="259" y="-124" type="curve" smooth="yes"/>
      <point x="189" y="-75"/>
      <point x="152" y="-19"/>
      <point x="142" y="31" type="curve"/>
      <point x="50" y="84" type="line"/>
      <point x="70" y="-34"/>
      <point x="150" y="-128"/>
      <point x="259" y="-204" type="curve" smooth="yes"/>
      <point x="409" y="-310"/>
      <point x="495" y="-298"/>
    </contour>
  </outline>
</glyph>
<glyph name="g.fina" format="2">
  <advance width="537"/>
  <outline>
    <contour>
      <point x="495" y="662" type="line"/>
      <point x="395" y="592" type="line"/>
      <point x="395" y="92" type="line"/>
      <point x="495" y="162" type="line"/>
    </contour>
    <contour>
      <point x="241" y="-24" type="curve" smooth="yes"/>
      <point x="381" y="74"/>
      <point x="413" y="192"/>
      <point x="413" y="354" type="curve" smooth="yes"/>
      <point x="413" y="515"/>
      <point x="371" y="583"/>
      <point x="241" y="492" type="curve" smooth="yes"/>
      <point x="101" y="394"/>
      <point x="33" y="236"/>
      <point x="33" y="86" type="curve" smooth="yes"/>
      <point x="33" y="-72"/>
      <point x="101" y="-122"/>
    </contour>
    <contour>
      <point x="261" y="70" type="curve" smooth="yes"/>
      <point x="171" y="7"/>
      <point x="133" y="46"/>
      <point x="133" y="156" type="curve" smooth="yes"/>
      <point x="133" y="266"/>
      <point x="171" y="363"/>
      <point x="261" y="426" type="curve" smooth="yes"/>
      <point x="356" y="492"/>
      <point x="395" y="445"/>
      <point x="395" y="342" type="curve" smooth="yes"/>
      <point x="395" y="238"/>
      <point x="356" y="136"/>
    </contour>
    <contour>
      <point x="495" y="162" type="curve"/>
      <point x="395" y="92" type="line"/>
      <point x="395" y="10"/>
      <point x="344" y="-72"/>
      <point x="259" y="-132" type="curve" smooth="yes"/>
      <point x="189" y="-181"/>
      <point x="152" y="-175"/>
      <point x="142" y="-139" type="curve"/>
      <point x="50" y="-216" type="line"/>
      <point x="70" y="-306"/>
      <point x="150" y="-288"/>
      <point x="259" y="-212" type="curve" smooth="yes"/>
      <point x="409" y="-106"/>
      <point x="495" y="26"/>
    </contour>
  </outline>
</glyph>
<glyph name="g_g.liga.alt1" format="2">
  <advance width="1084"/>
  <outline>
    <contour>
      <point x="495" y="403" type="line"/>
      <point x="395" y="473" type="line"/>
      <point x="395" y="-27" type="line"/>
      <point x="495" y="-97" type="line"/>
    </contour>
    <contour>
      <point x="241" y="73" type="curve" smooth="yes"/>
      <point x="381" y="-25"/>
      <point x="413" y="48"/>
      <point x="413" y="210" type="curve" smooth="yes"/>
      <point x="413" y="371"/>
      <point x="371" y="498"/>
      <point x="241" y="589" type="curve" smooth="yes"/>
      <point x="101" y="687"/>
      <point x="33" y="624"/>
      <point x="33" y="474" type="curve" smooth="yes"/>
      <point x="33" y="316"/>
      <point x="101" y="171"/>
    </contour>
    <contour>
      <point x="261" y="139" type="curve" smooth="yes"/>
      <point x="171" y="202"/>
      <point x="133" y="294"/>
      <point x="133" y="404" type="curve" smooth="yes"/>
      <point x="133" y="514"/>
      <point x="171" y="558"/>
      <point x="261" y="495" type="curve" smooth="yes"/>
      <point x="356" y="428"/>
      <point x="395" y="326"/>
      <point x="395" y="223" type="curve" smooth="yes"/>
      <point x="395" y="119"/>
      <point x="356" y="72"/>
    </contour>
    <contour>
      <point x="495" y="-97" type="curve"/>
      <point x="395" y="-27" type="line"/>
      <point x="395" y="-109"/>
      <point x="344" y="-119"/>
      <point x="259" y="-60" type="curve" smooth="yes"/>
      <point x="189" y="-11"/>
      <point x="152" y="46"/>
      <point x="142" y="96" type="curve"/>
      <point x="50" y="148" type="line"/>
      <point x="70" y="30"/>
      <point x="150" y="-64"/>
      <point x="259" y="-140" type="curve" smooth="yes"/>
      <point x="409" y="-245"/>
      <point x="495" y="-233"/>
    </contour>
    <contour>
      <point x="1042" y="380" type="line"/>
      <point x="942" y="450" type="line"/>
      <point x="942" y="-50" type="line"/>
      <point x="1042" y="-120" type="line"/>
    </contour>
    <contour>
      <point x="788" y="50" type="curve" smooth="yes"/>
      <point x="928" y="-48"/>
      <point x="960" y="25"/>
      <point x="960" y="187" type="curve" smooth="yes"/>
      <point x="960" y="348"/>
      <point x="918" y="475"/>
      <point x="788" y="566" type="curve" smooth="yes"/>
      <point x="648" y="664"/>
      <point x="580" y="601"/>
      <point x="580" y="451" type="curve" smooth="yes"/>
      <point x="580" y="293"/>
      <point x="648" y="148"/>
    </contour>
    <contour>
      <point x="808" y="116" type="curve" smooth="yes"/>
      <point x="718" y="179"/>
      <point x="680" y="271"/>
      <point x="680" y="381" type="curve" smooth="yes"/>
      <point x="680" y="491"/>
      <point x="718" y="535"/>
      <point x="808" y="472" type="curve" smooth="yes"/>
      <point x="903" y="405"/>
      <point x="942" y="303"/>
      <point x="942" y="200" type="curve" smooth="yes"/>
      <point x="942" y="96"/>
      <point x="903" y="49"/>
    </contour>
    <contour>
      <point x="1042" y="-120" type="curve"/>
      <point x="942" y="-50" type="line"/>
      <point x="942" y="-132"/>
      <point x="891" y="-142"/>
      <point x="806" y="-83" type="curve" smooth="yes"/>
      <point x="736" y="-34"/>
      <point x="699" y="23"/>
      <point x="689" y="73" type="curve"/>
      <point x="597" y="125" type="line"/>
      <point x="617" y="7"/>
      <point x="697" y="-87"/>
      <point x="806" y="-163" type="curve" smooth="yes"/>
      <point x="956" y="-268"/>
      <point x="1042" y="-256"/>
    </contour>
  </outline>
</glyph>
<glyph name="g_g.liga.alt2" format="2">
  <advance width="1084"/>
  <outline>
    <contour>
      <point x="495" y="817" type="line"/>
      <point x="395" y="747" type="line"/>
      <point x="395" y="247" type="line"/>
      <point x="495" y="317" type="line"/>
    </contour>
    <contour>
      <point x="241" y="131" type="curve" smooth="yes"/>
      <point x="381" y="230"/>
      <point x="413" y="347"/>
      <point x="413" y="509" type="curve" smooth="yes"/>
      <point x="413" y="670"/>
      <point x="371" y="739"/>
      <point x="241" y="647" type="curve" smooth="yes"/>
      <point x="101" y="549"/>
      <point x="33" y="391"/>
      <point x="33" y="241" type="curve" smooth="yes"/>
      <point x="33" y="83"/>
      <point x="101" y="33"/>
    </contour>
    <contour>
      <point x="261" y="225" type="curve" smooth="yes"/>
      <point x="171" y="162"/>
      <point x="133" y="201"/>
      <point x="133" y="311" type="curve" smooth="yes"/>
      <point x="133" y="421"/>
      <point x="171" y="518"/>
      <point x="261" y="581" type="curve" smooth="yes"/>
      <point x="356" y="648"/>
      <point x="395" y="600"/>
      <point x="395" y="497" type="curve" smooth="yes"/>
      <point x="395" y="393"/>
      <point x="356" y="292"/>
    </contour>
    <contour>
      <point x="495" y="317" type="curve"/>
      <point x="395" y="247" type="line"/>
      <point x="395" y="165"/>
      <point x="344" y="84"/>
      <point x="259" y="24" type="curve" smooth="yes"/>
      <point x="189" y="-25"/>
      <point x="152" y="-20"/>
      <point x="142" y="16" type="curve"/>
      <point x="50" y="-61" type="line"/>
      <point x="70" y="-151"/>
      <point x="150" y="-133"/>
      <point x="259" y="-56" type="curve" smooth="yes"/>
      <point x="409" y="49"/>
      <point x="495" y="181"/>
    </contour>
    <contour>
      <point x="1042" y="817" type="line"/>
      <point x="942" y="747" type="line"/>
      <point x="942" y="247" type="line"/>
      <point x="1042" y="317" type="line"/>
    </contour>
    <contour>
      <point x="788" y="132" type="curve" smooth="yes"/>
      <point x="928" y="230"/>
      <point x="960" y="347"/>
      <point x="960" y="509" type="curve" smooth="yes"/>
      <point x="960" y="670"/>
      <point x="918" y="739"/>
      <point x="788" y="648" type="curve" smooth="yes"/>
      <point x="648" y="549"/>
      <point x="580" y="391"/>
      <point x="580" y="241" type="curve" smooth="yes"/>
      <point x="580" y="83"/>
      <point x="648" y="33"/>
    </contour>
    <contour>
      <point x="808" y="226" type="curve" smooth="yes"/>
      <point x="718" y="162"/>
      <point x="680" y="201"/>
      <point x="680" y="311" type="curve" smooth="yes"/>
      <point x="680" y="421"/>
      <point x="718" y="518"/>
      <point x="808" y="582" type="curve" smooth="yes"/>
      <point x="903" y="648"/>
      <point x="942" y="600"/>
      <point x="942" y="497" type="curve" smooth="yes"/>
      <point x="942" y="393"/>
      <point x="903" y="292"/>
    </contour>
    <contour>
      <point x="1042" y="317" type="curve"/>
      <point x="942" y="247" type="line"/>
      <point x="942" y="165"/>
      <point x="891" y="84"/>
      <point x="806" y="24" type="curve" smooth="yes"/>
      <point x="736" y="-25"/>
      <point x="699" y="-20"/>
      <point x="689" y="16" type="curve"/>
      <point x="597" y="-61" type="line"/>
      <point x="617" y="-151"/>
      <point x="697" y="-133"/>
      <point x="806" y="-56" type="curve" smooth="yes"/>
      <point x="956" y="49"/>
      <point x="1042" y="181"/>
    </contour>
  </outline>
</glyph>
<glyph name="g_g.liga.alt3" format="2">
  <advance width="1044"/>
  <outline>
    <contour>
      <point x="495" y="738" type="line"/>
      <point x="395" y="668" type="line"/>
      <point x="395" y="168" type="line"/>
      <point x="495" y="238" type="line"/>
    </contour>
    <contour>
      <point x="241" y="52" type="curve" smooth="yes"/>
      <point x="381" y="150"/>
      <point x="413" y="269"/>
      <point x="413" y="431" type="curve" smooth="yes"/>
      <point x="413" y="592"/>
      <point x="371" y="659"/>
      <point x="241" y="568" type="curve" smooth="yes"/>
      <point x="101" y="470"/>
      <point x="33" y="313"/>
      <point x="33" y="163" type="curve" smooth="yes"/>
      <point x="33" y="5"/>
      <point x="101" y="-46"/>
    </contour>
    <contour>
      <point x="261" y="146" type="curve" smooth="yes"/>
      <point x="171" y="83"/>
      <point x="133" y="123"/>
      <point x="133" y="233" type="curve" smooth="yes"/>
      <point x="133" y="343"/>
      <point x="171" y="439"/>
      <point x="261" y="502" type="curve" smooth="yes"/>
      <point x="356" y="569"/>
      <point x="395" y="521"/>
      <point x="395" y="418" type="curve" smooth="yes"/>
      <point x="395" y="314"/>
      <point x="356" y="213"/>
    </contour>
    <contour>
      <point x="495" y="238" type="curve"/>
      <point x="395" y="168" type="line"/>
      <point x="395" y="86"/>
      <point x="344" y="4"/>
      <point x="259" y="-55" type="curve" smooth="yes"/>
      <point x="189" y="-104"/>
      <point x="152" y="-99"/>
      <point x="142" y="-63" type="curve"/>
      <point x="50" y="-140" type="line"/>
      <point x="70" y="-230"/>
      <point x="150" y="-212"/>
      <point x="259" y="-135" type="curve" smooth="yes"/>
      <point x="409" y="-30"/>
      <point x="495" y="102"/>
    </contour>
    <contour>
      <point x="1002" y="415" type="line"/>
      <point x="902" y="485" type="line"/>
      <point x="902" y="-15" type="line"/>
      <point x="1002" y="-85" type="line"/>
    </contour>
    <contour>
      <point x="748" y="85" type="curve" smooth="yes"/>
      <point x="888" y="-13"/>
      <point x="920" y="60"/>
      <point x="920" y="222" type="curve" smooth="yes"/>
      <point x="920" y="383"/>
      <point x="878" y="510"/>
      <point x="748" y="601" type="curve" smooth="yes"/>
      <point x="608" y="699"/>
      <point x="540" y="636"/>
      <point x="540" y="486" type="curve" smooth="yes"/>
      <point x="540" y="328"/>
      <point x="608" y="183"/>
    </contour>
    <contour>
      <point x="768" y="151" type="curve" smooth="yes"/>
      <point x="678" y="214"/>
      <point x="640" y="306"/>
      <point x="640" y="416" type="curve" smooth="yes"/>
      <point x="640" y="526"/>
      <point x="678" y="570"/>
      <point x="768" y="507" type="curve" smooth="yes"/>
      <point x="863" y="440"/>
      <point x="902" y="338"/>
      <point x="902" y="235" type="curve" smooth="yes"/>
      <point x="902" y="131"/>
      <point x="863" y="84"/>
    </contour>
    <contour>
      <point x="1002" y="-85" type="curve"/>
      <point x="902" y="-15" type="line"/>
      <point x="902" y="-97"/>
      <point x="851" y="-107"/>
      <point x="766" y="-48" type="curve" smooth="yes"/>
      <point x="696" y="1"/>
      <point x="659" y="58"/>
      <point x="649" y="108" type="curve"/>
      <point x="557" y="161" type="line"/>
      <point x="577" y="43"/>
      <point x="657" y="-51"/>
      <point x="766" y="-128" type="curve" smooth="yes"/>
      <point x="916" y="-233"/>
      <point x="1002" y="-221"/>
    </contour>
  </outline>
</glyph>
